# Blender v2.78 (sub 0) OBJ File: 'MM_LevelDebug.blend'
# www.blender.org
o Block_Condo.019_Condo_Cube.010
v -20.250006 -26.999990 1.350003
v -20.250006 27.000021 0.000011
v -20.250006 -26.999990 0.000004
v -20.250006 27.000021 1.350009
v 20.250006 27.000021 0.000011
v 20.250006 27.000021 1.350009
v 20.250006 -26.999990 0.000004
v 20.250006 -26.999990 1.350003
v -5.425965 -26.013775 1.350003
v -3.104668 -26.013777 15.949944
v -5.425965 -26.013777 15.949944
v -16.545929 1.170860 34.654762
v -14.015165 1.170862 15.949947
v -14.015165 1.170860 34.770920
v 19.736685 -7.013205 34.770920
v 19.736685 -7.013201 1.350005
v 19.736696 -0.069720 20.170979
v -5.425965 -23.381277 15.949944
v -3.104614 -23.381279 34.770916
v -5.425965 -23.381279 34.770916
v -19.566298 -23.381262 1.350003
v -16.545929 1.170862 15.949947
v -13.525561 25.722990 1.350009
v 19.736685 -26.013775 1.350003
v 4.407312 -26.013779 34.770916
v 4.407312 -26.013775 1.350003
v -3.104614 -23.381277 15.949944
v -13.525561 25.722986 34.654766
v -10.922032 25.722986 34.770924
v -17.108299 -23.381264 15.949944
v 4.407312 -23.381279 34.770916
v 19.736685 -26.013779 34.770916
v 19.736685 -23.381292 34.770916
v -17.108299 -23.381273 100.570091
v -17.108299 -23.381266 34.770916
v 19.736685 -0.069722 34.770920
v 19.736685 -7.013213 100.570107
v 14.407290 9.354898 34.770920
v 14.407290 -0.069716 100.570107
v 14.407290 -0.069708 34.770920
v -5.425965 -23.381287 100.570091
v 14.407290 24.954714 34.770924
v 14.407290 9.354890 100.570107
v 19.736685 -23.381302 112.564301
v 19.736685 -23.381300 100.570107
v 8.036247 23.065092 34.770924
v 14.407290 24.954706 100.570107
v -3.104614 -23.381287 100.570091
v -19.500256 -26.013777 15.949944
v -19.500256 -26.013775 1.350003
v -19.566298 -23.381264 15.949944
v 14.407290 9.354899 20.170980
v 14.407290 24.954716 20.170982
v 14.407290 -0.069706 20.170979
v 19.736685 -7.013214 112.564301
v 16.235487 -19.618433 112.564301
v 1.903049 18.405235 112.564301
v 8.036247 18.405220 119.022263
v 8.036247 18.405220 112.564301
v 14.407290 -0.069717 112.564301
v 16.235487 -0.069718 119.022263
v 16.235487 -0.069717 112.564301
v 4.407312 -19.618433 112.564301
v -3.104614 -19.618433 119.022263
v -3.104614 -19.618433 112.564301
v 14.407290 16.254211 112.564301
v 14.407290 9.354888 119.022263
v 14.407290 9.354889 112.564301
v 19.736685 -0.069731 112.564301
v 16.235487 -7.013214 112.564301
v -15.046215 -7.013197 100.570084
v -15.046215 -7.013190 34.770920
v 4.407312 -23.381287 100.570107
v 3.480820 23.093031 100.570091
v 3.480820 23.093039 34.770924
v 8.036247 23.065084 100.570107
v 1.903049 16.254211 112.564301
v 1.903049 18.405235 119.022263
v 19.736696 9.354899 20.170980
v 19.736696 24.954716 20.170982
v 14.407290 24.954718 1.350009
v 19.736685 9.354902 1.350007
v 19.736685 -0.069718 1.350006
v 19.736696 24.954718 1.350009
v -13.525561 25.722988 15.949950
v -10.922032 25.722990 1.350009
v -10.922032 25.722988 20.170982
v -15.046202 -7.013147 15.949946
v -14.015165 1.170852 100.570068
v 16.235487 -7.013215 119.022263
v -5.937143 16.254200 112.564301
v 1.903049 16.254211 119.022263
v 8.036247 16.254211 112.564301
v 14.407290 16.254211 119.022263
v 16.235487 -19.618433 119.022263
v -10.246127 -7.013199 112.564301
v -5.937143 16.254200 119.022263
v -17.108299 -23.381275 112.564301
v -15.046215 -7.013200 122.688065
v -15.046215 -7.013199 112.564301
v 4.407312 -19.618433 119.022263
v -10.246127 -7.013200 119.022263
v -5.425965 -7.013200 122.688065
v -5.425965 -7.013200 119.022263
v -3.104614 -23.381289 112.564301
v 4.407312 -23.381289 112.564301
v -12.646172 -7.013199 112.564301
v -8.269296 20.684116 112.564301
v 3.480820 23.093029 112.564301
v -10.922032 25.722977 112.564301
v -2.304968 9.354888 119.022263
v 4.407312 -16.871843 119.022263
v 11.839643 9.354888 119.022263
v -3.104614 -16.871832 119.022263
v 4.407312 -16.871845 122.688065
v -3.104614 -16.871834 122.688065
v 14.407290 -9.371598 119.022263
v 14.407290 -16.871861 122.688065
v 14.407290 -16.871859 119.022263
v 14.407290 -0.069718 119.022263
v 11.839655 -7.013215 119.022263
v -3.104614 -23.381290 122.688065
v -5.425965 -23.381289 112.564301
v 11.839655 -9.371598 119.022263
v 4.407326 9.354888 119.022263
v 8.036247 23.065083 112.564301
v 8.036247 16.254211 119.022263
v 4.407312 -7.013200 122.688065
v -5.425965 -23.381290 122.688065
v -5.425965 -7.013201 128.071838
v 11.839655 -9.371598 122.688065
v 11.839643 9.354888 122.688065
v 11.839655 -7.013216 128.071838
v 11.839655 -7.013216 122.688065
v 14.407290 -9.371598 122.688065
v -2.304968 9.354888 122.688065
v 4.407326 9.354888 122.688065
v 11.839655 1.170837 119.022263
v -17.108299 -23.381277 122.688065
v -2.304968 9.354887 128.071838
v 4.407312 -7.013201 128.071838
v 4.407326 9.354887 128.071838
v 11.839643 9.354887 128.071838
v -14.015165 1.170851 112.564301
v -10.922032 25.722979 100.570091
v 19.736685 -0.069729 100.570107
v 14.407290 24.954704 112.564301
v -3.104668 -26.013775 1.350003
v -3.104668 -26.013779 34.770916
vt 0.1468 0.8820
vt 0.0067 0.8785
vt 0.1468 0.8785
vt 0.0067 0.8820
vt 0.0032 0.9870
vt 0.0032 0.8820
vt 0.0067 0.9870
vt 0.1468 0.9905
vt 0.0067 0.9905
vt 0.1468 0.9870
vt 0.1503 0.8820
vt 0.1503 0.9870
vt 0.4203 0.5079
vt 0.4267 0.5482
vt 0.4203 0.5482
vt 0.3103 0.6033
vt 0.3172 0.5523
vt 0.3172 0.6036
vt 0.0607 0.5990
vt 0.0607 0.5085
vt 0.0795 0.5595
vt 0.4558 0.6127
vt 0.4619 0.6625
vt 0.4558 0.6625
vt 0.3742 0.5083
vt 0.3066 0.5482
vt 0.2391 0.5083
vt 0.4896 0.5079
vt 0.4474 0.6000
vt 0.4474 0.5079
vt 0.4195 0.5517
vt 0.4126 0.6017
vt 0.4126 0.5517
vt 0.2391 0.6062
vt 0.3053 0.6129
vt 0.2383 0.6132
vt 0.3880 0.5596
vt 0.3912 0.5908
vt 0.3844 0.5899
vt 0.4474 0.6097
vt 0.4898 0.6024
vt 0.4898 0.6097
vt 0.4266 0.6097
vt 0.4474 0.6024
vt 0.4249 0.8366
vt 0.4249 0.6625
vt 0.1466 0.6625
vt 0.1282 0.8368
vt 0.1282 0.6625
vt 0.1860 0.6629
vt 0.1611 0.8367
vt 0.1611 0.6629
vt 0.4558 0.8366
vt 0.2272 0.6629
vt 0.1860 0.8367
vt 0.0848 0.8685
vt 0.0848 0.8368
vt 0.2441 0.6629
vt 0.2272 0.8367
vt 0.0442 0.6625
vt 0.0243 0.8368
vt 0.0243 0.6625
vt 0.3905 0.5968
vt 0.0848 0.6625
vt 0.3815 0.5482
vt 0.3815 0.5079
vt 0.3813 0.5083
vt 0.3742 0.5482
vt 0.1564 0.6096
vt 0.1141 0.5699
vt 0.1564 0.5699
vt 0.3956 0.5542
vt 0.3888 0.5532
vt 0.0480 0.6359
vt 0.0088 0.6216
vt 0.0480 0.6216
vt 0.2541 0.9891
vt 0.2861 0.9802
vt 0.2957 0.9891
vt 0.4903 0.9162
vt 0.4749 0.9016
vt 0.4903 0.9016
vt 0.4903 0.8423
vt 0.4749 0.8379
vt 0.4903 0.8379
vt 0.4903 0.7630
vt 0.4749 0.7450
vt 0.4903 0.7450
vt 0.4903 0.8812
vt 0.4749 0.8648
vt 0.4903 0.8648
vt 0.2365 0.9891
vt 0.2541 0.9802
vt 0.3812 0.8366
vt 0.3812 0.6625
vt 0.0442 0.8368
vt 0.2941 0.6629
vt 0.2562 0.8367
vt 0.2562 0.6629
vt 0.2441 0.8367
vt 0.4903 0.9214
vt 0.4749 0.9162
vt 0.1160 0.6360
vt 0.0737 0.6215
vt 0.1160 0.6215
vt 0.1480 0.5595
vt 0.1625 0.5081
vt 0.1625 0.5595
vt 0.1050 0.5085
vt 0.0795 0.5085
vt 0.1050 0.5595
vt 0.1472 0.5085
vt 0.1472 0.5595
vt 0.0481 0.6360
vt 0.0481 0.6215
vt 0.2391 0.5481
vt 0.2320 0.5081
vt 0.2391 0.5081
vt 0.3066 0.5993
vt 0.2391 0.5482
vt 0.2320 0.5597
vt 0.2391 0.5994
vt 0.2320 0.5997
vt 0.4249 0.6127
vt 0.3812 0.6127
vt 0.1141 0.6096
vt 0.0885 0.5699
vt 0.0092 0.5990
vt 0.0092 0.5085
vt 0.0164 0.5990
vt 0.3594 0.8367
vt 0.2940 0.6628
vt 0.3594 0.6628
vt 0.4749 0.8213
vt 0.4903 0.8213
vt 0.4903 0.9401
vt 0.4749 0.9214
vt 0.4903 0.8965
vt 0.4749 0.8812
vt 0.4749 0.7912
vt 0.4903 0.7912
vt 0.4903 0.9966
vt 0.4749 0.9401
vt 0.4249 0.8684
vt 0.3812 0.8952
vt 0.3812 0.8684
vt 0.4749 0.7630
vt 0.3685 0.8855
vt 0.3557 0.8952
vt 0.3557 0.8855
vt 0.2861 0.9502
vt 0.2957 0.9311
vt 0.2957 0.9502
vt 0.1806 0.9025
vt 0.2405 0.8852
vt 0.2405 0.8914
vt 0.1691 0.8965
vt 0.1629 0.9267
vt 0.1562 0.8896
vt 0.2081 0.9249
vt 0.2495 0.9049
vt 0.2494 0.9170
vt 0.1806 0.9384
vt 0.1806 0.9549
vt 0.1750 0.9384
vt 0.2743 0.9419
vt 0.2813 0.9229
vt 0.2813 0.9419
vt 0.2080 0.9671
vt 0.1906 0.9671
vt 0.2081 0.9606
vt 0.3561 0.9022
vt 0.3753 0.9116
vt 0.3561 0.9116
vt 0.4200 0.9022
vt 0.4009 0.9116
vt 0.4009 0.9022
vt 0.2494 0.9718
vt 0.2319 0.9671
vt 0.2494 0.9607
vt 0.4619 0.8952
vt 0.4558 0.8684
vt 0.4619 0.8684
vt 0.2743 0.9672
vt 0.2554 0.9672
vt 0.2554 0.9607
vt 0.2081 0.9419
vt 0.1906 0.9355
vt 0.4749 0.8423
vt 0.1630 0.9384
vt 0.3491 0.9022
vt 0.4749 0.8965
vt 0.3527 0.9431
vt 0.3337 0.9180
vt 0.3527 0.9180
vt 0.3033 0.9431
vt 0.3278 0.9015
vt 0.3278 0.9431
vt 0.3198 0.9857
vt 0.3447 0.9721
vt 0.3447 0.9857
vt 0.3781 0.9180
vt 0.3716 0.9371
vt 0.4227 0.9858
vt 0.4641 0.9721
vt 0.4641 0.9858
vt 0.4039 0.9950
vt 0.4227 0.9950
vt 0.4266 0.9022
vt 0.4200 0.9116
vt 0.3447 0.9950
vt 0.3869 0.9857
vt 0.3869 0.9950
vt 0.4326 0.9022
vt 0.4266 0.9116
vt 0.4039 0.9857
vt 0.4641 0.9950
vt 0.4434 0.9950
vt 0.3753 0.9022
vt 0.4249 0.8952
vt 0.1750 0.9227
vt 0.2287 0.9607
vt 0.1906 0.9157
vt 0.1852 0.9510
vt 0.1852 0.9355
vt 0.3337 0.9015
vt 0.4227 0.9364
vt 0.4640 0.9533
vt 0.4227 0.9533
vt 0.4227 0.9721
vt 0.4640 0.9721
vt 0.3010 0.9857
vt 0.3198 0.9721
vt 0.4039 0.9721
vt 0.3869 0.9721
vt 0.3812 0.8367
vt 0.3594 0.8684
vt 0.2941 0.8367
vt 0.2562 0.8684
vt 0.1558 0.8685
vt 0.1607 0.8368
vt 0.1607 0.8685
vt 0.1466 0.8368
vt 0.1282 0.8685
vt 0.4619 0.8366
vt 0.0243 0.8685
vt 0.0442 0.8685
vt 0.2441 0.8684
vt 0.1611 0.8684
vt 0.2042 0.8684
vt 0.2272 0.8684
vt 0.2940 0.8367
vt 0.2940 0.8684
vt 0.4267 0.5079
vt 0.4267 0.6000
vt 0.1906 0.9510
vt 0.2194 0.8817
vt 0.2405 0.8790
vt 0.1582 0.9549
vt 0.3395 0.8857
vt 0.3395 0.9116
vt 0.1625 0.5597
vt 0.1625 0.6060
vt 0.1921 0.6120
vt 0.1797 0.6117
vt 0.1607 0.6625
vt 0.1466 0.8685
vt 0.3812 0.6628
vt 0.3812 0.6131
vt 0.3594 0.6131
vt 0.3240 0.5534
vt 0.3448 0.5598
vt 0.3232 0.5599
vt 0.3748 0.8683
vt 0.3685 0.8684
vt 0.3103 0.5523
vt 0.0795 0.5990
vt 0.4619 0.6127
vt 0.4896 0.6000
vt 0.4195 0.6017
vt 0.3062 0.6061
vt 0.4266 0.6024
vt 0.3836 0.5960
vt 0.3813 0.5482
vt 0.0088 0.6359
vt 0.2365 0.9802
vt 0.0737 0.6360
vt 0.1480 0.5081
vt 0.2391 0.5993
vt 0.0885 0.6096
vt 0.4749 0.9966
vt 0.2861 0.9311
vt 0.2744 0.9229
vt 0.2319 0.9718
vt 0.4558 0.8952
vt 0.2813 0.9718
vt 0.2981 0.9015
vt 0.3781 0.9371
vt 0.4326 0.9116
vt 0.1806 0.9227
vt 0.4640 0.9285
vt 0.3010 0.9721
vt 0.2941 0.8684
vt 0.1860 0.8684
vt 0.3716 0.9431
vt 0.3491 0.8857
vt 0.1625 0.5997
vt 0.2317 0.6060
vn -1.0000 -0.0000 0.0000
vn 0.0000 1.0000 0.0000
vn 1.0000 -0.0000 0.0000
vn 0.0000 -1.0000 0.0000
vn 0.0000 -0.0000 1.0000
vn -0.9925 0.1221 0.0000
vn -0.0455 0.0056 0.9989
vn -0.0450 0.0056 0.9990
vn -0.0446 0.0056 0.9990
vn -0.2844 0.9587 0.0000
vn -0.9997 -0.0251 -0.0000
vn -0.9922 0.1250 0.0000
vn 0.1796 0.9837 0.0000
vn 0.0061 1.0000 0.0000
vn -0.9833 0.1821 0.0000
vn -0.9823 0.1873 0.0000
vn 0.0303 0.9995 0.0000
vn -0.0459 0.0056 0.9989
s 1
f 1/1/1 2/2/1 3/3/1
f 4/4/2 5/5/2 2/6/2
f 6/7/3 7/8/3 5/9/3
f 8/10/4 3/11/4 7/12/4
f 4/4/5 8/10/5 6/7/5
f 9/13/4 10/14/4 11/15/4
f 12/16/4 13/17/4 14/18/4
f 15/19/3 16/20/3 17/21/3
f 18/22/4 19/23/4 20/24/4
f 21/25/6 22/26/6 23/27/6
f 24/28/4 25/29/4 26/30/4
f 10/31/1 19/32/1 27/33/1
f 28/34/7 14/35/8 29/36/9
f 30/37/5 11/38/5 18/39/5
f 31/40/5 32/41/5 33/42/5
f 19/43/5 25/44/5 31/40/5
f 20/24/4 34/45/4 35/46/4
f 36/47/3 37/48/3 15/49/3
f 38/50/3 39/51/3 40/52/3
f 19/23/4 41/53/4 20/24/4
f 42/54/3 43/55/3 38/50/3
f 37/48/3 44/56/3 45/57/3
f 46/58/10 47/59/10 42/54/10
f 31/60/4 48/61/4 19/62/4
f 10/63/5 18/39/5 11/38/5
f 15/49/3 45/57/3 33/64/3
f 9/13/4 49/65/4 50/66/4
f 50/67/11 51/68/11 21/25/11
f 42/69/3 52/70/3 53/71/3
f 49/72/5 30/37/5 51/73/5
f 54/74/2 36/75/2 17/76/2
f 55/77/5 56/78/5 44/79/5
f 57/80/2 58/81/2 59/82/2
f 60/83/2 61/84/2 62/85/2
f 63/86/4 64/87/4 65/88/4
f 66/89/3 67/90/3 68/91/3
f 69/92/5 70/93/5 55/77/5
f 35/46/12 71/94/12 72/95/12
f 33/64/4 73/96/4 31/60/4
f 29/97/13 74/98/13 75/99/13
f 46/58/14 74/98/14 76/100/14
f 77/101/1 78/102/1 57/80/1
f 53/103/5 79/104/5 80/105/5
f 80/106/2 81/107/2 53/108/2
f 82/109/3 17/21/3 83/110/3
f 79/111/3 84/112/3 80/113/3
f 79/104/5 54/114/5 17/115/5
f 85/116/2 86/117/2 23/118/2
f 12/119/6 85/120/6 22/26/6
f 87/121/2 28/122/2 29/123/2
f 30/124/12 72/95/12 88/125/12
f 30/124/4 20/24/4 35/46/4
f 38/126/3 54/127/3 52/70/3
f 32/128/3 24/129/3 33/130/3
f 89/131/12 29/132/12 14/133/12
f 62/85/3 90/134/3 70/135/3
f 91/136/2 92/137/2 77/101/2
f 93/138/2 94/139/2 66/89/2
f 70/135/3 95/140/3 56/141/3
f 96/142/15 97/143/15 91/136/15
f 98/144/12 99/145/12 100/146/12
f 56/141/4 101/147/4 63/86/4
f 102/148/2 103/149/2 104/150/2
f 63/151/5 105/152/5 106/153/5
f 91/154/5 107/155/5 96/156/5
f 108/157/5 109/158/5 110/159/5
f 111/160/5 102/161/5 104/162/5
f 93/163/5 66/164/5 59/165/5
f 112/166/5 64/167/5 101/168/5
f 67/169/5 94/170/5 113/171/5
f 114/172/4 115/173/4 116/174/4
f 117/175/3 118/176/3 119/177/3
f 90/178/5 120/179/5 121/180/5
f 122/181/4 123/182/4 105/183/4
f 101/168/5 119/184/5 112/166/5
f 117/185/5 121/180/5 124/186/5
f 125/187/5 92/188/5 111/160/5
f 68/91/3 120/189/3 60/83/3
f 109/158/5 59/165/5 126/190/5
f 116/174/3 64/191/3 114/172/3
f 59/82/3 127/192/3 93/138/3
f 128/193/5 116/194/5 115/195/5
f 99/196/5 129/197/5 103/198/5
f 128/199/4 130/200/4 103/201/4
f 118/202/5 131/203/5 115/195/5
f 132/204/3 133/205/3 134/206/3
f 125/207/2 132/204/2 113/208/2
f 124/209/2 135/210/2 117/175/2
f 104/211/16 136/212/16 111/213/16
f 121/214/3 131/215/3 124/209/3
f 111/213/2 137/216/2 125/207/2
f 121/217/3 138/218/3 134/206/3
f 119/177/4 115/173/4 112/219/4
f 123/182/4 139/220/4 98/144/4
f 91/154/5 57/221/5 108/157/5
f 138/222/5 67/169/5 113/171/5
f 111/160/5 92/188/5 97/223/5
f 92/188/5 58/224/5 78/225/5
f 116/194/5 129/197/5 122/226/5
f 140/227/5 141/228/5 142/229/5
f 143/230/5 141/228/5 133/231/5
f 134/232/4 141/233/4 128/199/4
f 136/212/2 142/234/2 137/216/2
f 137/216/2 143/230/2 132/204/2
f 103/201/16 140/235/16 136/212/16
f 71/236/12 144/237/12 89/131/12
f 145/238/13 109/239/13 74/98/13
f 62/240/2 39/241/2 60/242/2
f 146/243/3 55/244/3 37/48/3
f 48/245/4 123/182/4 41/53/4
f 16/20/3 33/130/3 24/129/3
f 73/96/4 105/246/4 48/61/4
f 45/57/4 106/247/4 73/96/4
f 76/100/14 109/239/14 126/248/14
f 41/53/4 98/144/4 34/45/4
f 43/55/3 60/249/3 39/51/3
f 47/59/3 66/250/3 43/55/3
f 76/100/10 147/251/10 47/59/10
f 145/252/12 144/237/12 110/253/12
f 148/254/4 26/30/4 10/14/4
f 149/255/4 10/14/4 25/29/4
f 25/29/4 10/14/4 26/30/4
f 92/188/5 125/187/5 127/256/5
f 102/161/5 111/160/5 97/223/5
f 107/155/5 144/257/5 100/258/5
f 144/257/5 107/155/5 108/157/5
f 120/179/5 138/222/5 121/180/5
f 59/165/5 147/259/5 126/190/5
f 131/203/5 128/193/5 115/195/5
f 119/184/5 90/178/5 117/185/5
f 56/78/5 106/153/5 44/79/5
f 105/260/3 64/191/3 122/261/3
f 81/107/17 87/121/17 53/262/17
f 29/123/17 53/262/17 87/121/17
f 42/263/5 75/264/5 46/265/5
f 108/157/5 110/159/5 144/257/5
f 102/148/2 100/146/2 99/145/2
f 146/243/2 40/266/2 39/241/2
f 113/171/5 127/256/5 125/187/5
f 132/204/3 138/218/3 113/208/3
f 134/206/3 138/218/3 132/204/3
f 127/256/5 113/171/5 94/170/5
f 146/243/2 62/240/2 69/267/2
f 100/146/12 34/45/12 98/144/12
f 72/268/12 89/131/12 14/133/12
f 88/269/12 14/133/12 13/270/12
f 22/271/5 88/272/5 13/273/5
f 88/272/5 22/271/5 51/73/5
f 51/73/5 30/37/5 88/272/5
f 107/274/2 102/148/2 96/275/2
f 1/1/1 4/4/1 2/2/1
f 4/4/2 6/7/2 5/5/2
f 6/7/3 8/10/3 7/8/3
f 8/10/4 1/1/4 3/11/4
f 4/4/5 1/1/5 8/10/5
f 9/13/4 148/254/4 10/14/4
f 12/16/4 22/276/4 13/17/4
f 83/110/3 17/21/3 16/20/3
f 36/277/3 15/19/3 17/21/3
f 18/22/4 27/278/4 19/23/4
f 85/120/6 23/27/6 22/26/6
f 21/25/6 51/68/6 22/26/6
f 24/28/4 32/279/4 25/29/4
f 10/31/1 149/280/1 19/32/1
f 28/34/7 12/281/18 14/35/8
f 30/37/5 49/72/5 11/38/5
f 31/40/5 25/44/5 32/41/5
f 19/43/5 149/282/5 25/44/5
f 20/24/4 41/53/4 34/45/4
f 36/47/3 146/243/3 37/48/3
f 38/50/3 43/55/3 39/51/3
f 19/23/4 48/245/4 41/53/4
f 42/54/3 47/59/3 43/55/3
f 37/48/3 55/244/3 44/56/3
f 46/58/10 76/100/10 47/59/10
f 31/60/4 73/96/4 48/61/4
f 10/63/5 27/283/5 18/39/5
f 15/49/3 37/48/3 45/57/3
f 9/13/4 11/15/4 49/65/4
f 50/67/11 49/284/11 51/68/11
f 42/69/3 38/126/3 52/70/3
f 54/74/2 40/285/2 36/75/2
f 55/77/5 70/93/5 56/78/5
f 57/80/2 78/102/2 58/81/2
f 60/83/2 120/189/2 61/84/2
f 63/86/4 101/147/4 64/87/4
f 66/89/3 94/139/3 67/90/3
f 69/92/5 62/286/5 70/93/5
f 35/46/12 34/45/12 71/94/12
f 33/64/4 45/57/4 73/96/4
f 29/97/13 145/238/13 74/98/13
f 46/58/14 75/99/14 74/98/14
f 77/101/1 92/137/1 78/102/1
f 53/103/5 52/287/5 79/104/5
f 80/106/2 84/288/2 81/107/2
f 82/109/3 79/111/3 17/21/3
f 79/111/3 82/109/3 84/112/3
f 79/104/5 52/287/5 54/114/5
f 85/116/2 87/121/2 86/117/2
f 12/119/6 28/289/6 85/120/6
f 87/121/2 85/116/2 28/122/2
f 30/124/12 35/46/12 72/95/12
f 30/124/4 18/22/4 20/24/4
f 38/126/3 40/290/3 54/127/3
f 89/131/12 145/252/12 29/132/12
f 62/85/3 61/84/3 90/134/3
f 91/136/2 97/143/2 92/137/2
f 93/138/2 127/192/2 94/139/2
f 70/135/3 90/134/3 95/140/3
f 96/142/15 102/291/15 97/143/15
f 98/144/12 139/220/12 99/145/12
f 56/141/4 95/140/4 101/147/4
f 102/148/2 99/145/2 103/149/2
f 63/151/5 65/292/5 105/152/5
f 91/154/5 108/157/5 107/155/5
f 108/157/5 57/221/5 109/158/5
f 112/166/5 114/293/5 64/167/5
f 114/172/4 112/219/4 115/173/4
f 117/175/3 135/210/3 118/176/3
f 90/178/5 61/294/5 120/179/5
f 122/181/4 129/295/4 123/182/4
f 101/168/5 95/296/5 119/184/5
f 117/185/5 90/178/5 121/180/5
f 68/91/3 67/90/3 120/189/3
f 109/158/5 57/221/5 59/165/5
f 116/174/3 122/261/3 64/191/3
f 59/82/3 58/81/3 127/192/3
f 128/193/5 103/198/5 116/194/5
f 99/196/5 139/297/5 129/197/5
f 128/199/4 141/233/4 130/200/4
f 118/202/5 135/298/5 131/203/5
f 132/204/3 143/230/3 133/205/3
f 125/207/2 137/216/2 132/204/2
f 124/209/2 131/215/2 135/210/2
f 104/211/16 103/201/16 136/212/16
f 121/214/3 134/299/3 131/215/3
f 111/213/2 136/212/2 137/216/2
f 119/177/4 118/176/4 115/173/4
f 123/182/4 129/295/4 139/220/4
f 91/154/5 77/300/5 57/221/5
f 138/222/5 120/179/5 67/169/5
f 92/188/5 127/256/5 58/224/5
f 116/194/5 103/198/5 129/197/5
f 140/227/5 130/301/5 141/228/5
f 143/230/5 142/229/5 141/228/5
f 134/232/4 133/302/4 141/233/4
f 136/212/2 140/235/2 142/234/2
f 137/216/2 142/234/2 143/230/2
f 103/201/16 130/200/16 140/235/16
f 71/236/12 100/146/12 144/237/12
f 145/238/13 110/303/13 109/239/13
f 146/243/3 69/267/3 55/244/3
f 48/245/4 105/183/4 123/182/4
f 16/20/3 15/19/3 33/130/3
f 73/96/4 106/247/4 105/246/4
f 45/57/4 44/56/4 106/247/4
f 76/100/14 74/98/14 109/239/14
f 41/53/4 123/182/4 98/144/4
f 43/55/3 68/304/3 60/249/3
f 68/304/3 43/55/3 66/250/3
f 47/59/3 147/251/3 66/250/3
f 76/100/10 126/248/10 147/251/10
f 145/252/12 89/131/12 144/237/12
f 59/165/5 66/164/5 147/259/5
f 131/203/5 134/305/5 128/193/5
f 119/184/5 95/296/5 90/178/5
f 56/78/5 63/151/5 106/153/5
f 105/260/3 65/306/3 64/191/3
f 81/107/17 86/117/17 87/121/17
f 29/123/17 42/307/17 53/262/17
f 42/263/5 29/308/5 75/264/5
f 102/148/2 107/274/2 100/146/2
f 146/243/2 36/47/2 40/266/2
f 146/243/2 39/241/2 62/240/2
f 100/146/12 71/94/12 34/45/12
f 72/268/12 71/236/12 89/131/12
f 88/269/12 72/268/12 14/133/12
