# Blender v2.78 (sub 0) OBJ File: 'WIP LEVEL.blend'
# www.blender.org
o GROUND_23x13.coloured.001_Plane.000
v 0.000000 1080.000000 0.000129
v 0.000000 0.000000 0.000000
v 1920.000000 0.000000 0.000000
v 1920.000000 1080.000000 0.000129
v -67.200073 -144.800049 -0.000005
v 1987.200073 -144.800049 -0.000005
v -67.200073 1224.800049 0.000133
v 1987.200073 1224.800049 0.000133
v 2094.200195 -37.800049 -0.000005
v 2094.200195 1117.800049 0.000133
v -174.200073 1117.800049 0.000133
v -174.200073 -37.800049 -0.000005
v 2094.200195 1224.800049 0.000133
v -174.200073 1224.800049 0.000133
v -174.200073 -144.800049 -0.000005
v 2094.200195 -144.800049 -0.000005
vt 0.0888 0.1874
vt 0.9150 0.6653
vt 0.0888 0.6653
vt 0.9439 0.1233
vt 0.9150 0.1874
vt 0.0599 0.7294
vt 0.9899 0.6820
vt 0.0138 0.1707
vt 0.9439 0.7294
vt 0.9899 0.7294
vt 0.0138 0.7294
vt 0.0138 0.6820
vt 0.0138 0.1233
vt 0.0599 0.1233
vt 0.9899 0.1707
vt 0.9899 0.1233
vn -0.0000 -0.0000 1.0000
s 1
f 2/1/1 4/2/1 1/3/1
f 2/1/1 6/4/1 3/5/1
f 4/2/1 7/6/1 1/3/1
f 3/5/1 10/7/1 4/2/1
f 1/3/1 12/8/1 2/1/1
f 8/9/1 4/2/1 13/10/1
f 4/2/1 10/7/1 13/10/1
f 1/3/1 7/6/1 14/11/1
f 11/12/1 1/3/1 14/11/1
f 2/1/1 12/8/1 15/13/1
f 5/14/1 2/1/1 15/13/1
f 9/15/1 3/5/1 16/16/1
f 3/5/1 6/4/1 16/16/1
f 2/1/1 3/5/1 4/2/1
f 2/1/1 5/14/1 6/4/1
f 4/2/1 8/9/1 7/6/1
f 3/5/1 9/15/1 10/7/1
f 1/3/1 11/12/1 12/8/1
