# Blender v2.79 (sub 0) OBJ File: 'FN_PINK.obj'
# www.blender.org
o PINK_BLDG.000_Block_SquareBuilding.021_Boring_square_building.0
v -39.888546 -35.899696 145.388901
v 7.818138 -35.899677 129.676712
v 7.818141 -35.899673 145.388916
v 39.888527 -35.899654 145.388947
v 39.888519 -7.179926 161.533737
v 39.888523 -35.899658 161.533752
v -7.977720 35.899654 161.533707
v -7.977715 21.539787 145.388870
v -7.977717 35.899658 145.388885
v 23.933121 7.179949 161.533737
v 23.933121 7.179949 145.388901
v 23.933117 21.539801 161.533707
v 39.888542 21.539810 1.994432
v 23.933121 35.899677 129.676712
v 39.888519 21.539804 129.676712
v 39.888523 -7.179926 145.388916
v 39.888523 7.179953 129.676712
v 39.888519 7.179952 145.388916
v 39.888550 -35.899651 1.994430
v 23.933125 7.179950 129.676712
v 23.933128 -7.179929 145.388901
v 7.977702 21.539801 145.388885
v 7.977700 35.899677 145.388885
v 7.977705 21.539801 129.676697
v 7.977703 35.899673 129.676712
v 7.977698 21.539799 161.533737
v -7.977718 21.539795 161.533707
v 23.933125 -7.179930 161.533737
v 23.933121 35.899685 1.994430
v -39.888554 35.899651 1.994401
v -39.888557 35.899647 145.388870
v -39.888557 35.899643 161.533676
v -39.888554 35.899643 129.676682
v -39.888550 -35.899700 161.533737
v -39.888550 7.036355 1.994399
v -39.888550 7.036286 129.676682
v -39.888542 -35.899700 129.676697
v 7.818126 -35.899670 1.994417
v -39.888554 7.036239 145.388885
v -39.888554 7.036239 161.533691
v -35.261486 17.960148 166.533691
v -39.888554 7.036239 166.533691
v -35.261482 7.036261 166.533691
v 39.888531 -35.899658 129.676743
v -35.261482 -10.887602 166.533707
v -39.888550 -35.899700 166.533737
v -35.261478 -31.735334 166.533737
v -11.541709 -31.735321 166.533737
v 7.818143 -35.899677 166.533737
v 7.818148 -31.735313 166.533752
v 20.178045 -31.735308 166.533752
v 39.888523 -35.899658 166.533752
v 36.537888 -31.735300 166.533752
v -7.977718 21.539793 166.533707
v 7.977698 21.539797 166.533737
v -11.541731 17.960209 161.533707
v -11.541733 32.884083 166.533707
v -11.541733 32.884083 161.533707
v 39.888519 -7.179927 166.533737
v 23.933117 21.539801 166.533707
v 23.933121 7.179948 166.533737
v 7.818144 17.960213 161.533737
v -11.541731 17.960209 166.533707
v 20.178022 7.036348 161.533737
v 20.178020 17.960215 166.533707
v 20.178020 17.960215 161.533707
v -7.977720 35.899654 166.533707
v -35.261486 32.884075 166.533676
v -35.261486 32.884075 161.533676
v 23.933125 -7.179931 166.533737
v 36.537884 -10.887538 166.533737
v 20.178022 7.036347 166.533737
v 20.178026 -10.887544 166.533737
v 7.818144 17.960213 166.533737
v -39.888557 35.899643 166.533676
v -35.261478 -31.735334 161.533737
v 20.178026 -10.887544 161.533737
v 7.818141 -35.899677 161.533737
v 36.537888 -31.735300 161.533752
v 36.537884 -10.887538 161.533737
v -11.541713 7.036336 161.533707
v 7.818144 7.036343 161.533722
v 7.818146 -10.887554 161.533737
v 20.178047 -31.735308 161.533737
v 7.818146 -31.735313 161.533737
v -11.541710 -10.887567 161.533722
v -11.541709 -31.735321 161.533737
v -35.261486 17.960171 161.533691
v -35.261482 7.036328 161.533691
v -35.261482 -10.887585 161.533707
v -39.888542 -35.899693 1.994397
vt 0.291000 0.563500
vt 0.445500 0.503300
vt 0.445500 0.563500
vt 0.782000 0.563500
vt 0.875000 0.625300
vt 0.782000 0.625300
vt 0.504200 0.830800
vt 0.451800 0.761100
vt 0.504200 0.761100
vt 0.322800 0.807400
vt 0.322800 0.737700
vt 0.375300 0.807400
vt 0.032500 0.014400
vt 0.084200 0.503300
vt 0.032500 0.503300
vt 0.875000 0.563500
vt 0.921500 0.503300
vt 0.921500 0.563500
vt 0.968100 0.014400
vt 0.782000 0.014400
vt 0.084200 0.625300
vt 0.580800 0.807600
vt 0.528300 0.738700
vt 0.580800 0.738700
vt 0.375300 0.807400
vt 0.432600 0.876300
vt 0.375300 0.876300
vt 0.322800 0.897800
vt 0.375300 0.829000
vt 0.375300 0.897800
vt 0.375300 0.807400
vt 0.433500 0.669800
vt 0.433500 0.807400
vt 0.322800 0.669800
vt 0.270400 0.737700
vt 0.270400 0.829000
vt 0.322800 0.897800
vt 0.270400 0.897800
vt 0.135900 0.503300
vt 0.580800 0.875400
vt 0.528300 0.807600
vt 0.580800 0.807600
vt 0.580800 0.669800
vt 0.580800 0.738700
vt 0.528300 0.738700
vt 0.135900 0.563500
vt 0.135900 0.625300
vt 0.187600 0.563500
vt 0.187600 0.625300
vt 0.451800 0.739500
vt 0.510100 0.669800
vt 0.510100 0.739500
vt 0.135900 0.503300
vt 0.084200 0.014400
vt 0.291000 0.014400
vt 0.187600 0.625300
vt 0.291000 0.563500
vt 0.291000 0.625300
vt 0.187600 0.563500
vt 0.291000 0.503300
vt 0.291000 0.625300
vt 0.549400 0.503300
vt 0.642900 0.014400
vt 0.642900 0.503300
vt 0.291000 0.503300
vt 0.445500 0.014400
vt 0.549400 0.625300
vt 0.642900 0.563500
vt 0.642900 0.625300
vt 0.968100 0.503300
vt 0.951400 0.744200
vt 0.970600 0.782700
vt 0.951400 0.782700
vt 0.451800 0.830800
vt 0.782000 0.503300
vt 0.951400 0.845900
vt 0.970600 0.934100
vt 0.951400 0.919400
vt 0.528300 0.807600
vt 0.432600 0.807400
vt 0.270400 0.807400
vt 0.322800 0.829000
vt 0.528300 0.875400
vt 0.451800 0.669800
vt 0.135900 0.563500
vt 0.852500 0.919400
vt 0.771800 0.934100
vt 0.771800 0.919400
vt 0.782000 0.563500
vt 0.782000 0.625300
vt 0.720300 0.919400
vt 0.638100 0.934100
vt 0.652100 0.919400
vt 0.782000 0.503300
vt 0.187600 0.644400
vt 0.135900 0.644400
vt 0.528300 0.875400
vt 0.546600 0.939900
vt 0.528300 0.939900
vt 0.875000 0.644400
vt 0.782000 0.644400
vt 0.375300 0.829000
vt 0.322800 0.829000
vt 0.580800 0.723200
vt 0.599000 0.806800
vt 0.580800 0.806800
vt 0.451800 0.761100
vt 0.580800 0.884200
vt 0.599000 0.931300
vt 0.580800 0.931300
vt 0.504200 0.852400
vt 0.451800 0.852400
vt 0.084200 0.644400
vt 0.470000 0.954800
vt 0.451800 0.852400
vt 0.470000 0.852400
vt 0.837600 0.731600
vt 0.852500 0.691600
vt 0.852500 0.744200
vt 0.704600 0.832900
vt 0.652100 0.845900
vt 0.638100 0.832900
vt 0.771100 0.731600
vt 0.720300 0.744200
vt 0.704600 0.731600
vt 0.704600 0.782200
vt 0.720300 0.782700
vt 0.837600 0.680900
vt 0.951400 0.691600
vt 0.720300 0.845900
vt 0.771800 0.744200
vt 0.970600 0.680900
vt 0.599000 0.669800
vt 0.599000 0.723200
vt 0.528300 0.669800
vt 0.510100 0.759800
vt 0.510100 0.669800
vt 0.291000 0.644400
vt 0.187600 0.644400
vt 0.270400 0.829000
vt 0.580800 0.806800
vt 0.599000 0.884200
vt 0.445500 0.625300
vt 0.291000 0.644400
vt 0.488300 0.942400
vt 0.470000 0.852400
vt 0.488300 0.852400
vt 0.451800 0.669800
vt 0.433500 0.740500
vt 0.433500 0.669800
vt 0.506600 0.923000
vt 0.488300 0.852400
vt 0.506600 0.852400
vt 0.549400 0.644400
vt 0.197200 0.800900
vt 0.164200 0.870100
vt 0.164200 0.800900
vt 0.110000 0.800900
vt 0.047000 0.756700
vt 0.110000 0.756700
vt 0.164200 0.756700
vt 0.047000 0.800900
vt 0.110000 0.870100
vt 0.047000 0.870100
vt 0.197200 0.954800
vt 0.164200 0.954800
vt 0.110000 0.954800
vt 0.047000 0.954800
vt 0.110000 0.698300
vt 0.197200 0.870100
vt 0.242300 0.954800
vt 0.549400 0.563500
vt 0.528300 0.759800
vt 0.510100 0.837200
vt 0.528300 0.837200
vt 0.510100 0.884400
vt 0.528300 0.884400
vt 0.510100 0.948800
vt 0.451800 0.740500
vt 0.433500 0.793800
vt 0.451800 0.793800
vt 0.433500 0.877400
vt 0.451800 0.877400
vt 0.433500 0.979800
vt 0.782000 0.014400
vt 0.642900 0.644400
vt 0.782000 0.644400
vt 0.549400 0.503300
vt 0.549400 0.563500
vt 0.549400 0.625300
vt 0.445500 0.644400
vt 0.549400 0.644400
vt 0.549400 0.014400
vt 0.549400 0.014400
vt 0.291000 0.014400
vt 0.546600 0.875400
vt 0.510100 0.761100
vt 0.451800 0.954800
vt 0.580800 0.669800
vt 0.599000 0.806800
vt 0.470000 0.942400
vt 0.488300 0.923000
vt 0.197200 0.756700
vt 0.047000 0.698300
vt 0.242300 0.870100
vt 0.528300 0.948800
vt 0.451800 0.979800
vn 0.0000 -1.0000 0.0000
vn 1.0000 0.0000 0.0000
vn 0.6690 0.7433 0.0000
vn 0.6343 0.7048 0.3177
vn 0.0000 -0.0000 1.0000
vn -0.0000 1.0000 0.0000
vn 0.6343 -0.7048 0.3177
vn -0.6343 0.7048 0.3177
vn -1.0000 0.0000 -0.0000
s off
f 1/1/1 2/2/1 3/3/1
f 4/4/2 5/5/2 6/6/2
f 7/7/2 8/8/2 9/9/2
f 10/10/2 11/11/2 12/12/2
f 13/13/3 14/14/3 15/15/3
f 16/16/2 17/17/2 18/18/2
f 13/19/2 17/17/2 19/20/2
f 15/15/4 14/14/4 12/21/4
f 11/22/5 16/23/5 18/24/5
f 18/25/6 20/26/6 11/27/6
f 15/28/5 20/29/5 17/30/5
f 15/31/7 12/32/7 20/33/7
f 20/34/2 12/12/2 11/11/2
f 10/10/2 21/35/2 11/11/2
f 9/36/5 22/37/5 23/38/5
f 14/14/8 24/39/8 12/21/8
f 23/40/2 24/41/2 25/42/2
f 14/43/5 25/44/5 24/45/5
f 12/21/6 24/39/6 22/46/6
f 26/47/6 8/48/6 27/49/6
f 5/50/6 21/51/6 28/52/6
f 12/21/6 22/46/6 26/47/6
f 25/53/6 29/54/6 30/55/6
f 7/56/6 31/57/6 32/58/6
f 9/59/6 25/53/6 33/60/6
f 3/3/1 34/61/1 1/1/1
f 33/62/9 35/63/9 36/64/9
f 37/65/1 38/66/1 2/2/1
f 32/67/9 39/68/9 40/69/9
f 15/70/2 17/17/2 13/19/2
f 41/71/5 42/72/5 43/73/5
f 4/4/2 16/16/2 5/5/2
f 7/7/2 27/74/2 8/8/2
f 13/13/3 29/54/3 14/14/3
f 16/16/2 4/4/2 44/75/2
f 44/75/2 17/17/2 16/16/2
f 45/76/5 46/77/5 47/78/5
f 11/22/5 21/79/5 16/23/5
f 18/25/6 17/80/6 20/26/6
f 10/10/2 28/81/2 21/35/2
f 9/36/5 8/82/5 22/37/5
f 23/40/2 22/83/2 24/41/2
f 26/47/6 22/46/6 8/48/6
f 5/50/6 16/84/6 21/51/6
f 30/55/6 33/60/6 25/53/6
f 25/53/6 14/14/6 29/54/6
f 7/56/6 9/59/6 31/57/6
f 33/60/6 31/57/6 9/59/6
f 9/59/6 23/85/6 25/53/6
f 48/86/5 49/87/5 50/88/5
f 40/69/9 1/89/9 34/90/9
f 51/91/5 52/92/5 53/93/5
f 39/68/9 37/94/9 1/89/9
f 19/20/2 17/17/2 44/75/2
f 26/47/6 54/95/6 55/96/6
f 56/97/9 57/98/9 58/99/9
f 6/6/2 59/100/2 52/101/2
f 10/10/2 60/102/2 61/103/2
f 62/104/1 63/105/1 56/106/1
f 28/52/6 59/107/6 5/50/6
f 64/108/9 65/109/9 66/110/9
f 27/74/2 67/111/2 54/112/2
f 26/47/6 60/113/6 12/21/6
f 58/114/1 68/115/1 69/116/1
f 46/77/5 48/86/5 47/78/5
f 54/117/5 57/118/5 63/119/5
f 70/120/5 71/121/5 59/122/5
f 55/123/5 65/124/5 60/125/5
f 61/126/5 65/124/5 72/127/5
f 67/128/5 68/129/5 57/118/5
f 70/120/5 72/127/5 73/130/5
f 54/117/5 74/131/5 55/123/5
f 59/122/5 53/93/5 52/92/5
f 75/132/5 41/71/5 68/129/5
f 62/104/1 65/133/1 74/134/1
f 76/135/2 45/136/2 47/137/2
f 7/56/6 75/138/6 67/139/6
f 28/81/2 61/103/2 70/140/2
f 77/141/9 72/142/9 64/108/9
f 78/143/1 46/144/1 34/61/1
f 79/145/9 71/146/9 80/147/9
f 79/148/6 51/149/6 53/150/6
f 80/151/1 73/152/1 77/153/1
f 40/69/9 75/154/9 32/67/9
f 62/155/5 81/156/5 82/157/5
f 83/158/5 84/159/5 77/160/5
f 82/157/5 77/160/5 64/161/5
f 64/161/5 62/155/5 82/157/5
f 85/162/5 86/163/5 87/164/5
f 83/158/5 81/156/5 86/163/5
f 81/156/5 88/165/5 89/166/5
f 87/164/5 90/167/5 76/168/5
f 86/163/5 89/166/5 90/167/5
f 84/159/5 80/169/5 77/160/5
f 56/170/5 69/171/5 88/165/5
f 31/172/9 36/64/9 39/68/9
f 90/173/2 43/174/2 45/136/2
f 89/175/2 41/176/2 43/174/2
f 88/177/2 68/178/2 41/176/2
f 84/179/6 50/180/6 51/149/6
f 85/181/6 48/182/6 50/180/6
f 87/183/6 47/184/6 48/182/6
f 50/88/5 49/87/5 51/91/5
f 43/73/5 42/72/5 45/76/5
f 36/64/9 91/185/9 37/94/9
f 42/186/9 34/90/9 46/187/9
f 3/3/1 44/188/1 4/189/1
f 78/143/1 4/189/1 6/190/1
f 49/191/1 6/190/1 52/192/1
f 2/2/1 19/193/1 44/188/1
f 1/1/1 37/65/1 2/2/1
f 3/3/1 78/143/1 34/61/1
f 33/62/9 30/194/9 35/63/9
f 37/65/1 91/195/1 38/66/1
f 32/67/9 31/172/9 39/68/9
f 45/76/5 42/72/5 46/77/5
f 40/69/9 39/68/9 1/89/9
f 51/91/5 49/87/5 52/92/5
f 39/68/9 36/64/9 37/94/9
f 26/47/6 27/49/6 54/95/6
f 56/97/9 63/196/9 57/98/9
f 6/6/2 5/5/2 59/100/2
f 10/10/2 12/12/2 60/102/2
f 62/104/1 74/134/1 63/105/1
f 28/52/6 70/197/6 59/107/6
f 64/108/9 72/142/9 65/109/9
f 27/74/2 7/7/2 67/111/2
f 26/47/6 55/96/6 60/113/6
f 58/114/1 57/198/1 68/115/1
f 46/77/5 49/87/5 48/86/5
f 54/117/5 67/128/5 57/118/5
f 70/120/5 73/130/5 71/121/5
f 55/123/5 74/131/5 65/124/5
f 61/126/5 60/125/5 65/124/5
f 67/128/5 75/132/5 68/129/5
f 70/120/5 61/126/5 72/127/5
f 54/117/5 63/119/5 74/131/5
f 59/122/5 71/121/5 53/93/5
f 75/132/5 42/72/5 41/71/5
f 62/104/1 66/199/1 65/133/1
f 76/135/2 90/173/2 45/136/2
f 7/56/6 32/58/6 75/138/6
f 28/81/2 10/10/2 61/103/2
f 77/141/9 73/200/9 72/142/9
f 78/143/1 49/191/1 46/144/1
f 79/145/9 53/201/9 71/146/9
f 79/148/6 84/179/6 51/149/6
f 80/151/1 71/202/1 73/152/1
f 40/69/9 42/186/9 75/154/9
f 62/155/5 56/170/5 81/156/5
f 83/158/5 85/162/5 84/159/5
f 82/157/5 83/158/5 77/160/5
f 64/161/5 66/203/5 62/155/5
f 85/162/5 83/158/5 86/163/5
f 83/158/5 82/157/5 81/156/5
f 81/156/5 56/170/5 88/165/5
f 87/164/5 86/163/5 90/167/5
f 86/163/5 81/156/5 89/166/5
f 84/159/5 79/204/5 80/169/5
f 56/170/5 58/205/5 69/171/5
f 31/172/9 33/62/9 36/64/9
f 90/173/2 89/175/2 43/174/2
f 89/175/2 88/177/2 41/176/2
f 88/177/2 69/206/2 68/178/2
f 84/179/6 85/181/6 50/180/6
f 85/181/6 87/183/6 48/182/6
f 87/183/6 76/207/6 47/184/6
f 36/64/9 35/63/9 91/185/9
f 42/186/9 40/69/9 34/90/9
f 3/3/1 2/2/1 44/188/1
f 78/143/1 3/3/1 4/189/1
f 49/191/1 78/143/1 6/190/1
f 2/2/1 38/66/1 19/193/1
