# Blender v2.79 (sub 0) OBJ File: 'Mech Gear Proto.blend'
# www.blender.org
o GEAR_ARMOUR.001_Cylinder.007
v 2.390040 -4.125000 0.889727
v 2.390040 4.125000 0.889727
v 2.183673 -4.125000 1.225901
v 2.183673 4.125000 1.225901
v 1.482414 -3.750000 1.468453
v 1.482414 3.750000 1.468453
v 0.873881 -4.125000 1.634313
v 0.873881 4.125000 1.634313
v -0.000002 -4.125000 1.693774
v -0.000002 4.125000 1.693774
v -0.873884 -4.125000 1.634313
v -0.873884 4.125000 1.634313
v -1.482418 -3.750000 1.468453
v -1.482418 3.750000 1.468453
v -2.183677 -4.125000 1.225901
v -2.183677 4.125000 1.225901
v -2.390044 -4.125000 0.889727
v -2.390044 4.125000 0.889727
v 2.199998 -4.125000 0.778897
v 2.199998 4.125000 0.778897
v 2.032533 -4.125000 1.066045
v 2.032533 4.125000 1.066045
v 1.414212 -3.750000 1.280447
v 1.414212 3.750000 1.280447
v 0.841902 -4.125000 1.416656
v 0.841902 4.125000 1.416656
v -0.000002 -4.125000 1.473774
v -0.000002 4.125000 1.473774
v -0.841905 -4.125000 1.416656
v -0.841905 4.125000 1.416656
v -1.414215 -3.750000 1.280447
v -1.414215 3.750000 1.280447
v -2.032537 -4.125000 1.066045
v -2.032537 4.125000 1.066045
v -2.200002 -4.125000 0.778897
v -2.200002 4.125000 0.778897
v 2.172763 3.375000 0.898855
v 2.172763 -3.375000 0.898855
v 1.985157 3.375000 1.204468
v 1.985157 -3.375000 1.204468
v 1.482414 3.375000 1.468453
v 1.482414 -3.375000 1.468453
v 0.794437 3.375000 1.626186
v 0.794437 -3.375000 1.626186
v -0.000002 3.375000 1.680241
v -0.000002 -3.375000 1.680241
v -0.794440 3.375000 1.626186
v -0.794440 -3.375000 1.626186
v -1.482418 3.375000 1.468453
v -1.482418 -3.375000 1.468453
v -1.985161 3.375000 1.204468
v -1.985161 -3.375000 1.204468
v -2.172767 3.375000 0.898855
v -2.172767 -3.375000 0.898855
v 1.999998 3.375000 0.798101
v 1.999998 -3.375000 0.798101
v 1.847757 3.375000 1.059145
v 1.847757 -3.375000 1.059145
v 1.414212 3.375000 1.280447
v 1.414212 -3.375000 1.280447
v 0.765365 3.375000 1.428316
v 0.765365 -3.375000 1.428316
v -0.000002 3.375000 1.480241
v -0.000002 -3.375000 1.480241
v -0.765368 3.375000 1.428316
v -0.765368 -3.375000 1.428316
v -1.414215 3.375000 1.280447
v -1.414215 -3.375000 1.280447
v -1.847761 3.375000 1.059145
v -1.847761 -3.375000 1.059145
v -2.000002 3.375000 0.798101
v -2.000002 -3.375000 0.798101
v 1.885900 3.206250 1.217662
v 1.885900 -3.206250 1.217662
v 1.408293 3.206250 1.468448
v 1.408293 -3.206250 1.468448
v 0.754715 3.206250 1.618294
v 0.754715 -3.206250 1.618294
v -0.000002 3.206250 1.669647
v -0.000002 -3.206250 1.669647
v -0.754718 3.206250 1.618294
v -0.754718 -3.206250 1.618294
v -1.408297 3.206250 1.468448
v -1.408297 -3.206250 1.468448
v -1.885903 3.206250 1.217662
v -1.885903 -3.206250 1.217662
vt 0.020737 0.078451
vt 0.018705 0.000000
vt 0.037741 0.078451
vt 0.084989 0.039225
vt 0.084989 0.078451
vt 0.150260 0.078451
vt 0.225978 0.000000
vt 0.226019 0.078451
vt 0.302106 0.078451
vt 0.368332 0.039225
vt 0.368332 0.078451
vt 0.417176 0.078451
vt 0.436083 0.000000
vt 0.436030 0.078451
vt 0.874721 0.078451
vt 0.879757 0.000000
vt 0.893651 0.000000
vt 0.862090 0.078451
vt 0.822352 0.039225
vt 0.761556 0.078451
vt 0.822352 0.078451
vt 0.688912 0.000000
vt 0.768769 0.000000
vt 0.615611 0.078451
vt 0.688958 0.078451
vt 0.552681 0.039225
vt 0.608230 0.000000
vt 0.509748 0.078451
vt 0.552681 0.078451
vt 0.493349 0.078451
vt 0.492181 0.000000
vt 0.891920 0.784505
vt 0.893651 0.862956
vt 0.874721 0.784505
vt 0.989409 0.500000
vt 0.972559 0.462604
vt 1.000000 0.480121
vt 0.989409 0.500000
vt 0.972559 0.537395
vt 0.957282 0.521586
vt 0.932928 0.405062
vt 0.957282 0.478414
vt 0.932928 0.594938
vt 0.950895 0.602072
vt 0.939053 0.338064
vt 0.950895 0.397928
vt 0.939053 0.661936
vt 0.918253 0.658591
vt 0.912570 0.250000
vt 0.918253 0.341409
vt 0.912570 0.750000
vt 0.933594 0.750000
vt 0.939053 0.161936
vt 0.933594 0.250000
vt 0.939053 0.838064
vt 0.918253 0.841409
vt 0.932928 0.094938
vt 0.918253 0.158591
vt 0.932928 0.905062
vt 0.950895 0.897928
vt 0.972559 0.037395
vt 0.950895 0.102072
vt 0.972559 0.962604
vt 0.957282 0.978414
vt 0.989409 0.000000
vt 0.957282 0.021586
vt 0.989409 1.000000
vt 1.000000 0.980121
vt 0.477604 0.078451
vt 0.474142 0.000000
vt 0.477604 0.784505
vt 0.474142 0.862956
vt 0.456823 0.862956
vt 0.493349 0.784505
vt 0.891920 0.078451
vt 0.912570 0.000000
vt 0.492181 0.862956
vt 0.509748 0.784505
vt 0.552681 0.823730
vt 0.552681 0.784505
vt 0.615611 0.784505
vt 0.608230 0.862956
vt 0.688912 0.862956
vt 0.688958 0.784505
vt 0.761556 0.784505
vt 0.768769 0.862956
vt 0.822352 0.823730
vt 0.822352 0.784505
vt 0.862090 0.784505
vt 0.879757 0.862956
vt 0.436083 0.862956
vt 0.436030 0.784505
vt 0.417177 0.784505
vt 0.368332 0.823730
vt 0.407651 0.096102
vt 0.302106 0.784505
vt 0.309674 0.862956
vt 0.361248 0.096102
vt 0.225979 0.862956
vt 0.150260 0.784505
vt 0.092072 0.766854
vt 0.154080 0.766854
vt 0.142643 0.862956
vt 0.368332 0.784505
vt 0.407651 0.766854
vt 0.084989 0.823730
vt 0.154080 0.096102
vt 0.037742 0.784505
vt 0.018705 0.862956
vt 0.226019 0.784505
vt 0.226052 0.766854
vt 0.020737 0.784505
vt 0.000000 0.862956
vt 0.361248 0.766854
vt 0.298333 0.096102
vt 0.298334 0.766854
vt 0.226051 0.096102
vt 0.092072 0.096102
vt 0.047187 0.096102
vt 0.047187 0.766854
vt 0.084989 0.784505
vt 0.000000 0.000000
vt 0.142643 0.000000
vt 0.309673 0.000000
vt 0.456823 0.000000
vt 0.912570 0.862956
vt 1.000000 0.519879
vt 1.000000 0.019878
vn 0.8286 -0.2339 0.5087
vn 0.4649 0.0000 0.8854
vn 0.2235 0.0000 0.9747
vn 0.0679 -0.0180 0.9975
vn -0.0679 -0.0180 0.9975
vn -0.2235 0.0000 0.9747
vn -0.4649 0.0000 0.8854
vn -0.8286 -0.2339 0.5087
vn -0.8441 0.2125 -0.4923
vn -0.3807 0.1022 -0.9190
vn -0.2222 0.0000 -0.9750
vn -0.0677 -0.0086 -0.9977
vn 0.0677 -0.0086 -0.9977
vn 0.2266 0.0080 -0.9740
vn 0.4546 0.0000 -0.8907
vn 0.8441 0.2125 -0.4923
vn 0.4977 0.1546 -0.8535
vn 0.0000 -1.0000 0.0000
vn 0.0000 1.0000 0.0000
vn -0.3524 -0.8745 0.3332
vn -0.4674 0.8676 0.1696
vn 0.5077 -0.8416 -0.1842
vn 0.5083 0.8579 -0.0747
vn -0.5083 -0.8579 -0.0747
vn -0.5077 0.8416 -0.1842
vn 0.4674 -0.8676 0.1696
vn 0.3524 0.8745 0.3332
vn -0.4977 -0.1546 -0.8535
vn -0.4977 0.1546 -0.8535
vn -0.5038 0.0000 -0.8638
vn 0.4977 -0.1546 -0.8535
vn 0.5038 0.0000 -0.8638
vn 0.8441 -0.2125 -0.4923
vn 0.8638 0.0000 -0.5038
vn 0.2266 -0.0080 -0.9740
vn 0.2222 0.0000 -0.9750
vn 0.0677 0.0086 -0.9977
vn 0.0677 0.0000 -0.9977
vn -0.0677 0.0086 -0.9977
vn -0.0677 0.0000 -0.9977
vn -0.3807 -0.1022 -0.9190
vn -0.4546 0.0000 -0.8907
vn -0.8441 -0.2125 -0.4923
vn -0.8638 0.0000 -0.5038
vn -0.8286 0.2339 0.5087
vn -0.8522 0.0000 0.5232
vn -0.3846 0.1279 0.9142
vn -0.1318 0.0000 0.9913
vn -0.2420 0.0361 0.9696
vn -0.4555 -0.2001 0.8675
vn -0.0679 0.0180 0.9975
vn 0.2224 0.0977 0.9700
vn 0.0679 0.0180 0.9975
vn -0.4555 0.2001 0.8675
vn 0.2420 0.0361 0.9696
vn 0.0678 -0.0625 0.9957
vn 0.3846 0.1279 0.9142
vn 0.0678 0.0625 0.9957
vn 0.8286 0.2339 0.5087
vn 0.8522 0.0000 0.5232
vn -0.0679 0.0000 0.9977
vn 0.0679 0.0000 0.9977
vn 0.2224 -0.0977 0.9700
vn -0.2224 0.0977 0.9700
vn 0.4555 0.2001 0.8675
vn -0.2224 -0.0977 0.9700
vn 0.4555 -0.2001 0.8675
vn -0.0678 0.0625 0.9957
vn 0.1318 0.0000 0.9913
vn -0.0678 -0.0625 0.9957
vn 0.3846 -0.1279 0.9142
vn 0.2420 -0.0361 0.9696
vn -0.2420 -0.0361 0.9696
vn -0.3846 -0.1279 0.9142
vn -0.2266 0.0080 -0.9740
vn 0.3807 0.1022 -0.9190
vn -0.4674 -0.8676 0.1696
vn -0.3524 0.8745 0.3332
vn 0.5083 -0.8579 -0.0747
vn 0.5077 0.8416 -0.1842
vn -0.5077 -0.8416 -0.1842
vn -0.5083 0.8579 -0.0747
vn 0.3524 -0.8745 0.3332
vn 0.4674 0.8676 0.1696
vn 0.3807 -0.1022 -0.9190
vn -0.2266 -0.0080 -0.9740
s off
f 37/1/1 4/2/1 39/3/1
f 39/3/2 6/4/2 41/5/2
f 6/4/3 43/6/3 41/5/3
f 43/6/4 10/7/4 45/8/4
f 10/7/5 47/9/5 45/8/5
f 47/9/6 14/10/6 49/11/6
f 14/10/7 51/12/7 49/11/7
f 16/13/8 53/14/8 51/12/8
f 55/15/9 22/16/9 20/17/9
f 57/18/10 24/19/10 22/16/10
f 61/20/11 24/19/11 59/21/11
f 61/20/12 28/22/12 26/23/12
f 65/24/13 28/22/13 63/25/13
f 65/24/14 32/26/14 30/27/14
f 69/28/15 32/26/15 67/29/15
f 71/30/16 34/31/16 69/28/16
f 38/32/17 19/33/17 56/34/17
f 1/35/18 21/36/18 19/37/18
f 2/38/19 22/39/19 4/40/19
f 5/41/20 21/36/20 3/42/20
f 6/43/21 22/39/21 24/44/21
f 5/41/22 25/45/22 23/46/22
f 6/43/23 26/47/23 8/48/23
f 9/49/18 25/45/18 7/50/18
f 10/51/19 26/47/19 28/52/19
f 9/49/18 29/53/18 27/54/18
f 10/51/19 30/55/19 12/56/19
f 13/57/24 29/53/24 11/58/24
f 14/59/25 30/55/25 32/60/25
f 13/57/26 33/61/26 31/62/26
f 14/59/27 34/63/27 16/64/27
f 17/65/18 33/61/18 15/66/18
f 18/67/19 34/63/19 36/68/19
f 53/69/28 36/70/28 71/30/28
f 54/71/29 35/72/29 17/73/29
f 53/69/30 72/74/30 54/71/30
f 37/75/31 20/17/31 2/76/31
f 38/32/32 55/15/32 37/75/32
f 33/77/33 72/74/33 70/78/33
f 72/74/34 69/28/34 70/78/34
f 31/79/15 70/78/15 68/80/15
f 70/78/15 67/29/15 68/80/15
f 31/79/35 66/81/35 29/82/35
f 68/80/36 65/24/36 66/81/36
f 27/83/37 66/81/37 64/84/37
f 66/81/38 63/25/38 64/84/38
f 27/83/39 62/85/39 25/86/39
f 64/84/40 61/20/40 62/85/40
f 23/87/11 62/85/11 60/88/11
f 62/85/11 59/21/11 60/88/11
f 23/87/41 58/89/41 21/90/41
f 60/88/42 57/18/42 58/89/42
f 21/90/43 56/34/43 19/33/43
f 58/89/44 55/15/44 56/34/44
f 15/91/45 54/92/45 17/73/45
f 51/12/46 54/92/46 52/93/46
f 13/94/47 52/93/47 15/91/47
f 52/93/48 85/95/48 51/12/48
f 48/96/49 13/94/49 11/97/49
f 49/11/50 85/95/50 83/98/50
f 9/99/51 48/96/51 11/97/51
f 44/100/52 76/101/52 78/102/52
f 44/100/53 9/99/53 7/103/53
f 50/104/54 86/105/54 52/93/54
f 5/106/55 44/100/55 7/103/55
f 45/8/56 77/107/56 43/6/56
f 40/108/57 5/106/57 3/109/57
f 46/110/58 78/102/58 80/111/58
f 38/112/59 3/109/59 1/113/59
f 37/1/60 40/108/60 38/112/60
f 83/98/7 86/105/7 84/114/7
f 81/115/6 84/114/6 82/116/6
f 79/117/61 82/116/61 80/111/61
f 77/107/62 80/111/62 78/102/62
f 75/118/3 78/102/3 76/101/3
f 73/119/2 76/101/2 74/120/2
f 43/6/63 75/118/63 41/5/63
f 48/96/64 84/114/64 50/104/64
f 42/121/65 74/120/65 76/101/65
f 47/9/66 83/98/66 81/115/66
f 41/5/67 73/119/67 39/3/67
f 46/110/68 82/116/68 48/96/68
f 39/3/69 74/120/69 40/108/69
f 45/8/70 81/115/70 79/117/70
f 37/1/1 2/122/1 4/2/1
f 39/3/71 4/2/71 6/4/71
f 6/4/72 8/123/72 43/6/72
f 43/6/4 8/123/4 10/7/4
f 10/7/5 12/124/5 47/9/5
f 47/9/73 12/124/73 14/10/73
f 14/10/74 16/13/74 51/12/74
f 16/13/8 18/125/8 53/14/8
f 55/15/9 57/18/9 22/16/9
f 57/18/42 59/21/42 24/19/42
f 61/20/75 26/23/75 24/19/75
f 61/20/12 63/25/12 28/22/12
f 65/24/13 30/27/13 28/22/13
f 65/24/36 67/29/36 32/26/36
f 69/28/76 34/31/76 32/26/76
f 71/30/16 36/70/16 34/31/16
f 38/32/17 1/126/17 19/33/17
f 1/35/18 3/42/18 21/36/18
f 2/38/19 20/127/19 22/39/19
f 5/41/77 23/46/77 21/36/77
f 6/43/78 4/40/78 22/39/78
f 5/41/79 7/50/79 25/45/79
f 6/43/80 24/44/80 26/47/80
f 9/49/18 27/54/18 25/45/18
f 10/51/19 8/48/19 26/47/19
f 9/49/18 11/58/18 29/53/18
f 10/51/19 28/52/19 30/55/19
f 13/57/81 31/62/81 29/53/81
f 14/59/82 12/56/82 30/55/82
f 13/57/83 15/66/83 33/61/83
f 14/59/84 32/60/84 34/63/84
f 17/65/18 35/128/18 33/61/18
f 18/67/19 16/64/19 34/63/19
f 53/69/28 18/125/28 36/70/28
f 54/71/29 72/74/29 35/72/29
f 53/69/30 71/30/30 72/74/30
f 37/75/31 55/15/31 20/17/31
f 38/32/32 56/34/32 55/15/32
f 33/77/33 35/72/33 72/74/33
f 72/74/34 71/30/34 69/28/34
f 31/79/85 33/77/85 70/78/85
f 70/78/15 69/28/15 67/29/15
f 31/79/36 68/80/36 66/81/36
f 68/80/36 67/29/36 65/24/36
f 27/83/37 29/82/37 66/81/37
f 66/81/38 65/24/38 63/25/38
f 27/83/39 64/84/39 62/85/39
f 64/84/40 63/25/40 61/20/40
f 23/87/86 25/86/86 62/85/86
f 62/85/11 61/20/11 59/21/11
f 23/87/42 60/88/42 58/89/42
f 60/88/42 59/21/42 57/18/42
f 21/90/43 58/89/43 56/34/43
f 58/89/44 57/18/44 55/15/44
f 15/91/45 52/93/45 54/92/45
f 51/12/46 53/14/46 54/92/46
f 13/94/7 50/104/7 52/93/7
f 52/93/48 86/105/48 85/95/48
f 48/96/6 50/104/6 13/94/6
f 49/11/50 51/12/50 85/95/50
f 9/99/51 46/110/51 48/96/51
f 44/100/52 42/121/52 76/101/52
f 44/100/53 46/110/53 9/99/53
f 50/104/54 84/114/54 86/105/54
f 5/106/3 42/121/3 44/100/3
f 45/8/56 79/117/56 77/107/56
f 40/108/2 42/121/2 5/106/2
f 46/110/58 44/100/58 78/102/58
f 38/112/59 40/108/59 3/109/59
f 37/1/60 39/3/60 40/108/60
f 83/98/7 85/95/7 86/105/7
f 81/115/6 83/98/6 84/114/6
f 79/117/61 81/115/61 82/116/61
f 77/107/62 79/117/62 80/111/62
f 75/118/3 77/107/3 78/102/3
f 73/119/2 75/118/2 76/101/2
f 43/6/63 77/107/63 75/118/63
f 48/96/64 82/116/64 84/114/64
f 42/121/65 40/108/65 74/120/65
f 47/9/66 49/11/66 83/98/66
f 41/5/67 75/118/67 73/119/67
f 46/110/68 80/111/68 82/116/68
f 39/3/69 73/119/69 74/120/69
f 45/8/70 47/9/70 81/115/70
