# Blender v2.79 (sub 0) OBJ File: 'Mech Gear Proto.blend'
# www.blender.org
o GEAR_MACHINEGUN.002_Cylinder.006
v 0.000000 5.328302 0.362466
v 0.000000 11.761514 0.362466
v 0.000000 5.328302 0.084617
v 0.000000 11.761514 0.084617
v 0.196469 5.328302 0.165997
v 0.196469 11.761514 0.165997
v 0.277850 5.328302 0.362466
v 0.277850 11.761514 0.362466
v 0.196469 5.328302 0.558935
v 0.196469 11.761514 0.558935
v -0.000000 5.328302 0.640316
v -0.000000 11.761514 0.640316
v -0.196469 5.328302 0.558935
v -0.196469 11.761514 0.558935
v -0.277850 5.328302 0.362466
v -0.277850 11.761514 0.362466
v -0.196469 5.328302 0.165997
v -0.196469 11.761514 0.165997
v 0.000000 1.965073 0.362466
v 0.000000 5.717050 0.362466
v 0.000000 1.965073 -0.193233
v 0.000000 5.717050 -0.193233
v 0.392939 1.965073 -0.030473
v 0.392939 5.717050 -0.030473
v 0.555699 1.965073 0.362466
v 0.555699 5.717050 0.362466
v 0.392939 1.965073 0.755405
v 0.392939 5.717050 0.755405
v -0.000000 1.965073 0.918165
v -0.000000 5.717050 0.918165
v -0.392939 1.965073 0.755405
v -0.392939 5.717050 0.755405
v -0.555699 1.965073 0.362466
v -0.555699 5.717050 0.362466
v -0.392939 1.965073 -0.030473
v -0.392939 5.717050 -0.030473
v -0.729557 1.104972 1.211851
v -0.729557 2.953140 1.211851
v -0.729557 1.104972 -0.966201
v -0.729557 2.953140 -0.966201
v 0.729557 1.104972 1.211851
v 0.729557 2.953140 1.211851
v 0.729557 1.104972 -0.966201
v 0.729557 2.953140 -0.966201
v -0.000000 1.867825 1.339986
v -0.000000 2.451310 1.339986
v 0.000000 1.867825 1.445437
v 0.000000 2.451310 1.445437
v -0.331657 1.867825 1.048244
v -0.331657 2.451310 1.048244
v 0.331657 1.867825 1.048244
v 0.331657 2.451310 1.048244
v 0.174425 1.867825 1.736475
v 0.174425 2.451310 1.736475
v -0.174425 1.867825 1.736475
v -0.174425 2.451310 1.736475
v -0.872759 -1.383558 0.879948
v -0.872759 1.314549 1.248027
v -0.872759 -1.239149 -0.786003
v -0.872759 1.314549 -1.340390
v 0.872759 -1.383558 0.879948
v 0.872759 1.314549 1.248027
v 0.872759 -1.239149 -0.786003
v 0.872759 1.314549 -1.340390
v -0.872759 -0.722924 1.248027
v -0.872759 -0.371876 -1.340390
v 0.872759 -0.371876 -1.340390
v 0.872759 -0.722924 1.248027
v 0.063450 1.867825 1.413479
v 0.063450 2.451310 1.413479
v -0.063450 1.867825 1.413479
v -0.063450 2.451310 1.413479
v -0.369216 1.666175 -0.638345
v -0.369216 2.619932 -0.554902
v -0.369216 1.908337 -3.406268
v -0.369216 2.862094 -3.322825
v 0.369216 1.666175 -0.638345
v 0.369216 2.619932 -0.554902
v 0.369216 1.908337 -3.406268
v 0.369216 2.862094 -3.322825
v -1.037281 -0.379462 -0.936049
v -1.037280 0.231012 -0.946705
v -1.152534 0.263105 -1.051677
v 1.152534 0.263105 -1.051677
v -1.152534 -0.415199 -1.039837
v 1.152534 -0.415199 -1.039837
v -1.152534 -0.956998 -0.631561
v 1.152534 -0.956998 -0.631561
v -1.152534 -1.155345 0.017203
v 1.152534 -1.155345 0.017203
v -1.152534 -0.934478 0.658650
v 1.152534 -0.934478 0.658650
v -1.152534 -0.378759 1.047768
v 1.152534 -0.378759 1.047768
v -1.152534 0.299545 1.035928
v 1.152534 0.299545 1.035928
v -1.152534 0.841345 0.627653
v 1.152534 0.841345 0.627653
v -1.152534 1.039692 -0.021112
v 1.152534 1.039692 -0.021112
v -1.152534 0.818824 -0.662559
v 1.152534 0.818824 -0.662559
v 1.037280 -0.379462 -0.936049
v 1.037280 0.231012 -0.946705
v -1.037281 -0.867081 -0.568601
v 1.037280 -0.867081 -0.568601
v -1.037281 -1.045593 0.015287
v 1.037280 -1.045593 0.015287
v -1.037281 -0.846813 0.592589
v 1.037280 -0.846813 0.592589
v -1.037280 -0.346665 0.942796
v 1.037280 -0.346665 0.942796
v -1.037280 0.263808 0.932140
v 1.037281 0.263808 0.932140
v -1.037280 0.751428 0.564692
v 1.037281 0.751428 0.564692
v -1.037280 0.929940 -0.019196
v 1.037281 0.929940 -0.019196
v -1.037280 0.731158 -0.596498
v 1.037281 0.731158 -0.596498
v 1.244737 0.231012 -0.946705
v 1.244737 0.731158 -0.596498
v -1.244736 0.731158 -0.596498
v -1.244737 0.231012 -0.946705
v 1.244737 -0.346665 0.942796
v 1.244736 -0.846813 0.592589
v -1.244737 -0.846813 0.592589
v -1.244737 -0.346665 0.942796
v 1.244737 0.929940 -0.019196
v 1.244736 -1.045593 0.015287
v -1.244736 0.929940 -0.019196
v -1.244737 -1.045593 0.015287
v 1.244737 0.751428 0.564692
v 1.244736 -0.867081 -0.568601
v -1.244736 0.751428 0.564692
v -1.244737 -0.867081 -0.568601
v 1.244737 0.263808 0.932140
v 1.244736 -0.379462 -0.936049
v -1.244736 0.263808 0.932140
v -1.244737 -0.379462 -0.936049
v -0.000000 8.042600 0.362466
v -0.000000 9.587295 0.362466
v -0.000000 8.042600 -0.150843
v -0.000000 9.587295 -0.150843
v 0.301715 8.042600 -0.052809
v 0.301715 9.587295 -0.052809
v 0.488186 8.042600 0.203845
v 0.488186 9.587295 0.203845
v 0.488186 8.042600 0.521087
v 0.488186 9.587295 0.521087
v 0.301715 8.042600 0.777742
v 0.301715 9.587295 0.777742
v -0.000000 8.042600 0.875775
v -0.000000 9.587295 0.875775
v -0.301715 8.042600 0.777742
v -0.301715 9.587295 0.777742
v -0.488186 8.042600 0.521087
v -0.488186 9.587295 0.521087
v -0.488186 8.042600 0.203845
v -0.488186 9.587295 0.203845
v -0.301715 8.042600 -0.052810
v -0.301715 9.587295 -0.052810
vt 0.821684 0.022448
vt 0.801118 0.031734
vt 0.801118 0.013141
vt 0.543774 0.789808
vt 0.523196 0.780511
vt 0.535250 0.767362
vt 0.921297 0.437479
vt 0.937047 0.999872
vt 0.921297 0.999605
vt 0.813165 0.000000
vt 0.523196 0.799106
vt 1.000000 1.000000
vt 0.984506 0.437479
vt 1.000000 0.437479
vt 0.830203 0.000008
vt 0.535250 0.812254
vt 0.984506 1.000000
vt 0.968523 0.437479
vt 0.842250 0.013162
vt 0.552297 0.812254
vt 0.874049 0.437739
vt 0.889799 0.999624
vt 0.874049 0.999884
vt 0.842250 0.031755
vt 0.564351 0.799106
vt 0.889799 0.437479
vt 0.905548 0.999884
vt 0.830203 0.044896
vt 0.564351 0.780511
vt 0.937047 0.437479
vt 0.953029 1.000000
vt 0.937047 1.000000
vt 0.813165 0.044887
vt 0.552297 0.767362
vt 0.953029 0.437479
vt 0.968523 1.000000
vt 0.905548 0.437745
vt 0.905548 0.999872
vt 0.343939 0.857720
vt 0.385072 0.876292
vt 0.360977 0.902599
vt 0.247611 0.850091
vt 0.230564 0.894982
vt 0.206456 0.868686
vt 0.702851 0.437479
vt 0.734349 0.765855
vt 0.702850 0.765322
vt 0.326902 0.902616
vt 0.264658 0.894982
vt 0.838516 0.408278
vt 0.807528 0.080205
vt 0.838516 0.080205
vt 0.302807 0.876333
vt 0.288766 0.868686
vt 0.807528 0.408279
vt 0.775563 0.080205
vt 0.302807 0.839147
vt 0.288766 0.831496
vt 0.712565 0.080725
vt 0.744064 0.408059
vt 0.712565 0.408580
vt 0.326902 0.812841
vt 0.264658 0.805199
vt 0.744064 0.080205
vt 0.775563 0.408580
vt 0.360977 0.812824
vt 0.230564 0.805199
vt 0.734349 0.437479
vt 0.766314 0.765552
vt 0.734349 0.765552
vt 0.385072 0.839106
vt 0.206456 0.831496
vt 0.766314 0.437479
vt 0.797302 0.765552
vt 0.671352 0.438012
vt 0.671352 0.765855
vt 0.139924 0.652571
vt 0.288077 0.462255
vt 0.288077 0.652571
vt 0.000000 0.663192
vt 0.116965 0.824682
vt 0.000000 0.824682
vt 0.419772 0.627795
vt 0.567925 0.437479
vt 0.567925 0.627795
vt 0.302807 0.651328
vt 0.419772 0.812824
vt 0.302807 0.812824
vt 0.000000 0.663192
vt 0.116965 0.472865
vt 0.116965 0.663192
vt 0.419772 0.460878
vt 0.302807 0.460878
vt 0.636799 0.198160
vt 0.641885 0.200952
vt 0.636799 0.207374
vt 0.557040 0.232907
vt 0.578540 0.200970
vt 0.583627 0.207397
vt 0.707604 0.060652
vt 0.754378 0.000000
vt 0.754378 0.060652
vt 0.663386 0.232868
vt 0.610213 0.232868
vt 0.610213 0.232907
vt 0.801118 0.000000
vt 0.754378 0.058000
vt 0.631713 0.200952
vt 0.583627 0.198176
vt 0.588713 0.200970
vt 0.644672 0.842103
vt 0.670879 0.893123
vt 0.644672 0.893123
vt 0.663386 0.233379
vt 0.710159 0.172728
vt 0.710159 0.233379
vt 0.294088 0.805126
vt 0.299175 0.856214
vt 0.294088 0.856112
vt 0.414694 0.235923
vt 0.207347 0.088462
vt 0.414694 0.057766
vt 0.279848 0.235923
vt 0.419772 0.383281
vt 0.279848 0.383281
vt 0.207347 0.088462
vt 0.000000 0.235923
vt 0.000000 0.057766
vt 0.139924 0.413961
vt 0.000000 0.413961
vt 0.272968 0.805199
vt 0.139924 0.652571
vt 0.272968 0.652571
vt 0.139924 0.462255
vt 0.139924 0.235923
vt 0.139924 0.472865
vt 0.000000 0.472865
vt 0.162937 0.012627
vt 0.029485 0.000000
vt 0.419772 0.460878
vt 0.279848 0.460878
vt 0.251757 0.012627
vt 0.385209 0.000000
vt 0.289002 0.805228
vt 0.289002 0.856214
vt 0.299175 0.805126
vt 0.272968 0.754106
vt 0.299175 0.754106
vt 0.567925 0.639034
vt 0.644672 0.881828
vt 0.567925 0.881818
vt 0.567925 0.881828
vt 0.627119 0.964892
vt 0.567925 0.964892
vt 0.874049 0.437479
vt 0.797302 0.680272
vt 0.797303 0.437489
vt 0.497994 0.829350
vt 0.557189 0.912958
vt 0.497994 0.912958
vt 0.838516 0.321315
vt 0.897710 0.080205
vt 0.897710 0.321315
vt 0.797302 0.922289
vt 0.856497 0.680272
vt 0.856497 0.922289
vt 0.418984 0.872129
vt 0.410343 0.816010
vt 0.418984 0.812824
vt 0.786256 0.825162
vt 0.794904 0.768610
vt 0.794904 0.821986
vt 0.458041 0.000000
vt 0.512413 0.201556
vt 0.458041 0.201556
vt 0.297083 0.915521
vt 0.289002 0.859402
vt 0.297083 0.856214
vt 0.794344 0.884467
vt 0.786256 0.827894
vt 0.794344 0.825162
vt 0.557040 0.000000
vt 0.557041 0.201556
vt 0.302807 0.686513
vt 0.293568 0.742673
vt 0.293568 0.689296
vt 0.293568 0.516976
vt 0.302807 0.466651
vt 0.302807 0.517139
vt 0.419772 0.627795
vt 0.471173 0.829350
vt 0.419772 0.829350
vt 0.302807 0.686513
vt 0.293568 0.629956
vt 0.302807 0.629794
vt 0.556456 0.683863
vt 0.565695 0.633579
vt 0.565695 0.684040
vt 0.471173 0.627795
vt 0.523196 0.829350
vt 0.671352 0.751849
vt 0.662113 0.695280
vt 0.671352 0.695102
vt 0.838516 0.380622
vt 0.846597 0.324503
vt 0.846597 0.377879
vt 0.419772 0.235923
vt 0.465431 0.437479
vt 0.419772 0.437479
vt 0.671352 0.811157
vt 0.662113 0.754997
vt 0.671352 0.751849
vt 0.661302 0.791031
vt 0.644672 0.740570
vt 0.661302 0.740570
vt 0.465430 0.235923
vt 0.519734 0.437479
vt 0.302807 0.568187
vt 0.293568 0.573696
vt 0.385072 0.914357
vt 0.401702 0.863285
vt 0.401702 0.914357
vt 0.519734 0.235923
vt 0.561940 0.437479
vt 0.565277 0.829350
vt 0.557189 0.885923
vt 0.557189 0.832549
vt 0.410343 0.812824
vt 0.401702 0.868943
vt 0.401702 0.815568
vt 0.567925 0.437479
vt 0.619923 0.639034
vt 0.567925 0.639034
vt 0.293568 0.579468
vt 0.302807 0.573696
vt 0.126795 0.811586
vt 0.135443 0.868137
vt 0.126795 0.870892
vt 0.671352 0.437479
vt 0.671352 0.639034
vt 0.556456 0.740609
vt 0.565695 0.735112
vt 0.126204 0.752353
vt 0.116965 0.809117
vt 0.116965 0.755807
vt 0.414694 0.000000
vt 0.414694 0.201556
vt 0.662113 0.644819
vt 0.671352 0.639034
vt 0.135443 0.811586
vt 0.126204 0.754821
vt 0.135443 0.752353
vt 0.637252 0.235923
vt 0.712565 0.295607
vt 0.683798 0.392112
vt 0.678849 0.156267
vt 0.585796 0.016461
vt 0.632322 0.000000
vt 0.116965 0.655164
vt 0.133595 0.708541
vt 0.116965 0.708541
vt 0.539826 0.672618
vt 0.556456 0.627795
vt 0.556456 0.672618
vt 0.661302 0.740570
vt 0.644672 0.689522
vt 0.661302 0.689522
vt 0.523196 0.669229
vt 0.539826 0.627795
vt 0.539826 0.669229
vt 0.523196 0.767362
vt 0.539826 0.722539
vt 0.539826 0.767362
vt 0.385072 0.812824
vt 0.385072 0.863285
vt 0.133596 0.612609
vt 0.116965 0.568797
vt 0.133595 0.568797
vt 0.272968 0.652571
vt 0.289598 0.703059
vt 0.272968 0.703059
vt 0.539826 0.767362
vt 0.556456 0.725928
vt 0.556456 0.767362
vt 0.523196 0.722539
vt 0.116965 0.612609
vt 0.133595 0.655164
vt 0.644672 0.842103
vt 0.644672 0.791031
vt 0.133595 0.752353
vt 0.116965 0.752353
vt 0.116965 0.515420
vt 0.133595 0.515420
vt 0.644672 0.639034
vt 0.661302 0.639034
vt 0.289598 0.754106
vt 0.272968 0.754106
vt 0.539826 0.725928
vt 0.116965 0.472865
vt 0.133595 0.472865
vt 0.458883 0.874231
vt 0.497994 0.860379
vt 0.497994 0.888117
vt 0.039134 0.869566
vt 0.078268 0.855696
vt 0.078268 0.883436
vt 0.762070 0.765855
vt 0.786256 0.901150
vt 0.762070 0.900829
vt 0.483055 0.910551
vt 0.063320 0.833254
vt 0.206456 0.940268
vt 0.186456 0.805199
vt 0.206456 0.805199
vt 0.458883 0.919112
vt 0.039134 0.824682
vt 0.186456 0.940268
vt 0.161043 0.805199
vt 0.434711 0.910531
vt 0.014948 0.833254
vt 0.161043 0.940268
vt 0.139924 0.805199
vt 0.419772 0.888084
vt 0.000000 0.855696
vt 0.078268 0.824996
vt 0.102454 0.959660
vt 0.078268 0.959974
vt 0.419772 0.860346
vt 0.000000 0.883436
vt 0.102454 0.824682
vt 0.126640 0.959974
vt 0.434711 0.837912
vt 0.014948 0.905878
vt 0.671352 0.765855
vt 0.692471 0.900924
vt 0.671352 0.900924
vt 0.458883 0.829350
vt 0.039134 0.914450
vt 0.692471 0.765855
vt 0.717884 0.900924
vt 0.483055 0.837932
vt 0.063320 0.905878
vt 0.717884 0.765855
vt 0.737884 0.900924
vt 0.737884 0.766176
vt 0.737884 0.901150
vt 0.937047 0.437745
vt 0.968523 1.000000
vt 0.905548 0.437739
vt 0.968523 0.437479
vt 0.734349 0.438012
vt 0.775563 0.408278
vt 0.775563 0.080725
vt 0.797302 0.437479
vt 0.139924 0.462255
vt 0.116965 0.663192
vt 0.419772 0.437479
vt 0.419772 0.651328
vt 0.000000 0.472865
vt 0.650782 0.172728
vt 0.569644 0.172728
vt 0.707604 0.000000
vt 0.801118 0.058000
vt 0.622817 0.172728
vt 0.597609 0.172728
vt 0.670879 0.842103
vt 0.663385 0.172728
vt 0.299175 0.805228
vt 0.207347 0.235923
vt 0.419772 0.235923
vt 0.207347 0.235923
vt 0.139924 0.235923
vt 0.139924 0.805199
vt 0.279848 0.462255
vt 0.272968 0.805126
vt 0.644672 0.639045
vt 0.627119 0.881828
vt 0.874049 0.680262
vt 0.557189 0.829350
vt 0.838516 0.080205
vt 0.797303 0.680272
vt 0.410343 0.869385
vt 0.786256 0.765855
vt 0.512413 0.000000
vt 0.289002 0.912778
vt 0.786256 0.881268
vt 0.302807 0.745821
vt 0.293568 0.460878
vt 0.293568 0.681004
vt 0.556456 0.627795
vt 0.523196 0.627795
vt 0.662113 0.746352
vt 0.838516 0.321315
vt 0.662113 0.808374
vt 0.561940 0.235923
vt 0.565277 0.888655
vt 0.410343 0.872129
vt 0.619923 0.437479
vt 0.135443 0.814762
vt 0.126204 0.811586
vt 0.126204 0.808131
vt 0.637252 0.408580
vt 0.590707 0.392072
vt 0.561940 0.348896
vt 0.561940 0.295542
vt 0.590707 0.252390
vt 0.683798 0.252430
vt 0.712565 0.348960
vt 0.678849 0.016527
vt 0.707604 0.059730
vt 0.707604 0.113106
vt 0.632322 0.172728
vt 0.585796 0.156200
vt 0.557041 0.112997
vt 0.557040 0.059622
vt 0.539826 0.627795
vt 0.644672 0.740570
vt 0.523196 0.627795
vt 0.401702 0.812824
vt 0.116965 0.612609
vt 0.289598 0.652571
vt 0.133595 0.612609
vt 0.661302 0.842103
vt 0.786256 0.766176
vt 0.139924 0.940267
vt 0.126640 0.824996
vt 0.737884 0.765855
vn 0.0000 -1.0000 0.0000
vn 0.0000 1.0000 0.0000
vn 0.3827 0.0000 -0.9239
vn 0.9239 0.0000 -0.3827
vn 0.9239 0.0000 0.3827
vn 0.3827 0.0000 0.9239
vn -0.3827 0.0000 0.9239
vn -0.9239 0.0000 0.3827
vn -0.9239 0.0000 -0.3827
vn -0.3827 0.0000 -0.9239
vn -1.0000 0.0000 0.0000
vn 0.0000 0.0000 -1.0000
vn 1.0000 0.0000 0.0000
vn 0.0000 0.0000 1.0000
vn -0.9749 0.0000 0.2227
vn -0.9457 0.0000 0.3249
vn 0.9749 0.0000 0.2227
vn -0.4498 0.0000 0.8931
vn 0.0000 -0.9963 -0.0864
vn 0.0000 -0.4867 0.8736
vn 0.0000 -0.5386 -0.8426
vn 0.4498 0.0000 0.8931
vn 0.9457 0.0000 0.3249
vn 0.0000 0.0872 -0.9962
vn 0.0000 -0.0872 0.9962
vn 0.0000 -0.9962 -0.0872
vn 0.0000 0.9962 0.0872
vn -0.6713 0.4460 0.5919
vn 0.6713 -0.4251 0.6071
vn 0.0000 -0.0175 -0.9998
vn -0.6713 0.4251 -0.6071
vn -0.6713 -0.4460 -0.5919
vn 0.0000 -0.6018 -0.7986
vn 0.6713 -0.0129 -0.7410
vn -0.6713 0.7008 -0.2413
vn 0.0000 -0.9563 -0.2924
vn 0.6713 0.7088 0.2167
vn 0.6713 -0.7088 -0.2167
vn 0.0000 -0.9455 0.3256
vn -0.6713 -0.7008 0.2413
vn 0.6713 0.4251 -0.6071
vn 0.0000 -0.5736 0.8192
vn -0.6713 -0.0129 -0.7410
vn 0.0000 0.0175 0.9998
vn -0.6713 0.7088 0.2167
vn 0.0000 0.6018 0.7986
vn 0.6713 -0.4460 -0.5919
vn 0.6713 0.4460 0.5919
vn 0.0000 0.9563 0.2924
vn 0.6713 0.7008 -0.2413
vn -0.6713 -0.4251 0.6071
vn 0.0000 0.9455 -0.3256
vn 0.6713 -0.7008 0.2413
vn 0.6713 0.0129 0.7410
vn 0.0000 0.5736 -0.8192
vn -0.6713 -0.7088 -0.2167
vn -0.6713 0.0129 0.7410
vn 0.3090 0.0000 -0.9511
vn 0.8090 0.0000 -0.5878
vn 0.8090 0.0000 0.5878
vn 0.3090 0.0000 0.9511
vn -0.3090 0.0000 0.9511
vn -0.8090 0.0000 0.5878
vn -0.8090 0.0000 -0.5878
vn -0.3090 0.0000 -0.9511
s off
f 1/1/1 3/2/1 5/3/1
f 2/4/2 6/5/2 4/6/2
f 4/7/3 5/8/3 3/9/3
f 1/1/1 5/3/1 7/10/1
f 2/4/2 8/11/2 6/5/2
f 6/12/4 7/13/4 5/14/4
f 1/1/1 7/10/1 9/15/1
f 2/4/2 10/16/2 8/11/2
f 8/17/5 9/18/5 7/13/5
f 1/1/1 9/15/1 11/19/1
f 2/4/2 12/20/2 10/16/2
f 10/21/6 11/22/6 9/23/6
f 1/1/1 11/19/1 13/24/1
f 2/4/2 14/25/2 12/20/2
f 12/26/7 13/27/7 11/22/7
f 1/1/1 13/24/1 15/28/1
f 2/4/2 16/29/2 14/25/2
f 14/30/8 15/31/8 13/32/8
f 1/1/1 15/28/1 17/33/1
f 2/4/2 18/34/2 16/29/2
f 16/35/9 17/36/9 15/31/9
f 1/1/1 17/33/1 3/2/1
f 2/4/2 4/6/2 18/34/2
f 18/37/10 3/9/10 17/38/10
f 19/39/1 21/40/1 23/41/1
f 20/42/2 24/43/2 22/44/2
f 22/45/3 23/46/3 21/47/3
f 19/39/1 23/41/1 25/48/1
f 20/42/2 26/49/2 24/43/2
f 24/50/4 25/51/4 23/52/4
f 19/39/1 25/48/1 27/53/1
f 20/42/2 28/54/2 26/49/2
f 26/55/5 27/56/5 25/51/5
f 19/39/1 27/53/1 29/57/1
f 20/42/2 30/58/2 28/54/2
f 28/59/6 29/60/6 27/61/6
f 19/39/1 29/57/1 31/62/1
f 20/42/2 32/63/2 30/58/2
f 30/64/7 31/65/7 29/60/7
f 19/39/1 31/62/1 33/66/1
f 20/42/2 34/67/2 32/63/2
f 32/68/8 33/69/8 31/70/8
f 19/39/1 33/66/1 35/71/1
f 20/42/2 36/72/2 34/67/2
f 34/73/9 35/74/9 33/69/9
f 19/39/1 35/71/1 21/40/1
f 20/42/2 22/44/2 36/72/2
f 36/75/10 21/47/10 35/76/10
f 38/77/11 39/78/11 37/79/11
f 40/80/12 43/81/12 39/82/12
f 44/83/13 41/84/13 43/85/13
f 42/86/14 37/87/14 41/88/14
f 43/89/1 37/90/1 39/91/1
f 40/92/2 42/86/2 44/93/2
f 47/94/1 71/95/1 45/96/1
f 50/97/2 72/98/2 46/99/2
f 56/100/15 49/101/15 55/102/15
f 45/96/1 49/103/1 51/104/1
f 46/99/2 52/105/2 50/97/2
f 50/106/12 51/107/12 49/101/12
f 51/104/1 69/108/1 45/96/1
f 48/109/2 70/110/2 46/99/2
f 54/111/16 69/112/16 53/113/16
f 52/114/17 53/115/17 51/116/17
f 48/117/18 71/118/18 47/119/18
f 58/120/11 66/121/11 65/122/11
f 60/123/12 67/124/12 66/125/12
f 67/126/13 62/127/13 68/128/13
f 62/127/14 65/129/14 68/130/14
f 63/131/19 57/132/19 59/133/19
f 60/123/2 62/134/2 64/135/2
f 68/130/20 57/136/20 61/137/20
f 63/138/13 68/128/13 61/139/13
f 66/125/21 63/140/21 59/141/21
f 65/122/11 59/142/11 57/143/11
f 70/144/22 47/119/22 69/145/22
f 72/146/23 55/147/23 71/148/23
f 73/149/11 76/150/11 75/151/11
f 76/152/24 79/153/24 75/154/24
f 80/155/13 77/156/13 79/157/13
f 78/158/25 73/159/25 77/160/25
f 79/161/26 73/162/26 75/163/26
f 76/164/27 78/165/27 80/166/27
f 87/167/28 81/168/28 85/169/28
f 84/170/29 120/171/29 104/172/29
f 84/173/30 85/174/30 83/175/30
f 93/176/31 109/177/31 91/178/31
f 97/179/32 113/180/32 95/181/32
f 85/174/33 88/182/33 87/183/33
f 96/184/34 112/185/34 114/186/34
f 89/187/35 109/188/35 107/189/35
f 88/190/36 89/191/36 87/192/36
f 88/193/37 108/194/37 90/195/37
f 100/196/38 116/197/38 118/198/38
f 90/199/39 91/200/39 89/191/39
f 101/201/40 117/202/40 99/203/40
f 94/204/41 110/205/41 112/206/41
f 92/207/42 93/208/42 91/209/42
f 95/210/43 111/211/43 93/212/43
f 107/213/36 136/214/36 105/215/36
f 94/216/44 95/217/44 93/208/44
f 89/187/45 105/218/45 87/219/45
f 110/220/39 130/221/39 126/222/39
f 96/223/46 97/224/46 95/217/46
f 98/225/47 114/226/47 116/227/47
f 88/228/48 103/229/48 106/230/48
f 98/231/49 99/232/49 97/233/49
f 90/195/50 110/234/50 92/235/50
f 83/236/51 119/237/51 101/238/51
f 99/232/52 102/239/52 101/240/52
f 102/241/53 118/198/53 120/242/53
f 86/243/54 104/244/54 103/245/54
f 102/246/55 83/175/55 101/247/55
f 99/203/56 115/248/56 97/249/56
f 85/250/57 82/251/57 83/252/57
f 128/253/11 135/254/11 123/255/11
f 129/256/13 130/257/13 134/258/13
f 104/259/30 138/260/30 103/261/30
f 112/262/42 126/263/42 125/264/42
f 116/265/49 129/266/49 118/267/49
f 113/268/46 135/269/46 139/270/46
f 109/271/42 128/272/42 127/273/42
f 106/274/36 130/221/36 108/275/36
f 105/276/33 140/277/33 81/278/33
f 119/279/52 131/280/52 117/281/52
f 116/282/46 137/283/46 133/284/46
f 111/285/44 139/270/44 128/272/44
f 120/286/55 121/287/55 104/259/55
f 107/213/39 127/288/39 132/289/39
f 103/261/33 134/290/33 106/291/33
f 81/278/30 124/292/30 82/293/30
f 118/267/52 122/294/52 120/295/52
f 117/281/49 135/296/49 115/297/49
f 114/298/44 125/264/44 137/283/44
f 82/293/55 123/299/55 119/300/55
f 141/301/1 143/302/1 145/303/1
f 142/304/2 146/305/2 144/306/2
f 144/307/58 145/308/58 143/309/58
f 141/301/1 145/303/1 147/310/1
f 142/304/2 148/311/2 146/305/2
f 146/312/59 147/313/59 145/314/59
f 141/301/1 147/310/1 149/315/1
f 142/304/2 150/316/2 148/311/2
f 148/317/13 149/318/13 147/313/13
f 141/301/1 149/315/1 151/319/1
f 142/304/2 152/320/2 150/316/2
f 150/321/60 151/322/60 149/318/60
f 141/301/1 151/319/1 153/323/1
f 142/304/2 154/324/2 152/320/2
f 152/325/61 153/326/61 151/327/61
f 141/301/1 153/323/1 155/328/1
f 142/304/2 156/329/2 154/324/2
f 154/330/62 155/331/62 153/326/62
f 141/301/1 155/328/1 157/332/1
f 142/304/2 158/333/2 156/329/2
f 156/334/63 157/335/63 155/336/63
f 141/301/1 157/332/1 159/337/1
f 142/304/2 160/338/2 158/333/2
f 158/339/11 159/340/11 157/335/11
f 141/301/1 159/337/1 161/341/1
f 142/304/2 162/342/2 160/338/2
f 160/343/64 161/344/64 159/340/64
f 141/301/1 161/341/1 143/302/1
f 142/304/2 144/306/2 162/342/2
f 162/345/65 143/309/65 161/346/65
f 4/7/3 6/347/3 5/8/3
f 6/12/4 8/17/4 7/13/4
f 8/17/5 10/348/5 9/18/5
f 10/21/6 12/26/6 11/22/6
f 12/26/7 14/349/7 13/27/7
f 14/30/8 16/35/8 15/31/8
f 16/35/9 18/350/9 17/36/9
f 18/37/10 4/7/10 3/9/10
f 22/45/3 24/351/3 23/46/3
f 24/50/4 26/55/4 25/51/4
f 26/55/5 28/352/5 27/56/5
f 28/59/6 30/64/6 29/60/6
f 30/64/7 32/353/7 31/65/7
f 32/68/8 34/73/8 33/69/8
f 34/73/9 36/354/9 35/74/9
f 36/75/10 22/45/10 21/47/10
f 38/77/11 40/355/11 39/78/11
f 40/80/12 44/356/12 43/81/12
f 44/83/13 42/357/13 41/84/13
f 42/86/14 38/358/14 37/87/14
f 43/89/1 41/359/1 37/90/1
f 40/92/2 38/358/2 42/86/2
f 49/103/1 45/96/1 71/95/1
f 71/95/1 55/360/1 49/103/1
f 48/109/2 46/99/2 72/98/2
f 50/97/2 56/361/2 72/98/2
f 56/100/15 50/362/15 49/101/15
f 50/106/12 52/363/12 51/107/12
f 47/94/1 45/96/1 69/108/1
f 51/104/1 53/364/1 69/108/1
f 52/105/2 46/99/2 70/110/2
f 70/110/2 54/365/2 52/105/2
f 54/111/16 70/366/16 69/112/16
f 52/114/17 54/367/17 53/115/17
f 48/117/18 72/368/18 71/118/18
f 58/120/11 60/369/11 66/121/11
f 60/123/12 64/370/12 67/124/12
f 67/126/13 64/371/13 62/127/13
f 62/127/14 58/372/14 65/129/14
f 63/131/19 61/373/19 57/132/19
f 60/123/2 58/374/2 62/134/2
f 68/130/20 65/129/20 57/136/20
f 63/138/13 67/126/13 68/128/13
f 66/125/21 67/124/21 63/140/21
f 65/122/11 66/121/11 59/142/11
f 70/144/22 48/117/22 47/119/22
f 72/146/23 56/375/23 55/147/23
f 73/149/11 74/376/11 76/150/11
f 76/152/24 80/377/24 79/153/24
f 80/155/13 78/378/13 77/156/13
f 78/158/25 74/379/25 73/159/25
f 79/161/26 77/380/26 73/162/26
f 76/164/27 74/381/27 78/165/27
f 87/167/28 105/382/28 81/168/28
f 84/170/29 102/383/29 120/171/29
f 84/173/30 86/384/30 85/174/30
f 93/176/31 111/385/31 109/177/31
f 97/179/32 115/386/32 113/180/32
f 85/174/33 86/384/33 88/182/33
f 96/184/34 94/387/34 112/185/34
f 89/187/35 91/388/35 109/188/35
f 88/190/36 90/199/36 89/191/36
f 88/193/37 106/389/37 108/194/37
f 100/196/38 98/390/38 116/197/38
f 90/199/39 92/391/39 91/200/39
f 101/201/40 119/392/40 117/202/40
f 94/204/41 92/393/41 110/205/41
f 92/207/42 94/216/42 93/208/42
f 95/210/43 113/394/43 111/211/43
f 107/213/36 132/289/36 136/214/36
f 94/216/44 96/223/44 95/217/44
f 89/187/45 107/189/45 105/218/45
f 110/220/39 108/275/39 130/221/39
f 96/223/46 98/395/46 97/224/46
f 98/225/47 96/396/47 114/226/47
f 88/228/48 86/397/48 103/229/48
f 98/231/49 100/398/49 99/232/49
f 90/195/50 108/194/50 110/234/50
f 83/236/51 82/399/51 119/237/51
f 99/232/52 100/398/52 102/239/52
f 102/241/53 100/196/53 118/198/53
f 86/243/54 84/400/54 104/244/54
f 102/246/55 84/173/55 83/175/55
f 99/203/56 117/202/56 115/248/56
f 85/250/57 81/401/57 82/251/57
f 123/255/11 124/402/11 140/403/11
f 140/403/11 136/404/11 123/255/11
f 132/405/11 127/406/11 128/253/11
f 128/253/11 139/407/11 135/254/11
f 135/254/11 131/408/11 123/255/11
f 123/255/11 136/404/11 132/405/11
f 132/405/11 128/253/11 123/255/11
f 134/258/13 138/409/13 121/410/13
f 121/410/13 122/411/13 134/258/13
f 129/256/13 133/412/13 137/413/13
f 137/413/13 125/414/13 129/256/13
f 126/415/13 130/257/13 129/256/13
f 134/258/13 122/411/13 129/256/13
f 129/256/13 125/414/13 126/415/13
f 104/259/30 121/287/30 138/260/30
f 112/262/42 110/416/42 126/263/42
f 116/265/49 133/417/49 129/266/49
f 113/268/46 115/418/46 135/269/46
f 109/271/42 111/285/42 128/272/42
f 106/274/36 134/419/36 130/221/36
f 105/276/33 136/420/33 140/277/33
f 119/279/52 123/421/52 131/280/52
f 116/282/46 114/298/46 137/283/46
f 111/285/44 113/268/44 139/270/44
f 120/286/55 122/422/55 121/287/55
f 107/213/39 109/423/39 127/288/39
f 103/261/33 138/260/33 134/290/33
f 81/278/30 140/277/30 124/292/30
f 118/267/52 129/266/52 122/294/52
f 117/281/49 131/280/49 135/296/49
f 114/298/44 112/262/44 125/264/44
f 82/293/55 124/292/55 123/299/55
f 144/307/58 146/424/58 145/308/58
f 146/312/59 148/317/59 147/313/59
f 148/317/13 150/321/13 149/318/13
f 150/321/60 152/425/60 151/322/60
f 152/325/61 154/330/61 153/326/61
f 154/330/62 156/426/62 155/331/62
f 156/334/63 158/339/63 157/335/63
f 158/339/11 160/343/11 159/340/11
f 160/343/64 162/427/64 161/344/64
f 162/345/65 144/307/65 143/309/65
