# Blender v2.79 (sub 0) OBJ File: 'fin.blend'
# www.blender.org
o 4_Heli_Pad_Cube.017
v -0.600000 0.100009 0.600000
v -0.600000 0.125009 0.600000
v -0.600000 0.100009 -0.600000
v -0.600000 0.125009 -0.600000
v 0.600000 0.100009 0.600000
v 0.600000 0.125009 0.600000
v 0.600000 0.100009 -0.600000
v 0.600000 0.125009 -0.600000
v 0.384992 0.100010 -0.750006
v 0.384992 0.125010 -0.750006
v 0.384992 0.100010 -0.600006
v 0.384992 0.125010 -0.600006
v 0.234992 0.100010 -0.750006
v 0.234992 0.125010 -0.750006
v 0.234992 0.100010 -0.600006
v 0.234992 0.125010 -0.600006
v 0.234991 0.075007 -0.750006
v 0.234991 0.100007 -0.750006
v 0.234991 0.100007 -0.600006
v 0.149158 0.075007 -0.750006
v 0.149158 0.100007 -0.750006
v 0.149158 0.075007 -0.600006
v 0.149158 0.100007 -0.600006
v -0.022510 0.050003 -0.600006
v -0.022510 0.025003 -0.600006
v -0.022510 0.050003 -0.750006
v -0.022510 0.025003 -0.750006
v 0.063323 0.050003 -0.600006
v 0.063323 0.050003 -0.750006
v 0.063323 0.025003 -0.750006
v 0.149157 0.050005 -0.750006
v 0.149157 0.075005 -0.750006
v 0.149157 0.075005 -0.600006
v 0.063324 0.050005 -0.750006
v 0.063324 0.075005 -0.750006
v 0.063324 0.050005 -0.600006
v 0.063324 0.075005 -0.600006
v -0.108346 0.025002 -0.600006
v -0.108346 0.000002 -0.600006
v -0.108346 0.025002 -0.750006
v -0.108346 0.000002 -0.750006
v -0.022513 0.025002 -0.600006
v -0.022513 0.025002 -0.750006
v -0.022513 0.000002 -0.750006
v -0.384992 0.100010 0.750006
v -0.384992 0.125010 0.750006
v -0.384992 0.100010 0.600007
v -0.384992 0.125010 0.600007
v -0.234992 0.100010 0.750006
v -0.234992 0.125010 0.750006
v -0.234992 0.100010 0.600007
v -0.234992 0.125010 0.600007
v -0.234991 0.075007 0.750006
v -0.234991 0.100007 0.750006
v -0.234991 0.100007 0.600007
v -0.149158 0.075007 0.750006
v -0.149158 0.100007 0.750006
v -0.149158 0.075007 0.600007
v -0.149158 0.100007 0.600007
v 0.022510 0.050003 0.600007
v 0.022510 0.025003 0.600007
v 0.022510 0.050003 0.750006
v 0.022510 0.025003 0.750006
v -0.063323 0.050003 0.600007
v -0.063323 0.050003 0.750006
v -0.063323 0.025003 0.750006
v -0.149157 0.050005 0.750006
v -0.149157 0.075005 0.750006
v -0.149157 0.075005 0.600007
v -0.063324 0.050005 0.750006
v -0.063324 0.075005 0.750006
v -0.063324 0.050005 0.600007
v -0.063324 0.075005 0.600007
v 0.108346 0.025002 0.600007
v 0.108346 0.000002 0.600007
v 0.108346 0.025002 0.750006
v 0.108346 0.000002 0.750006
v 0.022513 0.025002 0.600007
v 0.022513 0.025002 0.750006
v 0.022513 0.000002 0.750006
vt 0.678765 0.666667
vt 0.339382 0.333333
vt 0.678765 0.333333
vt 0.339382 0.000000
vt 0.678765 0.333333
vt 0.339382 0.666667
vt 0.000000 0.333333
vt 0.339382 0.333333
vt 0.000000 0.666667
vt 0.339382 1.000000
vt 0.000000 1.000000
vt 0.339382 0.333333
vt 0.000000 0.000000
vt 0.339382 0.000000
vt 0.806033 0.333333
vt 0.763610 0.000000
vt 0.806033 0.000000
vt 0.975725 0.333333
vt 0.933302 0.000000
vt 0.975725 0.000000
vt 0.848456 0.333333
vt 0.890879 0.666667
vt 0.848456 0.666667
vt 0.527457 0.666667
vt 0.485034 0.708333
vt 0.485034 0.666667
vt 0.806033 0.333333
vt 0.848456 0.666667
vt 0.806033 0.666667
vt 0.412208 0.666667
vt 0.436484 1.000000
vt 0.412208 1.000000
vt 0.696912 0.666667
vt 0.672637 0.708333
vt 0.672637 0.666667
vt 0.696912 0.666667
vt 0.721188 0.708333
vt 0.696912 0.708333
vt 0.363658 0.666667
vt 0.387933 1.000000
vt 0.363658 1.000000
vt 0.763610 0.333333
vt 0.806033 0.666667
vt 0.763610 0.666667
vt 0.848456 0.000000
vt 0.890879 0.333333
vt 0.848456 0.333333
vt 0.975725 0.333333
vt 1.000000 0.666667
vt 0.975725 0.666667
vt 0.618430 0.708333
vt 0.642706 0.666667
vt 0.642706 0.708333
vt 0.569880 0.666667
vt 0.594155 0.708333
vt 0.569880 0.708333
vt 0.485034 1.000000
vt 0.460759 0.666667
vt 0.485034 0.666667
vt 0.933302 0.666667
vt 0.890879 0.333333
vt 0.933302 0.333333
vt 0.890879 0.000000
vt 0.933302 0.333333
vt 0.890879 0.333333
vt 0.848456 0.333333
vt 0.806033 0.000000
vt 0.848456 0.000000
vt 0.933302 0.333333
vt 0.975725 0.666667
vt 0.933302 0.666667
vt 0.527457 0.708333
vt 0.569880 0.666667
vt 0.569880 0.708333
vt 0.721188 0.666667
vt 0.678765 0.333333
vt 0.721188 0.333333
vt 0.436484 0.666667
vt 0.460759 1.000000
vt 0.436484 1.000000
vt 0.509310 0.750000
vt 0.533585 0.708333
vt 0.533585 0.750000
vt 0.485034 0.750000
vt 0.509310 0.708333
vt 0.509310 0.750000
vt 0.387933 0.666667
vt 0.412208 1.000000
vt 0.387933 1.000000
vt 0.721188 0.333333
vt 0.678765 0.000000
vt 0.721188 0.000000
vt 0.763610 0.666667
vt 0.721188 0.333333
vt 0.763610 0.333333
vt 0.339382 0.666667
vt 0.363658 1.000000
vt 0.339382 1.000000
vt 0.594155 0.708333
vt 0.618430 0.666667
vt 0.618430 0.708333
vt 0.642706 0.708333
vt 0.666981 0.666667
vt 0.666981 0.708333
vt 0.975725 0.000000
vt 1.000000 0.333333
vt 0.975725 0.333333
vt 0.763610 0.333333
vt 0.721188 0.000000
vt 0.763610 0.000000
vt 0.339382 0.666667
vt 0.678765 0.000000
vt 0.339382 0.666667
vt 0.000000 0.333333
vt 0.763611 0.333333
vt 0.933302 0.333333
vt 0.890879 0.333333
vt 0.527457 0.708333
vt 0.848456 0.333333
vt 0.436484 0.666667
vt 0.696912 0.708333
vt 0.721188 0.666667
vt 0.387933 0.666667
vt 0.806033 0.333333
vt 0.890879 0.000000
vt 1.000000 0.333333
vt 0.618430 0.666667
vt 0.594155 0.666667
vt 0.460759 1.000000
vt 0.890879 0.666667
vt 0.933302 0.000000
vt 0.806033 0.333333
vt 0.975725 0.333333
vt 0.527457 0.666667
vt 0.678765 0.666667
vt 0.460759 0.666667
vt 0.509310 0.708333
vt 0.485034 0.708333
vt 0.412208 0.666667
vt 0.678765 0.333333
vt 0.721188 0.666667
vt 0.363658 0.666667
vt 0.594155 0.666667
vt 0.642706 0.666667
vt 1.000000 0.000000
vt 0.721188 0.333333
vn -1.0000 0.0000 0.0000
vn 0.0000 0.0000 -1.0000
vn 1.0000 0.0000 0.0000
vn 0.0000 0.0000 1.0000
vn 0.0000 1.0000 0.0000
s off
f 2/1/1 3/2/1 1/3/1
f 4/4/2 7/5/2 3/2/2
f 8/6/3 5/7/3 7/8/3
f 6/9/4 1/10/4 5/11/4
f 4/12/5 6/13/5 8/14/5
f 10/15/3 11/16/3 9/17/3
f 16/18/1 13/19/1 15/20/1
f 14/21/2 9/22/2 13/23/2
f 12/24/5 14/25/5 16/26/5
f 23/27/1 20/28/1 22/29/1
f 21/30/2 17/31/2 20/32/2
f 19/33/5 21/34/5 23/35/5
f 24/36/5 29/37/5 26/38/5
f 26/39/2 30/40/2 27/41/2
f 24/42/1 27/43/1 25/44/1
f 37/45/1 34/46/1 36/47/1
f 35/48/2 31/49/2 34/50/2
f 33/51/5 35/52/5 37/53/5
f 38/54/5 43/55/5 40/56/5
f 40/57/2 44/58/2 41/59/2
f 38/60/1 41/61/1 39/62/1
f 46/63/1 47/64/1 45/65/1
f 52/66/3 49/67/3 51/68/3
f 50/69/4 45/70/4 49/71/4
f 48/72/5 50/73/5 52/74/5
f 59/75/3 56/76/3 58/77/3
f 57/78/4 53/79/4 56/80/4
f 55/81/5 57/82/5 59/83/5
f 64/84/5 62/85/5 60/86/5
f 62/87/4 66/88/4 63/89/4
f 60/90/3 63/91/3 61/92/3
f 73/93/3 70/94/3 72/95/3
f 71/96/4 67/97/4 70/98/4
f 69/99/5 71/100/5 73/101/5
f 78/102/5 76/103/5 74/104/5
f 76/105/4 80/106/4 77/107/4
f 74/108/3 77/109/3 75/110/3
f 2/1/1 4/111/1 3/2/1
f 4/4/2 8/112/2 7/5/2
f 8/6/3 6/9/3 5/7/3
f 6/9/4 2/113/4 1/10/4
f 4/12/5 2/114/5 6/13/5
f 10/15/3 12/115/3 11/16/3
f 16/18/1 14/116/1 13/19/1
f 14/21/2 10/117/2 9/22/2
f 12/24/5 10/118/5 14/25/5
f 23/27/1 21/119/1 20/28/1
f 21/30/2 18/120/2 17/31/2
f 19/33/5 18/121/5 21/34/5
f 24/36/5 28/122/5 29/37/5
f 26/39/2 29/123/2 30/40/2
f 24/42/1 26/124/1 27/43/1
f 37/45/1 35/125/1 34/46/1
f 35/48/2 32/126/2 31/49/2
f 33/51/5 32/127/5 35/52/5
f 38/54/5 42/128/5 43/55/5
f 40/57/2 43/129/2 44/58/2
f 38/60/1 40/130/1 41/61/1
f 46/63/1 48/131/1 47/64/1
f 52/66/3 50/132/3 49/67/3
f 50/69/4 46/133/4 45/70/4
f 48/72/5 46/134/5 50/73/5
f 59/75/3 57/135/3 56/76/3
f 57/78/4 54/136/4 53/79/4
f 55/81/5 54/137/5 57/82/5
f 64/84/5 65/138/5 62/85/5
f 62/87/4 65/139/4 66/88/4
f 60/90/3 62/140/3 63/91/3
f 73/93/3 71/141/3 70/94/3
f 71/96/4 68/142/4 67/97/4
f 69/99/5 68/143/5 71/100/5
f 78/102/5 79/144/5 76/103/5
f 76/105/4 79/145/4 80/106/4
f 74/108/3 76/146/3 77/109/3
