# Blender v2.78 (sub 0) OBJ File: 'Rebel02.blend'
# www.blender.org
o 2_BLDG_H.015_Cube.006
v -70.530907 -32.061378 52.068878
v -70.530907 -32.061378 110.152145
v -70.530907 47.678692 52.068878
v -70.530907 47.678692 110.152145
v 67.044739 -32.061378 52.068878
v 67.044739 -32.061378 110.152145
v 66.897888 22.714062 52.068878
v 66.897888 22.714062 110.152145
v 11.700484 32.740948 52.068878
v -11.487133 36.953094 52.068878
v -11.487133 36.953094 110.152145
v 11.700484 32.740948 110.152145
v -11.424044 -32.061378 52.068878
v 11.788351 -32.061378 52.068878
v 11.788351 -32.061378 110.152145
v -11.424044 -32.061378 110.152145
v -67.296516 -28.826984 163.105316
v -67.296516 43.803822 163.105316
v -14.719060 34.252861 163.105316
v -14.661396 -28.826984 163.105316
v -8.536525 40.135677 1.306817
v 69.813423 -35.050823 1.306786
v -8.467126 -35.780239 1.306824
v 9.031404 -35.050823 1.306817
v -73.484665 -35.780239 1.306863
v 8.934749 36.231731 1.306817
v -73.484665 51.933826 1.306847
v 69.651894 25.202160 1.306801
v 63.801666 -28.826984 126.672760
v 63.670727 20.012966 126.672760
v 14.940138 28.865122 126.672760
v 15.018363 -28.826984 126.672760
v -70.530907 -32.061378 163.105316
v -70.530907 47.678692 163.105316
v -11.424044 -32.061378 163.105316
v -11.487133 36.953094 163.105316
v 11.700484 32.740948 126.672760
v 66.897888 22.714062 126.672760
v 67.044739 -32.061378 126.672760
v 11.788351 -32.061378 126.672760
v -67.296516 -28.826984 158.105331
v -67.296516 43.803822 158.105331
v -14.661396 -28.826984 158.105331
v -14.719060 34.252861 158.105331
v 14.940138 28.865122 121.672775
v 63.670727 20.012966 121.672775
v 63.801666 -28.826984 121.672775
v 15.018363 -28.826984 121.672775
v -70.530907 47.678692 43.341667
v 11.788351 -32.061378 43.341625
v -70.530907 -32.061378 43.341667
v -11.424044 -32.061378 43.341637
v 11.700484 32.740948 43.341625
v 67.044739 -32.061378 43.341602
v 66.897888 22.714062 43.341602
v -11.487133 36.953094 43.341644
v -8.467126 -35.780239 41.406567
v -8.536525 40.135677 41.406574
v 69.651894 25.202160 41.406536
v -73.484665 -35.780239 41.406597
v 9.031404 -35.050823 41.406559
v 8.934749 36.231731 41.406559
v 69.813423 -35.050823 41.406536
v -73.484665 51.933826 41.406597
vt 0.3413 0.5328
vt 0.5685 0.6953
vt 0.3413 0.6953
vt 0.1509 0.1569
vt 0.3164 0.0000
vt 0.3164 0.1569
vt 0.6826 0.0462
vt 0.8387 0.2087
vt 0.6826 0.2087
vt 0.4922 0.1653
vt 0.6577 0.0000
vt 0.6577 0.1653
vt 0.6826 0.2331
vt 0.1509 0.3906
vt 0.0000 0.2228
vt 0.1509 0.2228
vt 1.0000 0.1813
vt 0.9529 0.0000
vt 1.0000 0.0000
vt 0.5686 0.8189
vt 0.6347 1.0000
vt 0.5685 1.0000
vt 0.6826 0.0000
vt 0.6826 0.1653
vt 0.4556 0.9010
vt 0.5217 0.7198
vt 0.5217 0.9129
vt 0.4922 0.3847
vt 0.6577 0.2302
vt 0.6577 0.3847
vt 0.4922 0.2302
vt 0.3164 0.2228
vt 0.3164 0.3906
vt 0.6632 0.9420
vt 0.6489 0.8070
vt 0.6632 0.8070
vt 0.1853 0.5936
vt 0.3362 0.7867
vt 0.1853 0.7867
vt 0.5685 0.3847
vt 0.5685 0.5328
vt 0.3413 0.0000
vt 0.4922 0.0000
vt 0.3413 0.3906
vt 0.3413 0.7197
vt 0.1575 0.6358
vt 0.1823 0.8288
vt 0.1575 0.8288
vt 0.3413 0.1569
vt 0.5217 0.7197
vt 0.5466 0.9010
vt 0.5217 0.9010
vt 0.6826 0.2302
vt 0.6826 0.3847
vt 0.6968 0.2331
vt 0.7111 0.3788
vt 0.6968 0.3788
vt 0.4451 0.2302
vt 0.1038 0.0000
vt 0.1509 0.0000
vt 0.8387 0.0000
vt 0.8387 0.0462
vt 0.7277 0.3955
vt 0.7369 0.6076
vt 0.7277 0.5985
vt 0.5777 0.5985
vt 0.5685 0.6075
vt 0.5687 0.4146
vt 0.7369 0.3847
vt 0.5779 0.4222
vt 0.1482 0.6466
vt 0.0002 0.6640
vt 0.1575 0.6358
vt 0.0092 0.8080
vt 0.0094 0.6715
vt 0.1575 0.8169
vt 0.0000 0.8171
vt 0.1482 0.8079
vt 0.1854 0.4172
vt 0.3353 0.5936
vt 0.1853 0.5936
vt 0.1855 0.8116
vt 0.3243 0.9479
vt 0.1853 0.9481
vt 0.7111 0.2331
vt 0.7253 0.3702
vt 0.7111 0.3702
vt 0.6826 0.2331
vt 0.6968 0.3810
vt 0.6826 0.3810
vt 0.5466 0.7197
vt 0.5608 0.9229
vt 0.5466 0.9229
vt 0.3243 0.7867
vt 0.3385 0.9481
vt 0.3243 0.9481
vt 0.6489 0.9437
vt 0.6347 0.8070
vt 0.6489 0.8070
vt 0.9529 0.1813
vt 0.9672 0.3578
vt 0.9529 0.3578
vt 0.7339 0.6171
vt 0.5687 0.6386
vt 0.7417 0.6076
vt 0.5764 0.7985
vt 0.7417 0.8068
vt 0.5685 0.8070
vt 0.0085 0.6251
vt 0.0001 0.4235
vt 0.0086 0.4322
vt 0.5766 0.6453
vt 0.1768 0.4022
vt 0.1852 0.3906
vt 0.1853 0.6358
vt 0.0000 0.6358
vt 0.7339 0.7983
vt 0.1769 0.6251
vt 0.3413 0.7197
vt 0.4556 0.9192
vt 0.3413 0.9192
vt 0.8560 0.7775
vt 0.9703 0.9461
vt 0.8560 0.9461
vt 0.8387 0.1846
vt 0.9529 0.3571
vt 0.8387 0.3571
vt 0.7369 0.3622
vt 0.8512 0.6076
vt 0.7369 0.6076
vt 0.9529 0.1846
vt 0.8387 0.0000
vt 0.9529 0.0000
vt 0.9703 0.6076
vt 0.9703 0.7775
vt 0.8512 0.5440
vt 0.9655 0.3622
vt 0.9655 0.5440
vt 0.7417 0.6076
vt 0.8560 0.8200
vt 0.7417 0.8200
vt 0.8387 0.2331
vt 0.0000 0.3906
vt 0.9529 0.1813
vt 0.6347 0.8070
vt 0.4556 0.7197
vt 0.6489 0.9420
vt 0.3362 0.5936
vt 0.3413 0.3847
vt 0.3413 0.1653
vt 0.3413 0.2228
vt 0.5685 0.7197
vt 0.1823 0.6358
vt 0.3413 0.0000
vt 0.5466 0.7197
vt 0.7111 0.2331
vt 0.4451 0.3847
vt 0.1038 0.1569
vt 0.6826 0.0000
vt 0.3353 0.3906
vt 0.3243 0.7867
vt 0.7253 0.2331
vt 0.6968 0.2331
vt 0.5608 0.7197
vt 0.3385 0.7867
vt 0.6347 0.9437
vt 0.9672 0.1813
vt 0.4556 0.7197
vt 0.9529 0.1846
vt 0.8512 0.3622
vt 0.8387 0.1846
vt 0.8560 0.6076
vt 0.8512 0.3622
vt 0.8560 0.6076
vn -1.0000 0.0000 0.0000
vn 0.1787 0.9839 0.0000
vn 1.0000 0.0027 0.0000
vn 0.0000 -1.0000 0.0000
vn -1.0000 -0.0014 0.0000
vn 0.0000 0.0000 1.0000
vn 0.0000 0.0000 -1.0000
vn 0.0000 1.0000 0.0000
vn 1.0000 0.0009 0.0000
vn -0.1787 -0.9839 0.0000
vn 1.0000 0.0000 0.0000
vn 1.0000 0.0014 0.0000
vn -1.0000 -0.0027 0.0000
vn -1.0000 -0.0009 0.0000
vn 0.0983 0.5409 0.8353
vn 0.0000 -0.5434 0.8395
vn 0.5480 0.0005 0.8365
vn 0.5740 0.0015 0.8189
vn 0.0836 0.4600 0.8840
vn 0.0000 -0.4616 0.8871
vn -0.5739 -0.0008 0.8189
vn -0.5480 0.0000 0.8365
s off
f 2/1/1 3/2/1 1/3/1
f 12/4/2 7/5/2 9/6/2
f 8/7/3 5/8/3 7/9/3
f 16/10/4 1/11/4 13/12/4
f 5/8/3 55/13/3 7/9/3
f 4/14/2 36/15/2 11/16/2
f 15/17/5 37/18/5 12/19/5
f 12/20/6 16/21/6 15/22/6
f 13/12/4 51/23/4 52/24/4
f 9/25/7 13/26/7 10/27/7
f 6/28/4 14/29/4 5/30/4
f 15/31/4 13/12/4 14/29/4
f 4/14/2 10/32/2 3/33/2
f 11/16/2 9/6/2 10/32/2
f 29/34/8 48/35/8 32/36/8
f 11/37/9 35/38/9 16/39/9
f 2/1/1 34/40/1 4/41/1
f 16/10/4 33/42/4 2/43/4
f 10/32/2 49/44/2 3/33/2
f 3/2/1 51/45/1 1/3/1
f 13/46/9 56/47/9 10/48/9
f 7/5/2 53/49/2 9/6/2
f 9/50/5 50/51/5 14/52/5
f 5/30/4 50/53/4 54/54/4
f 20/55/8 41/56/8 17/57/8
f 6/28/4 40/58/4 15/31/4
f 12/4/2 38/59/2 8/60/2
f 8/7/3 39/61/3 6/62/3
f 18/63/6 33/64/6 17/65/6
f 20/66/6 33/64/6 35/67/6
f 18/63/6 36/68/6 34/69/6
f 20/66/6 36/68/6 19/70/6
f 31/71/6 38/72/6 37/73/6
f 29/74/6 38/72/6 30/75/6
f 29/74/6 40/76/6 39/77/6
f 31/71/6 40/76/6 32/78/6
f 44/79/6 41/80/6 43/81/6
f 46/82/6 48/83/6 47/84/6
f 31/85/10 46/86/10 30/87/10
f 18/88/10 44/89/10 19/90/10
f 17/91/11 42/92/11 18/93/11
f 32/94/12 45/95/12 31/96/12
f 30/97/13 47/98/13 29/99/13
f 19/100/14 43/101/14 20/102/14
f 53/103/15 59/104/15 62/105/15
f 54/106/16 61/107/16 63/108/16
f 52/109/17 58/110/17 56/111/17
f 54/106/18 59/104/18 55/112/18
f 49/113/19 58/110/19 64/114/19
f 52/109/20 60/115/20 57/116/20
f 53/103/21 61/107/21 50/117/21
f 49/113/22 60/115/22 51/118/22
f 62/119/5 24/120/5 61/121/5
f 63/122/3 28/123/3 59/124/3
f 59/125/2 26/126/2 62/127/2
f 64/128/1 25/129/1 60/130/1
f 58/131/2 27/132/2 64/133/2
f 63/122/4 24/134/4 22/135/4
f 57/136/4 25/137/4 23/138/4
f 57/139/9 21/140/9 58/141/9
f 2/1/1 4/41/1 3/2/1
f 12/4/2 8/60/2 7/5/2
f 8/7/3 6/62/3 5/8/3
f 16/10/4 2/43/4 1/11/4
f 5/8/3 54/142/3 55/13/3
f 4/14/2 34/143/2 36/15/2
f 15/17/5 40/144/5 37/18/5
f 12/20/6 11/145/6 16/21/6
f 13/12/4 1/11/4 51/23/4
f 9/25/7 14/146/7 13/26/7
f 6/28/4 15/31/4 14/29/4
f 15/31/4 16/10/4 13/12/4
f 4/14/2 11/16/2 10/32/2
f 11/16/2 12/4/2 9/6/2
f 29/34/8 47/147/8 48/35/8
f 11/37/9 36/148/9 35/38/9
f 2/1/1 33/149/1 34/40/1
f 16/10/4 35/150/4 33/42/4
f 10/32/2 56/151/2 49/44/2
f 3/2/1 49/152/1 51/45/1
f 13/46/9 52/153/9 56/47/9
f 7/5/2 55/154/2 53/49/2
f 9/50/5 53/155/5 50/51/5
f 5/30/4 14/29/4 50/53/4
f 20/55/8 43/156/8 41/56/8
f 6/28/4 39/157/4 40/58/4
f 12/4/2 37/158/2 38/59/2
f 8/7/3 38/159/3 39/61/3
f 18/63/6 34/69/6 33/64/6
f 20/66/6 17/65/6 33/64/6
f 18/63/6 19/70/6 36/68/6
f 20/66/6 35/67/6 36/68/6
f 31/71/6 30/75/6 38/72/6
f 29/74/6 39/77/6 38/72/6
f 29/74/6 32/78/6 40/76/6
f 31/71/6 37/73/6 40/76/6
f 44/79/6 42/160/6 41/80/6
f 46/82/6 45/161/6 48/83/6
f 31/85/10 45/162/10 46/86/10
f 18/88/10 42/163/10 44/89/10
f 17/91/11 41/164/11 42/92/11
f 32/94/12 48/165/12 45/95/12
f 30/97/13 46/166/13 47/98/13
f 19/100/14 44/167/14 43/101/14
f 53/103/15 55/112/15 59/104/15
f 54/106/16 50/117/16 61/107/16
f 52/109/17 57/116/17 58/110/17
f 54/106/18 63/108/18 59/104/18
f 49/113/19 56/111/19 58/110/19
f 52/109/20 51/118/20 60/115/20
f 53/103/21 62/105/21 61/107/21
f 49/113/22 64/114/22 60/115/22
f 62/119/5 26/168/5 24/120/5
f 63/122/3 22/135/3 28/123/3
f 59/125/2 28/169/2 26/126/2
f 64/128/1 27/170/1 25/129/1
f 58/131/2 21/171/2 27/132/2
f 63/122/4 61/172/4 24/134/4
f 57/136/4 60/173/4 25/137/4
f 57/139/9 23/174/9 21/140/9
