# Blender v2.78 (sub 0) OBJ File: 'Medium_H.obj'
# www.blender.org
o 2_BLDG_H.015_Cube.006
v 70.530907 -32.061451 110.152122
v 70.530907 47.678658 52.068909
v 70.530907 -32.061413 52.068859
v -11.700484 32.740875 110.152168
v -66.897888 22.714027 52.068893
v -11.700484 32.740913 52.068901
v -66.897888 22.713989 110.152161
v -67.044739 -32.061413 52.068859
v 11.424044 -32.061451 110.152122
v 11.424044 -32.061413 52.068859
v -66.897888 22.714033 43.341618
v 70.530907 47.678619 110.152176
v 11.487133 36.952988 163.105347
v 11.487133 36.953022 110.152168
v -11.788351 -32.061451 110.152122
v -11.700484 32.740864 126.672783
v 70.530907 -32.061405 43.341648
v 11.424044 -32.061405 43.341618
v 11.487133 36.953060 52.068901
v -67.044739 -32.061451 110.152122
v -11.788351 -32.061413 52.068859
v -63.801666 -28.827066 126.672745
v -15.018363 -28.827065 121.672760
v -15.018363 -28.827066 126.672745
v 11.424044 -32.061485 163.105301
v 70.530907 47.678585 163.105347
v 70.530907 -32.061485 163.105301
v 70.530907 47.678665 43.341698
v 11.487133 36.953068 43.341667
v -11.700484 32.740921 43.341648
v -11.788351 -32.061405 43.341606
v -67.044739 -32.061405 43.341583
v 14.661396 -28.827091 163.105301
v 67.296516 -28.827087 158.105316
v 67.296516 -28.827091 163.105301
v -11.788351 -32.061462 126.672737
v -66.897888 22.713980 126.672775
v -67.044739 -32.061462 126.672737
v 67.296516 43.803715 163.105347
v 14.719060 34.252754 163.105331
v -14.940138 28.865040 126.672775
v -63.670727 20.012884 126.672775
v 14.719060 34.252758 158.105347
v 14.661396 -28.827087 158.105316
v -63.670727 20.012886 121.672791
v -63.801666 -28.827065 121.672760
v 67.296516 43.803719 158.105362
v -14.940138 28.865042 121.672791
v -69.651894 25.202133 41.406551
v -8.934749 36.231705 41.406582
v -9.031404 -35.050850 41.406536
v -69.813423 -35.050850 41.406513
v 8.536525 40.135651 41.406601
v 73.484665 51.933800 41.406631
v 73.484665 -35.780266 41.406574
v 8.467126 -35.780266 41.406544
v -9.031404 -35.050823 1.306794
v -69.651894 25.202160 1.306817
v -8.934749 36.231731 1.306841
v 73.484665 -35.780239 1.306840
v 73.484665 51.933826 1.306881
v -69.813423 -35.050823 1.306763
v 8.467126 -35.780239 1.306801
v 8.536525 40.135677 1.306843
vt 0.3413 0.5328
vt 0.3413 0.6953
vt 0.5685 0.6953
vt 0.1509 0.1569
vt 0.3164 0.1569
vt 0.3164 0.0000
vt 0.6826 0.0462
vt 0.6826 0.2087
vt 0.8387 0.2087
vt 0.4922 0.1653
vt 0.6577 0.1653
vt 0.6577 0.0000
vt 0.6826 0.2331
vt 0.1509 0.3906
vt 0.1509 0.2228
vt 0.0000 0.2228
vt 1.0000 0.1813
vt 1.0000 0.0000
vt 0.9529 0.0000
vt 0.5686 0.8189
vt 0.5685 1.0000
vt 0.6347 1.0000
vt 0.6826 0.1653
vt 0.6826 0.0000
vt 0.4556 0.9010
vt 0.5217 0.9129
vt 0.5217 0.7198
vt 0.4922 0.3847
vt 0.6577 0.3847
vt 0.6577 0.2302
vt 0.4922 0.2302
vt 0.3164 0.3906
vt 0.3164 0.2228
vt 0.6632 0.9420
vt 0.6632 0.8070
vt 0.6489 0.8070
vt 0.1853 0.5936
vt 0.1853 0.7867
vt 0.3362 0.7867
vt 0.5685 0.5328
vt 0.5685 0.3847
vt 0.4922 0.0000
vt 0.3413 0.0000
vt 0.3413 0.3906
vt 0.3413 0.7197
vt 0.1575 0.6358
vt 0.1575 0.8288
vt 0.1823 0.8288
vt 0.3413 0.1569
vt 0.5217 0.7197
vt 0.5217 0.9010
vt 0.5466 0.9010
vt 0.6826 0.3847
vt 0.6826 0.2302
vt 0.6968 0.2331
vt 0.6968 0.3788
vt 0.7111 0.3788
vt 0.4451 0.2302
vt 0.1509 0.0000
vt 0.1038 0.0000
vt 0.8387 0.0462
vt 0.8387 0.0000
vt 0.7277 0.3955
vt 0.7277 0.5985
vt 0.7369 0.6076
vt 0.5777 0.5985
vt 0.5685 0.6075
vt 0.7369 0.3847
vt 0.5687 0.4146
vt 0.5779 0.4222
vt 0.1482 0.6466
vt 0.1575 0.6358
vt 0.0002 0.6640
vt 0.0092 0.8080
vt 0.0094 0.6715
vt 0.0000 0.8171
vt 0.1575 0.8169
vt 0.1482 0.8079
vt 0.1854 0.4172
vt 0.1853 0.5936
vt 0.3353 0.5936
vt 0.1855 0.8116
vt 0.1853 0.9481
vt 0.3243 0.9479
vt 0.7111 0.2331
vt 0.7111 0.3702
vt 0.7253 0.3702
vt 0.6826 0.2331
vt 0.6826 0.3810
vt 0.6968 0.3810
vt 0.5466 0.7197
vt 0.5466 0.9229
vt 0.5608 0.9229
vt 0.3243 0.7867
vt 0.3243 0.9481
vt 0.3385 0.9481
vt 0.6489 0.9437
vt 0.6489 0.8070
vt 0.6347 0.8070
vt 0.9529 0.1813
vt 0.9529 0.3578
vt 0.9672 0.3578
vt 0.7339 0.6171
vt 0.7417 0.6076
vt 0.5687 0.6386
vt 0.5764 0.7985
vt 0.5685 0.8070
vt 0.7417 0.8068
vt 0.0085 0.6251
vt 0.0086 0.4322
vt 0.0001 0.4235
vt 0.5766 0.6453
vt 0.1768 0.4022
vt 0.1852 0.3906
vt 0.0000 0.6358
vt 0.1853 0.6358
vt 0.7339 0.7983
vt 0.1769 0.6251
vt 0.3413 0.7197
vt 0.3413 0.9192
vt 0.4556 0.9192
vt 0.8560 0.7775
vt 0.8560 0.9461
vt 0.9703 0.9461
vt 0.8387 0.1846
vt 0.8387 0.3571
vt 0.9529 0.3571
vt 0.7369 0.3622
vt 0.7369 0.6076
vt 0.8512 0.6076
vt 0.9529 0.1846
vt 0.9529 0.0000
vt 0.8387 0.0000
vt 0.9703 0.7775
vt 0.9703 0.6076
vt 0.8512 0.5440
vt 0.9655 0.5440
vt 0.9655 0.3622
vt 0.7417 0.6076
vt 0.7417 0.8200
vt 0.8560 0.8200
vt 0.8387 0.2331
vt 0.0000 0.3906
vt 0.9529 0.1813
vt 0.6347 0.8070
vt 0.4556 0.7197
vt 0.6489 0.9420
vt 0.3362 0.5936
vt 0.3413 0.3847
vt 0.3413 0.1653
vt 0.3413 0.2228
vt 0.5685 0.7197
vt 0.1823 0.6358
vt 0.3413 0.0000
vt 0.5466 0.7197
vt 0.7111 0.2331
vt 0.4451 0.3847
vt 0.1038 0.1569
vt 0.6826 0.0000
vt 0.3353 0.3906
vt 0.3243 0.7867
vt 0.7253 0.2331
vt 0.6968 0.2331
vt 0.5608 0.7197
vt 0.3385 0.7867
vt 0.6347 0.9437
vt 0.9672 0.1813
vt 0.4556 0.7197
vt 0.9529 0.1846
vt 0.8512 0.3622
vt 0.8387 0.1846
vt 0.8560 0.6076
vt 0.8512 0.3622
vt 0.8560 0.6076
vn 1.0000 -0.0000 0.0000
vn -0.1787 0.9839 0.0000
vn -1.0000 0.0027 0.0000
vn 0.0000 -1.0000 -0.0000
vn 1.0000 -0.0014 -0.0000
vn -0.0000 -0.0000 1.0000
vn 0.0000 0.0000 -1.0000
vn 0.0000 1.0000 0.0000
vn -1.0000 0.0009 0.0000
vn 0.1787 -0.9839 -0.0000
vn -1.0000 -0.0000 0.0000
vn -1.0000 0.0014 0.0000
vn 1.0000 -0.0027 -0.0000
vn 1.0000 -0.0009 -0.0000
vn -0.0983 0.5409 0.8353
vn -0.0000 -0.5434 0.8395
vn -0.5480 0.0005 0.8365
vn -0.5740 0.0015 0.8189
vn -0.0836 0.4600 0.8840
vn -0.0000 -0.4616 0.8871
vn 0.5739 -0.0008 0.8189
vn 0.5480 -0.0000 0.8365
s 1
f 1/1/1 3/2/1 2/3/1
f 4/4/2 6/5/2 5/6/2
f 7/7/3 5/8/3 8/9/3
f 9/10/4 10/11/4 3/12/4
f 8/9/3 5/8/3 11/13/3
f 12/14/2 14/15/2 13/16/2
f 15/17/5 4/18/5 16/19/5
f 4/20/6 15/21/6 9/22/6
f 10/11/4 18/23/4 17/24/4
f 6/25/7 19/26/7 10/27/7
f 20/28/4 8/29/4 21/30/4
f 15/31/4 21/30/4 10/11/4
f 12/14/2 2/32/2 19/33/2
f 14/15/2 19/33/2 6/5/2
f 22/34/8 24/35/8 23/36/8
f 14/37/9 9/38/9 25/39/9
f 1/1/1 12/40/1 26/41/1
f 9/10/4 1/42/4 27/43/4
f 19/33/2 2/32/2 28/44/2
f 2/3/1 3/2/1 17/45/1
f 10/46/9 19/47/9 29/48/9
f 5/6/2 6/5/2 30/49/2
f 6/50/5 21/51/5 31/52/5
f 8/29/4 32/53/4 31/54/4
f 33/55/8 35/56/8 34/57/8
f 20/28/4 15/31/4 36/58/4
f 4/4/2 7/59/2 37/60/2
f 7/7/3 20/61/3 38/62/3
f 39/63/6 35/64/6 27/65/6
f 33/66/6 25/67/6 27/65/6
f 39/63/6 26/68/6 13/69/6
f 33/66/6 40/70/6 13/69/6
f 41/71/6 16/72/6 37/73/6
f 22/74/6 42/75/6 37/73/6
f 22/74/6 38/76/6 36/77/6
f 41/71/6 24/78/6 36/77/6
f 43/79/6 44/80/6 34/81/6
f 45/82/6 46/83/6 23/84/6
f 41/85/10 42/86/10 45/87/10
f 39/88/10 40/89/10 43/90/10
f 35/91/11 39/92/11 47/93/11
f 24/94/12 41/95/12 48/96/12
f 42/97/13 22/98/13 46/99/13
f 40/100/14 33/101/14 44/102/14
f 30/103/15 50/104/15 49/105/15
f 32/106/16 52/107/16 51/108/16
f 18/109/17 29/110/17 53/111/17
f 32/106/18 11/112/18 49/105/18
f 28/113/19 54/114/19 53/111/19
f 18/109/20 56/115/20 55/116/20
f 30/103/21 31/117/21 51/108/21
f 28/113/22 17/118/22 55/116/22
f 50/119/5 51/120/5 57/121/5
f 52/122/3 49/123/3 58/124/3
f 49/125/2 50/126/2 59/127/2
f 54/128/1 55/129/1 60/130/1
f 53/131/2 54/132/2 61/133/2
f 52/122/4 62/134/4 57/135/4
f 56/136/4 63/137/4 60/138/4
f 56/139/9 53/140/9 64/141/9
f 1/1/1 2/3/1 12/40/1
f 4/4/2 5/6/2 7/59/2
f 7/7/3 8/9/3 20/61/3
f 9/10/4 3/12/4 1/42/4
f 8/9/3 11/13/3 32/142/3
f 12/14/2 13/16/2 26/143/2
f 15/17/5 16/19/5 36/144/5
f 4/20/6 9/22/6 14/145/6
f 10/11/4 17/24/4 3/12/4
f 6/25/7 10/27/7 21/146/7
f 20/28/4 21/30/4 15/31/4
f 15/31/4 10/11/4 9/10/4
f 12/14/2 19/33/2 14/15/2
f 14/15/2 6/5/2 4/4/2
f 22/34/8 23/36/8 46/147/8
f 14/37/9 25/39/9 13/148/9
f 1/1/1 26/41/1 27/149/1
f 9/10/4 27/43/4 25/150/4
f 19/33/2 28/44/2 29/151/2
f 2/3/1 17/45/1 28/152/1
f 10/46/9 29/48/9 18/153/9
f 5/6/2 30/49/2 11/154/2
f 6/50/5 31/52/5 30/155/5
f 8/29/4 31/54/4 21/30/4
f 33/55/8 34/57/8 44/156/8
f 20/28/4 36/58/4 38/157/4
f 4/4/2 37/60/2 16/158/2
f 7/7/3 38/62/3 37/159/3
f 39/63/6 27/65/6 26/68/6
f 33/66/6 27/65/6 35/64/6
f 39/63/6 13/69/6 40/70/6
f 33/66/6 13/69/6 25/67/6
f 41/71/6 37/73/6 42/75/6
f 22/74/6 37/73/6 38/76/6
f 22/74/6 36/77/6 24/78/6
f 41/71/6 36/77/6 16/72/6
f 43/79/6 34/81/6 47/160/6
f 45/82/6 23/84/6 48/161/6
f 41/85/10 45/87/10 48/162/10
f 39/88/10 43/90/10 47/163/10
f 35/91/11 47/93/11 34/164/11
f 24/94/12 48/96/12 23/165/12
f 42/97/13 46/99/13 45/166/13
f 40/100/14 44/102/14 43/167/14
f 30/103/15 49/105/15 11/112/15
f 32/106/16 51/108/16 31/117/16
f 18/109/17 53/111/17 56/115/17
f 32/106/18 49/105/18 52/107/18
f 28/113/19 53/111/19 29/110/19
f 18/109/20 55/116/20 17/118/20
f 30/103/21 51/108/21 50/104/21
f 28/113/22 55/116/22 54/114/22
f 50/119/5 57/121/5 59/168/5
f 52/122/3 58/124/3 62/134/3
f 49/125/2 59/127/2 58/169/2
f 54/128/1 60/130/1 61/170/1
f 53/131/2 61/133/2 64/171/2
f 52/122/4 57/135/4 51/172/4
f 56/136/4 60/138/4 55/173/4
f 56/139/9 64/141/9 63/174/9
