# Blender v2.79 (sub 0) OBJ File: ''
# www.blender.org
o Sphere.001
v 0.000000 3.800249 0.929456
v -0.464728 3.023620 0.804932
v 0.000000 3.023620 1.073243
v 0.000000 4.239318 0.536621
v 0.000000 4.452999 0.000000
v -0.232364 4.239318 0.402466
v -0.402466 3.800249 0.697092
v -0.464728 4.239318 0.268311
v -0.804932 3.800249 -0.464728
v -0.804933 3.800249 0.464728
v -0.929456 3.023620 0.536622
v -0.929456 3.023620 -0.536622
v -0.464728 4.239318 -0.268311
v -0.402466 3.800249 -0.697092
v -0.464728 3.023620 -0.804933
v -0.232364 4.239318 -0.402466
v 0.000000 0.605591 -1.073244
v -0.971094 0.000005 -0.560662
v -0.929456 0.605591 -0.536622
v 0.000000 3.800250 -0.929456
v 0.464728 4.239318 -0.268311
v 0.804933 3.800249 -0.464728
v 0.929456 3.023620 -0.536622
v 0.000000 3.023620 -1.073243
v 0.000000 4.239318 -0.536622
v 0.804932 3.800249 0.000000
v 0.929456 3.023620 -0.000000
v 0.464728 4.239318 0.000000
v 0.464728 4.239318 0.268311
v 0.804932 3.800249 0.464728
v 0.929456 3.023620 0.536622
v 0.000000 0.605591 1.073242
v 0.971094 0.000005 0.560661
v 0.929456 0.605591 0.536621
v 0.929456 0.605591 -0.536622
v 0.000000 0.000005 -1.121324
v -0.929456 0.605591 0.536621
v 0.000000 0.000005 1.121323
v 0.971094 0.000005 -0.560662
v -0.971094 0.000005 0.560661
v -0.929456 1.130595 0.536621
v 0.750591 0.605591 0.433354
v 0.929456 1.130595 0.536621
v 0.929456 1.130595 -0.536622
v 0.000000 1.130595 -1.073243
v 0.750591 1.130595 -0.433354
v 0.000000 1.130595 -0.866708
v 0.000000 1.130595 1.073243
v 0.000000 0.605591 0.866707
v -0.750591 0.605591 0.433353
v -0.929456 1.130595 -0.536622
v 0.750591 1.130595 0.433354
v -0.750591 1.130595 -0.433355
v -0.750591 1.130595 0.433353
v 0.750591 0.605591 -0.433354
v 0.000000 1.130595 0.866707
v 0.000000 0.605591 -0.866708
v -0.750591 0.605591 -0.433355
v -0.371809 4.120677 0.214664
v 0.000000 4.287167 0.000000
v 0.743617 3.173935 0.429328
v 0.643991 3.795283 0.371809
v 0.371809 4.120677 0.214664
v 0.000000 4.120677 -0.429328
v -0.185904 4.120677 -0.321996
v 0.000000 3.173935 -0.858655
v -0.371809 3.173935 -0.643992
v 0.000000 3.795283 -0.743617
v -0.371809 3.173935 0.643991
v -0.321996 3.795283 -0.557713
v -0.185904 4.120677 0.321996
v -0.321996 3.795283 0.557713
v -0.643991 3.795283 0.371809
v -0.743617 3.173935 0.429327
v 0.371809 4.120677 0.000000
v 0.643991 3.795283 0.000000
v 0.743618 3.173935 -0.000000
vt 0.108287 0.049970
vt 0.160405 0.112334
vt 0.109195 0.114037
vt 0.733284 0.968344
vt 0.786269 1.000000
vt 0.733284 1.000000
vt 0.105807 0.001405
vt 0.152636 0.048495
vt 0.449897 0.000000
vt 0.526460 0.047571
vt 0.421768 0.047175
vt 0.411472 0.110777
vt 0.532360 0.111234
vt 0.912923 0.877737
vt 0.974105 0.877737
vt 0.943514 0.932566
vt 0.974105 0.972704
vt 0.921120 0.972704
vt 0.570785 0.110085
vt 0.974105 0.932566
vt 1.000000 0.655345
vt 0.911277 0.574992
vt 0.998471 0.575803
vt 0.912923 0.877737
vt 0.859938 0.955739
vt 0.821150 0.932566
vt 0.395356 0.918135
vt 0.331906 0.849443
vt 0.411472 0.854748
vt 0.912923 0.924084
vt 0.912923 0.987395
vt 0.311544 0.962227
vt 0.274362 0.914094
vt 0.326450 0.913540
vt 0.271761 0.850083
vt 0.859938 0.987395
vt 0.051210 0.000000
vt 0.013722 0.047537
vt 0.000000 0.111228
vt 0.786269 0.936689
vt 0.908265 0.563138
vt 0.824162 0.449905
vt 0.911277 0.450151
vt 0.908222 0.751554
vt 0.824728 0.670885
vt 0.911799 0.669131
vt 0.911277 0.669131
vt 0.821150 0.562892
vt 0.911799 0.875983
vt 0.821150 0.753308
vt 0.912807 0.449905
vt 1.000000 0.450717
vt 0.609210 0.316555
vt 0.715180 0.253244
vt 0.609210 0.443178
vt 0.715180 0.506489
vt 0.821150 0.443178
vt 0.821150 0.316555
vt 0.411472 0.961283
vt 0.821150 0.696422
vt 0.800757 0.581983
vt 0.821150 0.569800
vt 0.211615 0.001280
vt 0.331906 0.000000
vt 0.715180 0.253244
vt 0.629603 0.177750
vt 0.715180 0.228877
vt 0.211615 0.960340
vt 0.109195 0.963746
vt 0.715180 0.506489
vt 0.715180 0.530856
vt 0.411472 0.005305
vt 0.609210 0.063311
vt 0.609210 0.189933
vt 0.000000 0.960937
vt 0.629603 0.581983
vt 0.609210 0.569800
vt 0.609210 0.959442
vt 0.532360 0.961740
vt 0.715180 0.000000
vt 0.629603 0.075495
vt 0.818371 0.861132
vt 0.778260 0.759733
vt 0.819606 0.760118
vt 0.955977 0.836176
vt 0.911799 0.736524
vt 0.953088 0.735693
vt 0.777025 0.936689
vt 0.733284 0.850977
vt 0.774592 0.851093
vt 0.914688 0.669963
vt 0.955977 0.669131
vt 0.735716 0.759733
vt 0.777025 0.759849
vt 0.819606 0.925367
vt 0.777025 0.860747
vt 0.800757 0.177750
vt 0.821150 0.189933
vt 0.800757 0.075495
vt 0.821150 0.063311
vt 0.715180 0.759733
vt 0.800757 0.684238
vt 0.715180 0.024367
vt 0.609210 0.696422
vt 0.715180 0.735366
vt 0.629603 0.684238
vt 0.821150 0.341853
vt 0.847450 0.296341
vt 0.833758 0.341705
vt 0.671976 0.773272
vt 0.721071 0.776706
vt 0.672021 0.787538
vt 0.626562 0.805283
vt 0.635688 0.813149
vt 0.821150 0.124836
vt 0.847158 0.074849
vt 0.833771 0.124863
vt 0.609210 0.847190
vt 0.635688 0.887509
vt 0.626562 0.898226
vt 0.965356 0.214355
vt 0.944168 0.163702
vt 0.965356 0.151044
vt 0.671975 0.934254
vt 0.721071 0.925425
vt 0.733283 0.945619
vt 0.882911 0.016631
vt 0.932192 0.024987
vt 0.883183 0.038292
vt 0.882911 0.213570
vt 0.932192 0.206924
vt 0.944168 0.227406
vt 0.944168 0.065800
vt 0.980880 0.050653
vt 0.980880 0.087733
vt 0.933018 0.056801
vt 0.959685 0.037989
vt 0.980880 0.000000
vt 0.630406 0.983608
vt 0.651601 0.945619
vt 0.651601 0.996271
vt 0.885212 0.299528
vt 0.883672 0.262827
vt 0.934496 0.292520
vt 0.932717 0.250142
vt 0.609210 0.983608
vt 0.630406 0.945619
vt 0.630406 0.996271
vt 0.674090 0.830610
vt 0.723460 0.826442
vt 0.621806 0.846677
vt 0.965356 0.151044
vt 0.944168 0.100391
vt 0.965356 0.087733
vt 0.847450 0.385347
vt 0.838264 0.396401
vt 0.838264 0.285152
vt 0.819606 0.988678
vt 0.798418 0.938026
vt 0.819606 0.925367
vt 0.883672 0.416989
vt 0.883538 0.435951
vt 0.883538 0.243261
vt 0.847158 0.165818
vt 0.837883 0.176027
vt 0.932717 0.428153
vt 0.944840 0.449905
vt 0.883183 0.195855
vt 0.837883 0.062324
vt 0.672021 0.916332
vt 0.131412 0.000553
vt 0.510341 0.000229
vt 0.559738 0.046576
vt 0.912807 0.654533
vt 0.281471 0.962547
vt 0.824162 0.668885
vt 0.824728 0.877737
vt 0.211615 0.850723
vt 0.211615 0.110631
vt 0.609210 0.108936
vt 0.914688 0.837008
vt 0.735716 0.936572
vt 0.778260 0.924982
vt 0.733284 0.759733
vt 0.944168 0.214355
vt 0.944168 0.000000
vt 0.883898 0.065844
vt 0.848340 0.317531
vt 0.636882 0.838017
vt 0.944168 0.151044
vt 0.798418 0.988678
vt 0.944840 0.227406
vn -0.4937 0.1583 0.8551
vn -0.2089 0.9086 0.3618
vn -0.3952 0.6125 0.6846
vn -0.7905 0.6125 -0.0000
vn -0.9874 0.1583 -0.0000
vn -0.4178 0.9086 0.0000
vn -0.3952 0.6125 -0.6846
vn -0.4937 0.1583 -0.8551
vn -0.2089 0.9086 -0.3618
vn -0.4988 0.0686 -0.8640
vn 0.3952 0.6125 -0.6846
vn 0.4937 0.1583 -0.8551
vn 0.2089 0.9086 -0.3618
vn 0.7905 0.6125 0.0000
vn 0.9874 0.1583 0.0000
vn 0.4178 0.9086 0.0000
vn 0.3952 0.6125 0.6846
vn 0.4937 0.1583 0.8551
vn 0.2089 0.9086 0.3618
vn 0.4988 0.0686 0.8640
vn 0.4988 0.0686 -0.8640
vn -0.4988 0.0686 0.8640
vn 0.9976 0.0686 0.0000
vn -0.9976 0.0686 0.0000
vn 0.0000 -1.0000 -0.0000
vn -1.0000 -0.0000 0.0000
vn 0.0000 1.0000 0.0000
vn 1.0000 -0.0000 0.0000
vn -0.5000 -0.0000 0.8660
vn 0.5000 -0.0000 -0.8660
vn 0.5000 -0.0000 0.8660
vn -0.5000 -0.0000 -0.8660
vn 0.8660 0.0000 -0.5000
vn -0.3144 0.7775 -0.5446
vn -0.8660 0.0000 -0.5000
vn -0.3835 0.6416 -0.6643
vn -0.2043 0.9127 -0.3539
vn -0.2043 0.9127 0.3539
vn -0.3835 0.6416 0.6643
vn 0.4087 0.9127 0.0000
vn 0.7670 0.6416 0.0000
vn 0.6289 0.7775 0.0000
vn -0.0000 -0.0000 1.0000
vn -0.3144 0.7775 0.5446
s 1
f 1/1/1 2/2/1 3/3/1
f 4/4/2 5/5/2 6/6/2
f 4/7/3 7/8/3 1/1/3
f 8/9/4 9/10/4 10/11/4
f 11/12/5 9/10/5 12/13/5
f 8/14/6 5/15/6 13/16/6
f 13/16/7 14/17/7 9/18/7
f 9/10/8 15/19/8 12/13/8
f 13/16/9 5/15/9 16/20/9
f 17/21/10 18/22/10 19/23/10
f 20/24/11 21/25/11 22/26/11
f 20/27/12 23/28/12 24/29/12
f 25/30/13 5/31/13 21/25/13
f 21/32/14 26/33/14 22/34/14
f 22/34/15 27/35/15 23/28/15
f 21/25/16 5/31/16 28/36/16
f 29/37/17 1/1/17 30/38/17
f 30/38/18 3/3/18 31/39/18
f 29/40/19 5/5/19 4/4/19
f 32/41/20 33/42/20 34/43/20
f 35/44/21 36/45/21 17/46/21
f 37/47/22 38/48/22 32/41/22
f 34/49/23 39/50/23 35/44/23
f 19/23/24 40/51/24 37/52/24
f 33/53/25 38/54/25 39/55/25
f 39/55/25 38/54/25 36/56/25
f 36/56/25 38/54/25 18/57/25
f 38/54/25 40/58/25 18/57/25
f 12/13/26 41/59/26 11/12/26
f 35/60/27 42/61/27 34/62/27
f 27/35/28 43/63/28 44/64/28
f 45/65/25 46/66/25 47/67/25
f 2/2/29 41/68/29 48/69/29
f 32/70/27 42/61/27 49/71/27
f 23/28/30 45/72/30 24/29/30
f 43/73/25 46/66/25 44/74/25
f 3/3/31 43/75/31 31/39/31
f 32/70/27 50/76/27 37/77/27
f 15/19/32 45/78/32 51/79/32
f 48/80/25 52/81/25 43/73/25
f 53/82/26 50/83/26 54/84/26
f 52/85/28 55/86/28 46/87/28
f 54/88/29 49/89/29 56/90/29
f 46/87/30 57/91/30 47/92/30
f 56/90/31 42/93/31 52/94/31
f 47/95/32 58/96/32 53/82/32
f 45/65/25 53/97/25 51/98/25
f 51/98/25 54/99/25 41/100/25
f 17/101/27 55/102/27 35/60/27
f 48/80/25 54/99/25 56/103/25
f 19/104/27 57/105/27 17/101/27
f 37/77/27 58/106/27 19/104/27
f 5/107/31 59/108/31 60/109/31
f 30/110/30 61/111/30 62/112/30
f 29/113/30 62/112/30 63/114/30
f 5/115/26 64/116/26 60/117/26
f 5/118/33 65/119/33 16/120/33
f 15/121/34 66/122/34 24/123/34
f 14/124/33 67/125/33 15/126/33
f 20/127/26 66/128/26 68/129/26
f 7/130/35 69/131/35 2/132/35
f 70/133/36 64/134/36 68/135/36
f 67/136/8 68/129/8 66/128/8
f 65/137/37 60/138/37 64/134/37
f 71/139/38 60/140/38 59/141/38
f 72/142/39 59/108/39 73/143/39
f 69/144/1 73/143/1 74/145/1
f 75/146/40 60/147/40 63/148/40
f 76/149/41 63/114/41 62/112/41
f 77/150/15 62/112/15 61/111/15
f 5/118/30 63/114/30 60/151/30
f 27/152/42 61/153/42 31/154/42
f 5/107/43 75/155/43 28/156/43
f 8/157/31 73/143/31 59/108/31
f 2/158/44 74/159/44 11/160/44
f 28/156/43 76/161/43 26/162/43
f 10/163/31 74/145/31 73/143/31
f 5/115/35 71/164/35 6/165/35
f 26/162/43 77/166/43 27/167/43
f 6/165/35 72/168/35 7/130/35
f 25/169/26 68/129/26 64/116/26
f 16/120/33 70/170/33 14/124/33
f 1/1/1 7/8/1 2/2/1
f 4/7/3 6/171/3 7/8/3
f 8/9/4 13/172/4 9/10/4
f 11/12/5 10/11/5 9/10/5
f 13/16/7 16/20/7 14/17/7
f 9/10/8 14/173/8 15/19/8
f 17/21/10 36/174/10 18/22/10
f 20/24/11 25/30/11 21/25/11
f 20/27/12 22/34/12 23/28/12
f 21/32/14 28/175/14 26/33/14
f 22/34/15 26/33/15 27/35/15
f 29/37/17 4/7/17 1/1/17
f 30/38/18 1/1/18 3/3/18
f 32/41/20 38/48/20 33/42/20
f 35/44/21 39/50/21 36/45/21
f 37/47/22 40/176/22 38/48/22
f 34/49/23 33/177/23 39/50/23
f 19/23/24 18/22/24 40/51/24
f 12/13/26 51/79/26 41/59/26
f 35/60/27 55/102/27 42/61/27
f 44/64/28 23/28/28 27/35/28
f 27/35/28 31/178/28 43/63/28
f 45/65/25 44/74/25 46/66/25
f 48/69/29 3/3/29 2/2/29
f 2/2/29 11/179/29 41/68/29
f 32/70/27 34/62/27 42/61/27
f 23/28/30 44/64/30 45/72/30
f 43/73/25 52/81/25 46/66/25
f 3/3/31 48/69/31 43/75/31
f 32/70/27 49/71/27 50/76/27
f 51/79/32 12/13/32 15/19/32
f 15/19/32 24/180/32 45/78/32
f 48/80/25 56/103/25 52/81/25
f 53/82/26 58/96/26 50/83/26
f 52/85/28 42/181/28 55/86/28
f 54/88/29 50/182/29 49/89/29
f 46/87/30 55/86/30 57/91/30
f 56/90/31 49/89/31 42/93/31
f 47/95/32 57/183/32 58/96/32
f 45/65/25 47/67/25 53/97/25
f 51/98/25 53/97/25 54/99/25
f 17/101/27 57/105/27 55/102/27
f 48/80/25 41/100/25 54/99/25
f 19/104/27 58/106/27 57/105/27
f 37/77/27 50/76/27 58/106/27
f 5/107/31 8/157/31 59/108/31
f 30/110/30 31/184/30 61/111/30
f 29/113/30 30/110/30 62/112/30
f 5/115/26 25/169/26 64/116/26
f 5/118/33 60/151/33 65/119/33
f 15/121/34 67/185/34 66/122/34
f 14/124/33 70/170/33 67/125/33
f 20/127/26 24/186/26 66/128/26
f 7/130/35 72/168/35 69/131/35
f 70/133/36 65/137/36 64/134/36
f 67/136/8 70/187/8 68/129/8
f 72/142/39 71/188/39 59/108/39
f 69/144/1 72/142/1 73/143/1
f 76/149/41 75/189/41 63/114/41
f 77/150/15 76/149/15 62/112/15
f 5/118/30 29/113/30 63/114/30
f 27/152/42 77/190/42 61/153/42
f 5/107/43 60/109/43 75/155/43
f 8/157/31 10/163/31 73/143/31
f 2/158/44 69/191/44 74/159/44
f 28/156/43 75/155/43 76/161/43
f 10/163/31 11/192/31 74/145/31
f 5/115/35 60/117/35 71/164/35
f 26/162/43 76/161/43 77/166/43
f 6/165/35 71/164/35 72/168/35
f 25/169/26 20/127/26 68/129/26
f 16/120/33 65/119/33 70/170/33
