# Blender v2.79 (sub 0) OBJ File: 'fin.blend'
# www.blender.org
o 2_Satellite_Icosphere
v 0.433883 0.594346 0.078908
v 0.781831 0.834650 -0.059831
v -0.000000 0.508583 0.128424
v 0.216942 0.406469 -0.246504
v 0.390915 0.496107 -0.646205
v -0.216942 0.406469 -0.246504
v -0.390916 0.496107 -0.646205
v -0.433884 0.594346 0.078908
v -0.781832 0.834650 -0.059831
v -0.216942 0.782223 0.404321
v -0.390916 1.173193 0.526542
v 0.216942 0.782223 0.404321
v 0.390916 1.173193 0.526542
v 0.000000 0.513404 0.137187
v -0.000000 0.946417 -0.112813
v -0.008660 0.505904 0.124197
v -0.014604 0.938917 -0.125803
v 0.008660 0.505904 0.124197
v 0.014604 0.938917 -0.125803
v -0.014604 0.406507 -0.246537
v 0.014604 0.406507 -0.246537
v -0.050000 0.935620 -0.118126
v -0.000000 1.022223 -0.168126
v 0.025000 0.913969 -0.155626
v 0.025000 0.957271 -0.080626
v 0.000000 0.333578 0.335994
v 0.000000 0.570311 0.193418
v -0.085595 0.302484 0.282137
v -0.085595 0.518375 0.142507
v -0.052901 0.252172 0.194995
v -0.052901 0.484924 0.047713
v 0.052901 0.252172 0.194995
v 0.052901 0.484924 0.047713
v 0.085595 0.302484 0.282137
v 0.085595 0.518375 0.142507
v -0.090000 0.362862 0.278289
v 0.090000 0.362862 0.278289
v -0.090000 0.317862 0.200347
v 0.090000 0.317862 0.200347
v -0.090000 0.227862 0.200347
v 0.090000 0.227862 0.200347
v -0.090000 0.182862 0.278289
v 0.090000 0.182862 0.278289
v -0.090000 0.227862 0.356231
v 0.090000 0.227862 0.356231
v -0.090000 0.317862 0.356231
v 0.090000 0.317862 0.356231
v 0.000000 0.000279 0.352823
v 0.000000 0.228470 0.352823
v -0.078533 0.000279 0.295765
v -0.078533 0.228470 0.295765
v -0.048536 0.000279 0.203443
v -0.048536 0.228470 0.203443
v 0.048536 0.000279 0.203443
v 0.048536 0.228470 0.203443
v 0.078534 0.000279 0.295765
v 0.078534 0.228470 0.295765
vt 0.273214 0.614684
vt 0.211188 0.402571
vt 0.430289 0.442750
vt 0.111766 0.720720
vt 0.251070 0.000000
vt 0.000000 0.338505
vt 0.350522 0.214714
vt 0.551881 0.238972
vt 0.613906 0.043710
vt 0.613906 0.451085
vt 0.757057 0.000000
vt 0.778147 0.315649
vt 0.651558 0.194427
vt 0.778147 0.558095
vt 0.613906 0.436872
vt 0.985162 0.655308
vt 0.985162 0.218436
vt 0.757057 0.873744
vt 0.474573 0.638941
vt 0.992426 0.584404
vt 0.985162 0.304983
vt 0.992426 0.305159
vt 1.000000 0.304983
vt 0.988182 0.095873
vt 0.996981 0.095873
vt 0.613906 0.720720
vt 0.606812 1.000000
vt 0.606605 0.721019
vt 0.585930 0.725559
vt 0.593151 0.720720
vt 0.593151 0.730398
vt 0.985162 0.304983
vt 1.000000 0.000000
vt 0.784760 0.873744
vt 0.784760 0.924040
vt 0.744977 0.883681
vt 0.744977 0.873744
vt 0.744977 0.934945
vt 0.704419 0.892199
vt 0.820115 0.917201
vt 0.784760 0.917201
vt 0.816694 0.873744
vt 0.043481 0.853002
vt 0.086963 0.749741
vt 0.086963 0.870377
vt 0.168043 0.733740
vt 0.218921 0.874532
vt 0.166751 0.877307
vt 0.053746 0.870377
vt 0.000000 0.981334
vt 0.000000 0.870377
vt 0.270981 0.723822
vt 0.220214 0.864144
vt 0.218921 0.720720
vt 0.000000 0.749741
vt 0.000000 0.870377
vt 0.429864 0.899869
vt 0.350065 0.866348
vt 0.380546 0.821082
vt 0.311690 0.821300
vt 0.270981 0.720720
vt 0.311690 0.720720
vt 0.659625 0.873744
vt 0.704419 0.974325
vt 0.659625 0.974325
vt 0.508302 0.821300
vt 0.542602 0.720720
vt 0.542602 0.821300
vt 0.585930 0.720720
vt 0.585930 0.821300
vt 0.429155 0.796021
vt 0.468728 0.720720
vt 0.468728 0.820970
vt 0.659625 0.974325
vt 0.613906 0.873744
vt 0.659625 0.873744
vt 0.350066 0.821300
vt 0.350066 0.720720
vt 0.389610 0.720720
vt 0.389610 0.821082
vt 0.350066 0.795849
vt 0.126857 0.720720
vt 0.086963 0.848229
vt 0.086963 0.720720
vt 0.134952 0.848354
vt 0.086963 0.975731
vt 0.086963 0.848229
vt 0.508302 0.821300
vt 0.557614 0.946230
vt 0.508302 0.946230
vt 0.508302 0.837788
vt 0.461443 0.908697
vt 0.432483 0.864794
vt 0.605651 0.948955
vt 0.557614 0.821300
vt 0.605651 0.821456
vt 0.166751 0.720720
vt 0.126857 0.848229
vt 0.346718 0.837162
vt 0.299910 0.907505
vt 0.270981 0.864775
vt 0.651558 0.679318
vt 0.985392 0.584121
vt 0.613906 0.999522
vt 0.985162 0.000000
vt 0.043481 0.720720
vt 0.218921 0.720720
vt 0.053746 0.981334
vt 0.270981 0.877482
vt 0.429864 0.841799
vt 0.380546 0.915041
vt 0.270981 0.821300
vt 0.704419 0.873744
vt 0.508302 0.720720
vt 0.508302 0.795794
vt 0.429155 0.745896
vt 0.508302 0.745669
vt 0.613906 0.974325
vt 0.350065 0.745668
vt 0.429155 0.745953
vt 0.429155 0.796134
vt 0.134952 0.975856
vt 0.557614 0.821300
vt 0.461443 0.820970
vt 0.508302 0.892006
vt 0.557614 0.948799
vt 0.166751 0.848229
vt 0.299910 0.821300
vt 0.346718 0.890439
vn -0.2207 0.9011 -0.3731
vn -0.5866 0.8064 -0.0745
vn 0.0000 0.9758 0.2188
vn -0.0000 0.9649 -0.2628
vn 0.2207 0.9011 -0.3731
vn 0.5866 0.8064 -0.0745
vn 0.2207 0.7737 -0.5938
vn 0.5866 0.4677 -0.6611
vn 0.0000 0.7100 -0.7042
vn -0.0000 0.2984 -0.9544
vn -0.5866 0.4677 -0.6611
vn -0.2207 0.7737 -0.5938
vn -0.8660 0.2500 0.4330
vn 0.0000 -0.5000 -0.8660
vn 0.8660 0.2500 0.4330
vn 0.0000 -0.8660 0.5000
vn 0.0000 0.2212 -0.9752
vn -0.4851 -0.2100 -0.8489
vn 0.9701 0.2100 -0.1213
vn -0.4851 0.6301 0.6063
vn -0.5873 0.4396 0.6796
vn -0.9509 -0.1680 -0.2598
vn 0.0000 -0.5347 -0.8450
vn 0.9509 -0.1680 -0.2598
vn 0.5873 0.4396 0.6796
vn 0.0000 0.8660 -0.5000
vn 0.0000 0.0000 -1.0000
vn 0.0000 -0.8660 -0.5000
vn 1.0000 0.0000 0.0000
vn 0.0000 -0.0000 1.0000
vn 0.0000 0.8660 0.5000
vn -1.0000 -0.0000 0.0000
vn -0.5878 -0.0000 0.8090
vn -0.9511 0.0000 -0.3090
vn 0.0000 1.0000 -0.0000
vn 0.9511 0.0000 -0.3090
vn 0.5878 -0.0000 0.8090
vn 0.0000 -1.0000 -0.0000
vn -0.7165 0.3414 0.6084
vn 0.7165 0.3414 0.6084
vn -0.6353 0.3984 0.6616
vn -0.9486 -0.1692 -0.2674
vn 0.9486 -0.1692 -0.2674
vn 0.6353 0.3984 0.6616
s off
f 1/1/1 4/2/1 3/3/1
f 2/4/2 4/2/2 1/1/2
f 7/5/3 4/2/3 5/6/3
f 4/2/4 6/7/4 3/3/4
f 6/7/5 8/8/5 3/3/5
f 9/9/6 6/7/6 7/5/6
f 8/8/7 10/10/7 3/3/7
f 9/11/8 10/12/8 8/13/8
f 10/12/9 12/14/9 3/15/9
f 13/16/10 10/12/10 11/17/10
f 2/18/11 12/14/11 13/16/11
f 12/19/12 1/1/12 3/3/12
f 15/20/13 16/21/13 14/22/13
f 17/23/14 18/24/14 16/25/14
f 18/26/15 15/27/15 14/28/15
f 14/29/16 16/30/16 18/31/16
f 19/32/17 20/33/17 17/23/17
f 22/34/18 23/35/18 24/36/18
f 24/37/19 23/38/19 25/39/19
f 25/40/20 23/41/20 22/42/20
f 26/43/21 29/44/21 28/45/21
f 29/46/22 30/47/22 28/48/22
f 30/49/23 33/50/23 32/51/23
f 32/52/24 35/53/24 34/54/24
f 35/55/25 26/43/25 34/56/25
f 28/57/16 32/58/16 34/59/16
f 37/60/26 38/61/26 36/62/26
f 39/63/27 40/64/27 38/65/27
f 40/66/28 43/67/28 42/68/28
f 42/68/16 45/69/16 44/70/16
f 37/71/29 45/72/29 39/73/29
f 45/74/30 46/75/30 44/76/30
f 47/77/31 36/62/31 46/78/31
f 38/79/32 44/80/32 46/81/32
f 48/82/33 51/83/33 50/84/33
f 50/85/34 53/86/34 52/87/34
f 53/88/27 54/89/27 52/90/27
f 49/91/35 55/92/35 53/93/35
f 55/94/36 56/95/36 54/96/36
f 56/97/37 49/98/37 48/82/37
f 50/99/38 54/100/38 56/101/38
f 2/4/2 5/6/2 4/2/2
f 7/5/3 6/7/3 4/2/3
f 9/9/6 8/8/6 6/7/6
f 9/11/8 11/17/8 10/12/8
f 13/16/10 12/14/10 10/12/10
f 2/18/11 1/102/11 12/14/11
f 15/20/39 17/103/39 16/21/39
f 17/23/14 19/32/14 18/24/14
f 18/26/40 19/104/40 15/27/40
f 19/32/17 21/105/17 20/33/17
f 26/43/41 27/106/41 29/44/41
f 29/46/42 31/107/42 30/47/42
f 30/49/23 31/108/23 33/50/23
f 32/52/43 33/109/43 35/53/43
f 35/55/44 27/106/44 26/43/44
f 34/59/16 26/110/16 28/57/16
f 28/57/16 30/111/16 32/58/16
f 37/60/26 39/112/26 38/61/26
f 39/63/27 41/113/27 40/64/27
f 40/66/28 41/114/28 43/67/28
f 42/68/16 43/67/16 45/69/16
f 41/115/29 39/73/29 45/72/29
f 37/71/29 47/116/29 45/72/29
f 45/72/29 43/117/29 41/115/29
f 45/74/30 47/118/30 46/75/30
f 47/77/31 37/60/31 36/62/31
f 46/81/32 36/119/32 38/79/32
f 38/79/32 40/120/32 42/121/32
f 42/121/32 44/80/32 38/79/32
f 48/82/33 49/98/33 51/83/33
f 50/85/34 51/122/34 53/86/34
f 53/88/27 55/123/27 54/89/27
f 53/93/35 51/124/35 49/91/35
f 49/91/35 57/125/35 55/92/35
f 55/94/36 57/126/36 56/95/36
f 56/97/37 57/127/37 49/98/37
f 56/101/38 48/128/38 50/99/38
f 50/99/38 52/129/38 54/100/38
