# Blender v2.82 (sub 7) OBJ File: ''
# www.blender.org
mtllib straightProjectile.mtl
o Cube.001
v 156.110672 0.000012 0.000077
v -53.878281 -0.000004 -5.128428
v -53.878284 5.128417 -0.000006
v -53.878284 -0.000003 5.128415
v -53.878288 -5.128422 -0.000005
v -90.844131 -0.000006 -0.000027
vt 0.000000 0.000000
vt 1.000000 0.000000
vt 1.000000 1.000000
vt 1.000000 0.000000
vt 1.000000 1.000000
vt 1.000000 0.000000
vt 1.000000 1.000000
vt 0.000000 0.000000
vt 1.000000 1.000000
vt 1.000000 1.000000
vt 0.000000 0.000000
vt 0.000000 0.000000
vt 1.000000 0.000000
vt 0.000000 0.000000
vn 0.0173 0.7070 -0.7070
vn 0.0173 -0.7070 0.7070
vn 0.0173 -0.7070 -0.7070
vn -0.0976 0.7037 -0.7037
vn 0.0173 0.7070 0.7070
vn -0.0976 -0.7037 0.7037
vn -0.0976 0.7037 0.7037
vn -0.0976 -0.7037 -0.7037
usemtl Default_OBJ
s 1
f 1/1/1 2/2/1 3/3/1
f 1/1/2 4/4/2 5/5/2
f 1/1/3 5/6/3 2/7/3
f 3/8/4 2/2/4 6/9/4
f 3/8/5 4/4/5 1/10/5
f 5/11/6 4/4/6 6/9/6
f 4/12/7 3/13/7 6/9/7
f 2/14/8 5/6/8 6/9/8
