# Blender v2.78 (sub 0) OBJ File: 'Rebel02.blend'
# www.blender.org
o 3_BLDG_Penta.010_Cube.005
v 64.211632 64.211632 1.888346
v -64.211632 64.211632 1.888346
v -64.211632 -64.211632 1.888346
v 64.211632 -12.403842 1.888346
v 12.050948 -64.211632 1.888346
v 64.211632 64.211632 45.146763
v 64.211632 -12.403842 45.146763
v 12.050948 -64.211632 45.146763
v -64.211632 -64.211632 45.146763
v -64.211632 64.211632 45.146763
v -57.549450 -58.038548 46.007267
v -57.549450 57.542393 46.007267
v 58.031483 57.542393 46.007267
v 58.031483 -11.411534 46.007267
v 11.086873 -58.038548 46.007267
vt 0.4625 0.6847
vt 0.3460 0.6847
vt 0.3460 0.8889
vt 0.8086 0.3423
vt 0.6920 0.3423
vt 0.6920 0.6847
vt 0.8148 0.3423
vt 0.9313 0.3423
vt 0.9313 0.0000
vt 0.9251 0.4814
vt 0.8086 0.4814
vt 0.8086 0.6847
vt 0.5515 0.6847
vt 0.5488 0.6682
vt 0.3639 0.6682
vt 0.9251 0.3423
vt 0.8086 0.3423
vt 0.6920 0.5466
vt 0.6920 0.3423
vt 0.6753 0.3601
vt 0.6753 0.5439
vt 0.3460 0.3424
vt 0.3639 0.3601
vt 0.3460 0.6847
vt 0.4625 0.8889
vt 0.8086 0.6847
vt 0.8148 0.0000
vt 0.9251 0.6847
vn 1.0000 0.0000 0.0000
vn -1.0000 0.0000 0.0000
vn 0.0000 1.0000 0.0000
vn 0.0000 -1.0000 0.0000
vn 0.0000 -0.1381 0.9904
vn 0.7047 -0.7095 0.0000
vn 0.1379 0.0000 0.9904
vn 0.1182 -0.1190 0.9858
vn 0.0000 0.1280 0.9918
vn -0.1281 0.0000 0.9918
s off
f 1/1/1 6/2/1 7/3/1
f 3/4/2 9/5/2 10/6/2
f 2/7/3 10/8/3 6/9/3
f 5/10/4 8/11/4 9/12/4
f 8/13/5 15/14/5 11/15/5
f 5/10/6 4/16/6 7/17/6
f 7/18/7 6/19/7 13/20/7
f 8/13/8 7/18/8 14/21/8
f 6/19/9 10/22/9 12/23/9
f 9/24/10 11/15/10 12/23/10
f 1/1/1 7/3/1 4/25/1
f 3/4/2 10/6/2 2/26/2
f 2/7/3 6/9/3 1/27/3
f 5/10/4 9/12/4 3/28/4
f 8/13/5 11/15/5 9/24/5
f 5/10/6 7/17/6 8/11/6
f 7/18/7 13/20/7 14/21/7
f 8/13/8 14/21/8 15/14/8
f 6/19/9 12/23/9 13/20/9
f 9/24/10 12/23/10 10/22/10
