# Blender v2.78 (sub 0) OBJ File: 'Rebel02.blend'
# www.blender.org
o 1_BLDG_Condo.018_Block_Condo.019_Condo_Cube.001
v 37.740376 -7.871904 1.958559
v 37.740379 -4.504204 23.139923
v 37.740379 -7.871904 23.139923
v -1.698660 -24.004572 50.276581
v -1.698665 -20.332981 23.139933
v -1.698660 -20.332981 50.445103
v 10.174653 28.633671 50.445103
v 10.174642 28.633671 1.958565
v 0.101153 28.633688 29.263737
v 33.921192 -7.871904 23.139923
v 33.921200 -4.504126 50.445091
v 33.921200 -7.871904 50.445091
v 33.921165 -28.386475 1.958559
v -1.698665 -24.004572 23.139933
v -37.318508 -19.622671 1.958576
v 37.740376 28.633671 1.958559
v 37.740387 6.394058 50.445091
v 37.740376 6.394058 1.958559
v 33.921192 -4.504126 23.139923
v -37.318493 -19.622671 50.276592
v -37.318493 -15.845512 50.445110
v 33.921173 -24.820450 23.139923
v 33.921200 6.394058 50.445091
v 37.740387 28.633671 50.445091
v 33.921219 28.633671 50.445091
v 33.921177 -24.820450 50.445091
v 0.101158 28.633671 50.445103
v -13.571933 20.901869 50.445103
v 0.101138 20.901869 50.445103
v -36.203896 20.901869 50.445110
v -33.462463 11.658860 50.445110
v 37.740379 -28.290663 23.139923
v 37.740376 -28.290663 1.958559
v 33.921173 -28.386475 23.139923
v -13.571937 20.901869 29.263742
v -36.203903 20.901869 29.263746
v 0.101132 20.901869 29.263737
v 10.174631 -21.828812 50.445103
v -33.503010 5.049919 50.445110
v -13.571937 28.633688 29.263742
v -36.203903 28.633688 29.263746
v -36.203911 20.901869 1.958576
v -13.571944 28.633671 1.958571
v 0.101146 28.633671 1.958567
v -36.203911 28.633688 1.958576
v -37.318501 -19.622671 23.139940
v -37.318508 -15.845512 1.958576
v -37.318501 -15.845512 29.263746
v 10.174565 -21.828793 23.139929
v 37.740376 -4.504204 1.958559
v 37.740387 -4.504204 50.445091
vt 0.6760 0.6614
vt 0.5921 0.6741
vt 0.5921 0.6614
vt 0.9711 0.7461
vt 0.9857 0.6437
vt 0.9857 0.7467
vt 0.1091 0.1830
vt 0.1091 0.0000
vt 0.1490 0.1030
vt 0.6441 0.0000
vt 0.6574 0.1030
vt 0.6441 0.1030
vt 0.4840 0.8552
vt 0.4002 0.7198
vt 0.4840 0.5844
vt 0.6760 0.7992
vt 0.4840 0.7152
vt 0.6760 0.7152
vt 0.9629 0.5063
vt 0.9779 0.4033
vt 0.9779 0.5063
vt 0.7700 0.7198
vt 0.7848 0.5861
vt 0.7848 0.7216
vt 0.2714 0.7433
vt 0.2043 0.7577
vt 0.2043 0.7433
vt 0.7851 0.8055
vt 0.7700 0.7216
vt 0.7851 0.7216
vt 0.7851 0.8466
vt 0.7700 0.8055
vt 0.1910 0.7577
vt 0.5921 0.5844
vt 0.6760 0.5844
vt 0.4840 0.8695
vt 0.4002 0.8552
vt 0.7886 0.4612
vt 0.8782 0.5412
vt 0.7886 0.5412
vt 0.2852 0.7577
vt 0.2856 0.7433
vt 0.9629 0.0000
vt 0.9323 0.0799
vt 0.9323 0.0000
vt 0.6351 0.9362
vt 0.6658 0.8508
vt 0.6658 0.9362
vt 0.1910 0.6888
vt 0.1604 0.7918
vt 0.1604 0.6888
vt 0.2031 0.0000
vt 0.1490 0.0000
vt 0.2031 0.1030
vt 0.2927 0.0000
vt 0.2927 0.1030
vt 0.6351 0.7992
vt 0.6658 0.7992
vt 0.0000 0.7119
vt 0.0150 0.7918
vt 0.0000 0.7918
vt 0.2927 0.7198
vt 0.4002 0.5844
vt 0.0150 0.6888
vt 0.0000 0.6095
vt 0.0150 0.6089
vt 0.2927 0.5844
vt 0.3875 0.4813
vt 0.3875 0.5844
vt 0.5770 0.0000
vt 0.5770 0.1030
vt 0.8782 0.4612
vt 0.9323 0.5412
vt 0.0000 0.1830
vt 0.0000 0.0000
vt 0.0151 0.1830
vt 0.6760 0.6741
vt 0.4840 0.6741
vt 0.9966 0.3074
vt 0.9840 0.3669
vt 0.9846 0.3420
vt 0.4348 0.4813
vt 0.4348 0.5844
vt 0.2682 0.6089
vt 0.2596 0.6537
vt 0.2537 0.6089
vt 0.9711 0.6437
vt 0.1490 0.1830
vt 0.6574 0.0000
vt 0.4840 0.7992
vt 0.9629 0.4033
vt 0.7704 0.5844
vt 0.7700 0.8466
vt 0.1910 0.7433
vt 0.4002 0.8695
vt 0.9629 0.0799
vt 0.6351 0.8508
vt 0.1910 0.7918
vt 0.2927 0.5844
vt 0.2927 0.4813
vt 0.9323 0.4612
vt 0.1604 0.6089
vt 0.9966 0.4462
vn 1.0000 0.0000 -0.0000
vn 0.0000 1.0000 0.0000
vn -0.1221 -0.9925 0.0000
vn -0.0000 -1.0000 -0.0000
vn -0.0056 -0.0454 0.9990
vn -0.0056 -0.0450 0.9990
vn -0.0056 -0.0446 0.9990
vn 0.0000 0.0000 1.0000
vn 0.0251 -0.9997 -0.0000
vn -1.0000 0.0000 0.0000
vn -0.1250 -0.9922 -0.0000
vn -0.9995 0.0303 0.0000
vn -0.0056 -0.0458 0.9989
s 1
f 1/1/1 2/2/1 3/3/1
f 4/4/1 5/5/1 6/6/1
f 7/7/2 8/8/2 9/9/2
f 10/10/1 11/11/1 12/12/1
f 13/13/3 14/14/3 15/15/3
f 16/16/1 17/17/1 18/18/1
f 2/19/4 11/20/4 19/21/4
f 20/22/5 6/23/6 21/24/7
f 22/25/8 3/26/8 10/27/8
f 23/28/8 24/29/8 25/30/8
f 11/31/8 17/32/8 23/28/8
f 2/33/8 10/27/8 3/26/8
f 1/1/1 32/34/1 33/35/1
f 33/36/9 34/37/9 13/13/9
f 30/38/2 35/39/2 36/40/2
f 32/41/8 22/25/8 34/42/8
f 37/43/10 27/44/10 9/45/10
f 36/46/8 40/47/8 41/48/8
f 41/49/10 42/50/10 36/51/10
f 43/52/2 9/9/2 44/53/2
f 40/54/2 45/55/2 41/56/2
f 40/47/8 37/57/8 9/58/8
f 46/59/10 47/60/10 15/61/10
f 4/62/3 46/63/3 14/14/3
f 48/64/10 20/65/10 21/66/10
f 22/67/11 38/68/11 49/69/11
f 22/70/1 12/12/1 26/71/1
f 28/72/2 37/73/2 35/39/2
f 24/74/2 16/75/2 25/76/2
f 8/8/2 25/76/2 16/75/2
f 50/77/1 18/18/1 2/2/1
f 51/78/1 2/2/1 17/17/1
f 17/17/1 2/2/1 18/18/1
f 42/50/12 48/64/12 36/51/12
f 21/66/12 36/51/12 48/64/12
f 30/79/8 39/80/8 31/81/8
f 49/69/11 6/82/11 5/83/11
f 14/84/8 49/85/8 5/86/8
f 49/85/8 14/84/8 34/42/8
f 34/42/8 22/25/8 49/85/8
f 1/1/1 50/77/1 2/2/1
f 4/4/1 14/87/1 5/5/1
f 44/53/2 9/9/2 8/8/2
f 27/88/2 7/7/2 9/9/2
f 10/10/1 19/89/1 11/11/1
f 46/63/3 15/15/3 14/14/3
f 13/13/3 34/37/3 14/14/3
f 16/16/1 24/90/1 17/17/1
f 2/19/4 51/91/4 11/20/4
f 20/22/5 4/92/13 6/23/6
f 22/25/8 32/41/8 3/26/8
f 23/28/8 17/32/8 24/29/8
f 11/31/8 51/93/8 17/32/8
f 2/33/8 19/94/8 10/27/8
f 1/1/1 3/3/1 32/34/1
f 33/36/9 32/95/9 34/37/9
f 30/38/2 28/72/2 35/39/2
f 37/43/10 29/96/10 27/44/10
f 36/46/8 35/97/8 40/47/8
f 41/49/10 45/98/10 42/50/10
f 43/52/2 40/54/2 9/9/2
f 40/54/2 43/52/2 45/55/2
f 40/47/8 35/97/8 37/57/8
f 46/59/10 48/64/10 47/60/10
f 4/62/3 20/99/3 46/63/3
f 48/64/10 46/59/10 20/65/10
f 22/67/11 26/100/11 38/68/11
f 22/70/1 10/10/1 12/12/1
f 28/72/2 29/101/2 37/73/2
f 8/8/2 7/7/2 25/76/2
f 42/50/12 47/60/12 48/64/12
f 21/66/12 30/102/12 36/51/12
f 30/79/8 21/103/8 39/80/8
f 49/69/11 38/68/11 6/82/11
