# Blender v2.78 (sub 0) OBJ File: 'Rebel03.blend'
# www.blender.org
o 1_BLDG_Condo.009_Block_Condo.019_Condo_Cube.000
v 37.740372 7.871917 1.958559
v 37.740379 4.504216 23.139923
v 37.740376 7.871917 23.139923
v -1.698667 24.004572 50.276581
v -1.698672 20.332981 23.139933
v -1.698666 20.332981 50.445103
v 10.174663 -28.633667 50.445103
v 10.174651 -28.633667 1.958565
v 0.101162 -28.633688 29.263737
v 33.921188 7.871915 23.139923
v 33.921200 4.504137 50.445091
v 33.921196 7.871915 50.445091
v 33.921158 28.386486 1.958559
v -1.698673 24.004572 23.139933
v -37.318516 19.622660 1.958576
v 37.740383 -28.633659 1.958559
v 37.740391 -6.394046 50.445091
v 37.740379 -6.394046 1.958559
v 33.921192 4.504137 23.139923
v -37.318501 19.622660 50.276592
v -37.318497 15.845500 50.445110
v 33.921165 24.820461 23.139923
v 33.921204 -6.394047 50.445091
v 37.740395 -28.633659 50.445091
v 33.921227 -28.633659 50.445091
v 33.921192 24.820461 145.905502
v 33.921169 24.820461 50.445091
v 0.101167 -28.633671 50.445103
v 10.174685 -28.633667 145.905518
v -13.571926 -20.901873 50.445103
v 0.101167 -20.901869 145.905518
v 0.101144 -20.901869 50.445103
v 33.921215 7.871915 145.905502
v -36.203888 -20.901880 50.445110
v -13.571902 -20.901873 145.905518
v 33.921249 -28.633659 163.306503
v 33.921246 -28.633659 145.905518
v -33.462460 -11.658871 50.445110
v -36.203865 -20.901880 145.905518
v 33.921219 4.504137 145.905502
v 37.740372 28.290674 23.139923
v 37.740368 28.290674 1.958559
v 33.921165 28.386486 23.139923
v -13.571930 -20.901873 29.263742
v -36.203896 -20.901880 29.263746
v 0.101139 -20.901869 29.263737
v 10.174689 -28.633667 163.306503
v 28.462139 -23.554178 163.306503
v -26.702005 -2.760922 163.306503
v -26.701979 -11.658869 172.675613
v -26.701981 -11.658869 163.306503
v 0.101171 -20.901869 163.306503
v 0.101174 -23.554188 172.675613
v 0.101172 -23.554188 163.306503
v 28.462133 -6.394049 163.306503
v 28.462132 4.504135 172.675613
v 28.462130 4.504135 163.306503
v -23.581327 -20.901876 163.306503
v -13.571896 -20.901873 172.675613
v -13.571899 -20.901873 163.306503
v 0.101194 -28.633671 163.306503
v 10.174687 -23.554184 163.306503
v 10.174645 21.828815 145.905487
v 10.174624 21.828815 50.445103
v 33.921223 -6.394047 145.905518
v -33.502987 -5.049930 145.905502
v -33.503010 -5.049930 50.445110
v -33.462437 -11.658871 145.905518
v -23.581335 -2.760921 163.306503
v -26.702003 -2.760922 172.675613
v -13.571927 -28.633692 29.263742
v -36.203896 -28.633699 29.263746
v -36.203903 -20.901880 1.958576
v -13.571935 -28.633675 1.958571
v 0.101156 -28.633671 1.958567
v -36.203903 -28.633699 1.958576
v -37.318508 19.622660 23.139940
v -37.318512 15.845500 1.958576
v -37.318504 15.845500 29.263746
v 10.174559 21.828796 23.139929
v -1.698643 20.332981 145.905472
v 10.174690 -23.554184 172.675613
v -23.581320 8.613505 163.306503
v -23.581333 -2.760921 172.675613
v -23.581331 -11.658868 163.306503
v -23.581326 -20.901876 172.675613
v 28.462141 -23.554178 172.675613
v 10.174652 14.864923 163.306503
v -23.581318 8.613505 172.675613
v 33.921196 24.820461 163.306503
v 10.174654 21.828815 177.993912
v 10.174650 21.828815 163.306503
v 28.462135 -6.394049 172.675613
v 10.174656 14.864923 172.675613
v 10.174658 7.871907 177.993912
v 10.174658 7.871907 172.675613
v 33.921223 4.504137 163.306503
v 33.921227 -6.394047 163.306503
v 10.174651 18.346870 163.306503
v -30.008175 11.996954 163.306503
v -33.502983 -5.049930 163.306503
v -37.318474 15.845500 163.306503
v -13.571903 3.344007 172.675613
v 24.477427 -6.394050 172.675613
v -13.571897 -17.176769 172.675613
v 24.477406 4.504134 172.675613
v 24.477430 -6.394050 177.993912
v 24.477409 4.504134 177.993912
v 13.596194 -20.901865 172.675613
v 24.477457 -20.901861 177.993912
v 24.477455 -20.901861 172.675613
v 0.101173 -20.901869 172.675613
v 10.174688 -17.176781 172.675613
v 33.921230 4.504137 177.993912
v 33.921219 7.871915 163.306503
v 13.596193 -17.176781 172.675613
v -13.571900 -6.394083 172.675613
v -33.462433 -11.658871 163.306503
v -23.581329 -11.658868 172.675613
v 10.174663 -6.394055 177.993912
v 33.921227 7.871915 177.993912
v 10.174661 7.871907 185.804596
v 13.596193 -17.176781 177.993912
v -13.571897 -17.176769 177.993912
v 10.174690 -17.176781 185.804596
v 10.174689 -17.176781 177.993912
v 13.596194 -20.901865 177.993912
v -13.571903 3.344007 177.993912
v -13.571900 -6.394083 177.993912
v -1.698605 -17.176785 172.675613
v 33.921204 24.820461 177.993912
v -13.571901 3.344007 185.804596
v 10.174665 -6.394055 185.804596
v -13.571898 -6.394083 185.804596
v -13.571895 -17.176769 185.804596
v -1.698640 20.332981 163.306503
v -37.318478 15.845500 145.905502
v 0.101189 -28.633671 145.905518
v -36.203865 -20.901880 163.306503
v 37.740376 4.504216 1.958559
v 37.740387 4.504216 50.445091
vt 0.4203 0.5079
vt 0.4203 0.5482
vt 0.4267 0.5482
vt 0.3103 0.6033
vt 0.3172 0.6036
vt 0.3172 0.5523
vt 0.0607 0.5990
vt 0.0795 0.5595
vt 0.0607 0.5085
vt 0.4558 0.6127
vt 0.4558 0.6625
vt 0.4619 0.6625
vt 0.3742 0.5083
vt 0.2391 0.5083
vt 0.3066 0.5482
vt 0.4896 0.5079
vt 0.4474 0.5079
vt 0.4474 0.6000
vt 0.4195 0.5517
vt 0.4126 0.5517
vt 0.4126 0.6017
vt 0.2391 0.6062
vt 0.2383 0.6132
vt 0.3053 0.6129
vt 0.3880 0.5596
vt 0.3844 0.5899
vt 0.3912 0.5908
vt 0.4474 0.6097
vt 0.4898 0.6097
vt 0.4898 0.6024
vt 0.4266 0.6097
vt 0.4474 0.6024
vt 0.4249 0.6625
vt 0.4249 0.8366
vt 0.1466 0.6625
vt 0.1282 0.6625
vt 0.1282 0.8368
vt 0.1860 0.6629
vt 0.1611 0.6629
vt 0.1611 0.8367
vt 0.4558 0.8366
vt 0.2272 0.6629
vt 0.1860 0.8367
vt 0.0848 0.8368
vt 0.0848 0.8685
vt 0.2441 0.6629
vt 0.2272 0.8367
vt 0.0442 0.6625
vt 0.0243 0.6625
vt 0.0243 0.8368
vt 0.3905 0.5968
vt 0.0848 0.6625
vt 0.3815 0.5079
vt 0.3815 0.5482
vt 0.3813 0.5083
vt 0.3742 0.5482
vt 0.1564 0.6096
vt 0.1564 0.5699
vt 0.1141 0.5699
vt 0.3956 0.5542
vt 0.3888 0.5532
vt 0.0480 0.6359
vt 0.0480 0.6216
vt 0.0088 0.6216
vt 0.2541 0.9891
vt 0.2957 0.9891
vt 0.2861 0.9802
vt 0.4903 0.9162
vt 0.4903 0.9016
vt 0.4749 0.9016
vt 0.4903 0.8423
vt 0.4903 0.8379
vt 0.4749 0.8379
vt 0.4903 0.7630
vt 0.4903 0.7450
vt 0.4749 0.7450
vt 0.4903 0.8812
vt 0.4903 0.8648
vt 0.4749 0.8648
vt 0.2365 0.9891
vt 0.2541 0.9802
vt 0.3812 0.6625
vt 0.3812 0.8366
vt 0.0442 0.8368
vt 0.2941 0.6629
vt 0.2562 0.6629
vt 0.2562 0.8367
vt 0.2441 0.8367
vt 0.4903 0.9214
vt 0.4749 0.9162
vt 0.1160 0.6360
vt 0.1160 0.6215
vt 0.0737 0.6215
vt 0.1480 0.5595
vt 0.1625 0.5595
vt 0.1625 0.5081
vt 0.1050 0.5085
vt 0.0795 0.5085
vt 0.1050 0.5595
vt 0.1472 0.5595
vt 0.1472 0.5085
vt 0.0481 0.6215
vt 0.0481 0.6360
vt 0.2391 0.5481
vt 0.2391 0.5081
vt 0.2320 0.5081
vt 0.3066 0.5993
vt 0.2391 0.5482
vt 0.2320 0.5597
vt 0.2320 0.5997
vt 0.2391 0.5994
vt 0.4249 0.6127
vt 0.3812 0.6127
vt 0.1141 0.6096
vt 0.0885 0.5699
vt 0.0092 0.5990
vt 0.0164 0.5990
vt 0.0092 0.5085
vt 0.3594 0.8367
vt 0.3594 0.6628
vt 0.2940 0.6628
vt 0.4903 0.8213
vt 0.4749 0.8213
vt 0.4903 0.9401
vt 0.4749 0.9214
vt 0.4903 0.8965
vt 0.4749 0.8812
vt 0.4903 0.7912
vt 0.4749 0.7912
vt 0.4903 0.9966
vt 0.4749 0.9401
vt 0.4249 0.8684
vt 0.3812 0.8684
vt 0.3812 0.8952
vt 0.4749 0.7630
vt 0.3685 0.8855
vt 0.3557 0.8855
vt 0.3557 0.8952
vt 0.2861 0.9502
vt 0.2957 0.9502
vt 0.2957 0.9311
vt 0.1806 0.9025
vt 0.2405 0.8914
vt 0.2405 0.8852
vt 0.1691 0.8965
vt 0.1562 0.8896
vt 0.1629 0.9267
vt 0.2081 0.9249
vt 0.2494 0.9170
vt 0.2495 0.9049
vt 0.1806 0.9384
vt 0.1750 0.9384
vt 0.1806 0.9549
vt 0.2743 0.9419
vt 0.2813 0.9419
vt 0.2813 0.9229
vt 0.2080 0.9671
vt 0.2081 0.9606
vt 0.1906 0.9671
vt 0.3561 0.9022
vt 0.3561 0.9116
vt 0.3753 0.9116
vt 0.4200 0.9022
vt 0.4009 0.9022
vt 0.4009 0.9116
vt 0.2494 0.9718
vt 0.2494 0.9607
vt 0.2319 0.9671
vt 0.4619 0.8952
vt 0.4619 0.8684
vt 0.4558 0.8684
vt 0.2743 0.9672
vt 0.2554 0.9672
vt 0.2554 0.9607
vt 0.2081 0.9419
vt 0.1906 0.9355
vt 0.4749 0.8423
vt 0.1630 0.9384
vt 0.3491 0.9022
vt 0.4749 0.8965
vt 0.3527 0.9431
vt 0.3527 0.9180
vt 0.3337 0.9180
vt 0.3033 0.9431
vt 0.3278 0.9431
vt 0.3278 0.9015
vt 0.3198 0.9857
vt 0.3447 0.9857
vt 0.3447 0.9721
vt 0.3781 0.9180
vt 0.3716 0.9371
vt 0.4227 0.9858
vt 0.4641 0.9858
vt 0.4641 0.9721
vt 0.4039 0.9950
vt 0.4227 0.9950
vt 0.4266 0.9022
vt 0.4200 0.9116
vt 0.3447 0.9950
vt 0.3869 0.9950
vt 0.3869 0.9857
vt 0.4326 0.9022
vt 0.4266 0.9116
vt 0.4039 0.9857
vt 0.4641 0.9950
vt 0.4434 0.9950
vt 0.3753 0.9022
vt 0.4249 0.8952
vt 0.1750 0.9227
vt 0.2287 0.9607
vt 0.1906 0.9157
vt 0.1852 0.9355
vt 0.1852 0.9510
vt 0.3337 0.9015
vt 0.4227 0.9364
vt 0.4227 0.9533
vt 0.4640 0.9533
vt 0.4227 0.9721
vt 0.4640 0.9721
vt 0.3010 0.9857
vt 0.3198 0.9721
vt 0.4039 0.9721
vt 0.3869 0.9721
vt 0.3812 0.8367
vt 0.3594 0.8684
vt 0.2941 0.8367
vt 0.2562 0.8684
vt 0.1558 0.8685
vt 0.1607 0.8685
vt 0.1607 0.8368
vt 0.1466 0.8368
vt 0.1282 0.8685
vt 0.4619 0.8366
vt 0.0243 0.8685
vt 0.0442 0.8685
vt 0.2441 0.8684
vt 0.1611 0.8684
vt 0.2042 0.8684
vt 0.2272 0.8684
vt 0.2940 0.8367
vt 0.2940 0.8684
vt 0.4267 0.5079
vt 0.4267 0.6000
vt 0.1906 0.9510
vt 0.2405 0.8790
vt 0.2194 0.8817
vt 0.1582 0.9549
vt 0.3395 0.8857
vt 0.3395 0.9116
vt 0.1625 0.5597
vt 0.1625 0.6060
vt 0.1797 0.6117
vt 0.1921 0.6120
vt 0.1607 0.6625
vt 0.1466 0.8685
vt 0.3812 0.6628
vt 0.3812 0.6131
vt 0.3594 0.6131
vt 0.3240 0.5534
vt 0.3232 0.5599
vt 0.3448 0.5598
vt 0.3748 0.8683
vt 0.3685 0.8684
vt 0.3103 0.5523
vt 0.0795 0.5990
vt 0.4619 0.6127
vt 0.4896 0.6000
vt 0.4195 0.6017
vt 0.3062 0.6061
vt 0.4266 0.6024
vt 0.3836 0.5960
vt 0.3813 0.5482
vt 0.0088 0.6359
vt 0.2365 0.9802
vt 0.0737 0.6360
vt 0.1480 0.5081
vt 0.2391 0.5993
vt 0.0885 0.6096
vt 0.4749 0.9966
vt 0.2861 0.9311
vt 0.2744 0.9229
vt 0.2319 0.9718
vt 0.4558 0.8952
vt 0.2813 0.9718
vt 0.2981 0.9015
vt 0.3781 0.9371
vt 0.4326 0.9116
vt 0.1806 0.9227
vt 0.4640 0.9285
vt 0.3010 0.9721
vt 0.2941 0.8684
vt 0.1860 0.8684
vt 0.3716 0.9431
vt 0.3491 0.8857
vt 0.1625 0.5997
vt 0.2317 0.6060
vn 1.0000 0.0000 -0.0000
vn 0.0000 -1.0000 0.0000
vn -0.1221 0.9925 0.0000
vn -0.0000 1.0000 -0.0000
vn -0.0064 0.0445 0.9990
vn -0.0056 0.0446 0.9990
vn -0.0049 0.0458 0.9989
vn -0.0000 0.0000 1.0000
vn -0.9587 0.2844 0.0000
vn 0.0251 0.9997 0.0000
vn -1.0000 -0.0000 0.0000
vn -0.1250 0.9922 0.0000
vn -0.9837 -0.1796 0.0000
vn -1.0000 -0.0061 0.0000
vn -0.1821 0.9833 0.0000
vn -0.1873 0.9823 0.0000
vn -0.9995 -0.0303 0.0000
vn -0.0056 0.0458 0.9989
s 1
f 1/1/1 3/2/1 2/3/1
f 4/4/1 6/5/1 5/6/1
f 7/7/2 9/8/2 8/9/2
f 10/10/1 12/11/1 11/12/1
f 13/13/3 15/14/3 14/15/3
f 16/16/1 18/17/1 17/18/1
f 2/19/4 19/20/4 11/21/4
f 20/22/5 21/23/6 6/24/7
f 22/25/8 10/26/8 3/27/8
f 23/28/8 25/29/8 24/30/8
f 11/31/8 23/28/8 17/32/8
f 12/11/1 27/33/1 26/34/1
f 28/35/2 7/36/2 29/37/2
f 30/38/2 32/39/2 31/40/2
f 11/12/1 12/11/1 33/41/1
f 34/42/2 30/38/2 35/43/2
f 29/37/2 37/44/2 36/45/2
f 38/46/9 34/42/9 39/47/9
f 23/48/1 11/49/1 40/50/1
f 2/51/8 3/27/8 10/26/8
f 7/36/2 25/52/2 37/44/2
f 1/1/1 42/53/1 41/54/1
f 42/55/10 13/13/10 43/56/10
f 34/57/2 45/58/2 44/59/2
f 41/60/8 43/61/8 22/25/8
f 46/62/11 9/63/11 28/64/11
f 47/65/8 36/66/8 48/67/8
f 49/68/11 51/69/11 50/70/11
f 52/71/11 54/72/11 53/73/11
f 55/74/1 57/75/1 56/76/1
f 58/77/2 60/78/2 59/79/2
f 61/80/8 47/65/8 62/81/8
f 27/33/12 64/82/12 63/83/12
f 25/52/1 23/48/1 65/84/1
f 21/85/13 67/86/13 66/87/13
f 38/46/14 68/88/14 66/87/14
f 69/89/4 49/68/4 70/90/4
f 45/91/8 72/92/8 71/93/8
f 72/94/11 45/95/11 73/96/11
f 74/97/2 75/98/2 9/8/2
f 71/99/2 72/100/2 76/101/2
f 71/93/8 9/102/8 46/103/8
f 77/104/11 15/105/11 78/106/11
f 4/107/3 14/15/3 77/108/3
f 79/109/11 21/110/11 20/111/11
f 22/112/12 80/113/12 64/82/12
f 22/112/1 27/33/1 12/11/1
f 30/114/2 44/59/2 46/115/2
f 24/116/2 25/117/2 16/118/2
f 81/119/12 6/120/12 21/121/12
f 54/72/2 62/122/2 82/123/2
f 83/124/11 69/89/11 84/125/11
f 85/126/11 58/77/11 86/127/11
f 62/122/2 48/128/2 87/129/2
f 88/130/15 83/124/15 89/131/15
f 90/132/12 92/133/12 91/134/12
f 48/128/1 55/74/1 93/135/1
f 94/136/11 96/137/11 95/138/11
f 55/139/8 98/140/8 97/141/8
f 83/142/8 88/143/8 99/144/8
f 100/145/8 102/146/8 101/147/8
f 103/148/8 96/149/8 94/150/8
f 85/151/8 51/152/8 58/153/8
f 104/154/8 93/155/8 56/156/8
f 59/157/8 105/158/8 86/159/8
f 106/160/1 108/161/1 107/162/1
f 109/163/2 111/164/2 110/165/2
f 82/166/8 113/167/8 112/168/8
f 114/169/1 97/170/1 115/171/1
f 93/155/8 104/154/8 111/172/8
f 109/173/8 116/174/8 113/167/8
f 117/175/8 103/148/8 84/176/8
f 60/78/2 52/71/2 112/177/2
f 101/147/8 118/178/8 51/152/8
f 108/161/2 106/160/2 56/179/2
f 51/69/2 85/126/2 119/180/2
f 120/181/8 107/182/8 108/183/8
f 91/184/8 95/185/8 121/186/8
f 120/187/1 95/188/1 122/189/1
f 110/190/8 107/182/8 123/191/8
f 124/192/2 126/193/2 125/194/2
f 117/195/11 105/196/11 124/192/11
f 116/197/11 109/163/11 127/198/11
f 96/199/16 103/200/16 128/201/16
f 113/202/2 116/197/2 123/203/2
f 103/200/11 117/195/11 129/204/11
f 113/205/2 126/193/2 130/206/2
f 111/164/1 104/207/1 107/162/1
f 115/171/1 90/132/1 131/208/1
f 83/142/8 100/145/8 49/209/8
f 130/210/8 105/158/8 59/157/8
f 103/148/8 89/211/8 84/176/8
f 84/176/8 70/212/8 50/213/8
f 108/183/8 114/214/8 121/186/8
f 132/215/8 134/216/8 133/217/8
f 135/218/8 125/219/8 133/217/8
f 126/220/1 120/187/1 133/221/1
f 128/201/11 129/204/11 134/222/11
f 129/204/11 124/192/11 135/218/11
f 95/188/16 128/201/16 132/223/16
f 63/224/12 81/119/12 136/225/12
f 137/226/13 66/87/13 101/227/13
f 54/228/11 52/229/11 31/230/11
f 138/231/2 29/37/2 47/232/2
f 40/233/1 33/41/1 115/171/1
f 8/9/2 16/118/2 25/117/2
f 65/84/1 40/50/1 97/234/1
f 37/44/1 65/84/1 98/235/1
f 68/88/14 118/236/14 101/227/14
f 33/41/1 26/34/1 90/132/1
f 35/43/2 31/40/2 52/237/2
f 39/47/2 35/43/2 58/238/2
f 68/88/9 39/47/9 139/239/9
f 137/240/12 102/241/12 136/225/12
f 140/242/1 2/3/1 18/17/1
f 141/243/1 17/18/1 2/3/1
f 17/18/1 18/17/1 2/3/1
f 84/176/8 119/244/8 117/175/8
f 94/150/8 89/211/8 103/148/8
f 99/144/8 92/245/8 136/246/8
f 136/246/8 100/145/8 99/144/8
f 112/168/8 113/167/8 130/210/8
f 51/152/8 118/178/8 139/247/8
f 123/191/8 107/182/8 120/181/8
f 111/172/8 109/173/8 82/166/8
f 48/67/8 36/66/8 98/140/8
f 97/248/2 114/249/2 56/179/2
f 73/96/17 45/250/17 79/109/17
f 21/110/17 79/109/17 45/250/17
f 34/251/8 38/252/8 67/253/8
f 100/145/8 136/246/8 102/146/8
f 94/136/11 91/134/11 92/133/11
f 138/231/11 31/230/11 32/254/11
f 105/158/8 117/175/8 119/244/8
f 124/192/2 105/196/2 130/206/2
f 126/193/2 124/192/2 130/206/2
f 119/244/8 86/159/8 105/158/8
f 138/231/11 61/255/11 54/228/11
f 92/133/12 90/132/12 26/34/12
f 64/256/12 6/120/12 81/119/12
f 80/257/12 5/258/12 6/120/12
f 14/259/8 5/260/8 80/261/8
f 80/261/8 43/61/8 14/259/8
f 43/61/8 80/261/8 22/25/8
f 99/262/11 88/263/11 94/136/11
f 1/1/1 2/3/1 140/242/1
f 4/4/1 5/6/1 14/264/1
f 75/98/2 8/9/2 9/8/2
f 28/265/2 9/8/2 7/7/2
f 10/10/1 11/12/1 19/266/1
f 77/108/3 14/15/3 15/14/3
f 13/13/3 14/15/3 43/56/3
f 16/16/1 17/18/1 24/267/1
f 2/19/4 11/21/4 141/268/4
f 20/22/5 6/24/7 4/269/18
f 22/25/8 3/27/8 41/60/8
f 23/28/8 24/30/8 17/32/8
f 11/31/8 17/32/8 141/270/8
f 12/11/1 26/34/1 33/41/1
f 28/35/2 29/37/2 138/231/2
f 30/38/2 31/40/2 35/43/2
f 11/12/1 33/41/1 40/233/1
f 34/42/2 35/43/2 39/47/2
f 29/37/2 36/45/2 47/232/2
f 38/46/9 39/47/9 68/88/9
f 23/48/1 40/50/1 65/84/1
f 2/51/8 10/26/8 19/271/8
f 7/36/2 37/44/2 29/37/2
f 1/1/1 41/54/1 3/2/1
f 42/55/10 43/56/10 41/272/10
f 34/57/2 44/59/2 30/114/2
f 46/62/11 28/64/11 32/273/11
f 47/65/8 48/67/8 62/81/8
f 49/68/11 50/70/11 70/90/11
f 52/71/11 53/73/11 112/177/11
f 55/74/1 56/76/1 93/135/1
f 58/77/2 59/79/2 86/127/2
f 61/80/8 62/81/8 54/274/8
f 27/33/12 63/83/12 26/34/12
f 25/52/1 65/84/1 37/44/1
f 21/85/13 66/87/13 137/226/13
f 38/46/14 66/87/14 67/86/14
f 69/89/4 70/90/4 84/125/4
f 45/91/8 71/93/8 44/275/8
f 72/94/11 73/96/11 76/276/11
f 74/97/2 9/8/2 71/99/2
f 71/99/2 76/101/2 74/97/2
f 71/93/8 46/103/8 44/275/8
f 77/104/11 78/106/11 79/109/11
f 4/107/3 77/108/3 20/277/3
f 79/109/11 20/111/11 77/104/11
f 22/112/12 64/82/12 27/33/12
f 22/112/1 12/11/1 10/10/1
f 30/114/2 46/115/2 32/278/2
f 81/119/12 21/121/12 137/240/12
f 54/72/2 82/123/2 53/73/2
f 83/124/11 84/125/11 89/131/11
f 85/126/11 86/127/11 119/180/11
f 62/122/2 87/129/2 82/123/2
f 88/130/15 89/131/15 94/279/15
f 90/132/12 91/134/12 131/208/12
f 48/128/1 93/135/1 87/129/1
f 94/136/11 95/138/11 91/134/11
f 55/139/8 97/141/8 57/280/8
f 83/142/8 99/144/8 100/145/8
f 100/145/8 101/147/8 49/209/8
f 104/154/8 56/156/8 106/281/8
f 106/160/1 107/162/1 104/207/1
f 109/163/2 110/165/2 127/198/2
f 82/166/8 112/168/8 53/282/8
f 114/169/1 115/171/1 121/283/1
f 93/155/8 111/172/8 87/284/8
f 109/173/8 113/167/8 82/166/8
f 60/78/2 112/177/2 59/79/2
f 101/147/8 51/152/8 49/209/8
f 108/161/2 56/179/2 114/249/2
f 51/69/2 119/180/2 50/70/2
f 120/181/8 108/183/8 95/185/8
f 91/184/8 121/186/8 131/285/8
f 120/187/1 122/189/1 133/221/1
f 110/190/8 123/191/8 127/286/8
f 124/192/2 125/194/2 135/218/2
f 117/195/11 124/192/11 129/204/11
f 116/197/11 127/198/11 123/203/11
f 96/199/16 128/201/16 95/188/16
f 113/202/2 123/203/2 126/287/2
f 103/200/11 129/204/11 128/201/11
f 111/164/1 107/162/1 110/165/1
f 115/171/1 131/208/1 121/283/1
f 83/142/8 49/209/8 69/288/8
f 130/210/8 59/157/8 112/168/8
f 84/176/8 50/213/8 119/244/8
f 108/183/8 121/186/8 95/185/8
f 132/215/8 133/217/8 122/289/8
f 135/218/8 133/217/8 134/216/8
f 126/220/1 133/221/1 125/290/1
f 128/201/11 134/222/11 132/223/11
f 129/204/11 135/218/11 134/222/11
f 95/188/16 132/223/16 122/189/16
f 63/224/12 136/225/12 92/133/12
f 137/226/13 101/227/13 102/291/13
f 138/231/2 47/232/2 61/255/2
f 40/233/1 115/171/1 97/170/1
f 8/9/2 25/117/2 7/7/2
f 65/84/1 97/234/1 98/235/1
f 37/44/1 98/235/1 36/45/1
f 68/88/14 101/227/14 66/87/14
f 33/41/1 90/132/1 115/171/1
f 35/43/2 52/237/2 60/292/2
f 60/292/2 58/238/2 35/43/2
f 39/47/2 58/238/2 139/239/2
f 68/88/9 139/239/9 118/236/9
f 137/240/12 136/225/12 81/119/12
f 51/152/8 139/247/8 58/153/8
f 123/191/8 120/181/8 126/293/8
f 111/172/8 82/166/8 87/284/8
f 48/67/8 98/140/8 55/139/8
f 97/248/2 56/179/2 57/294/2
f 73/96/17 79/109/17 78/106/17
f 21/110/17 45/250/17 34/295/17
f 34/251/8 67/253/8 21/296/8
f 94/136/11 92/133/11 99/262/11
f 138/231/11 32/254/11 28/35/11
f 138/231/11 54/228/11 31/230/11
f 92/133/12 26/34/12 63/83/12
f 64/256/12 81/119/12 63/224/12
f 80/257/12 6/120/12 64/256/12
