# Blender v2.78 (sub 0) OBJ File: 'Rebel02.blend'
# www.blender.org
o 1_BLDG_TD.006_Block_TD.006_TD_bldg_Cube.001
v -3.048384 42.677052 26.802443
v -27.495630 45.725437 26.802450
v -27.495630 42.677052 26.802450
v -0.000083 45.725437 64.120392
v -0.000117 43.310780 26.142036
v -27.495621 45.725437 64.120354
v -27.495621 42.677052 64.120399
v -3.048376 42.677052 64.120392
v -33.592369 36.580307 64.120407
v -36.580479 36.580326 64.120407
v -33.617889 33.617741 64.212914
v -40.528522 40.528355 61.999630
v -40.528534 40.528355 28.923187
v -45.725594 27.495487 26.802454
v -42.677208 3.048215 26.802454
v -42.677208 27.495487 26.802454
v -45.725586 -0.000066 64.120407
v -43.309738 0.001162 26.142048
v -45.725586 27.495487 64.120361
v -42.677200 3.048215 64.120407
v -36.580456 33.592213 64.120407
v -42.677200 27.495487 64.120407
v -45.726582 27.541960 1.803361
v -27.496611 45.771908 1.803357
v -42.744469 42.789814 1.803360
v -0.001030 43.354797 2.463758
v -43.310673 0.045183 2.463767
v -27.495630 -45.725563 26.802450
v -3.048385 -42.677204 26.802443
v -27.495630 -42.677204 26.802450
v -0.000084 -45.725563 64.120392
v -0.000118 -43.308453 26.142036
v -27.495621 -45.725563 64.120354
v -3.048377 -42.677204 64.120392
v -33.592369 -36.580463 64.120407
v -27.495621 -42.677204 64.120399
v -36.580479 -36.580463 64.120407
v -33.617889 -33.617893 64.212914
v -40.528522 -40.528511 61.999630
v -40.528534 -40.528511 28.923187
v -42.677208 -3.048352 26.802454
v -45.725594 -27.495615 26.802454
v -42.677208 -27.495615 26.802454
v -45.725586 -27.495615 64.120361
v -42.677200 -27.495615 64.120407
v -42.677200 -3.048352 64.120407
v -36.580456 -33.592369 64.120407
v -42.744469 -42.696983 1.803360
v -27.496611 -45.679077 1.803357
v -0.001031 -43.264423 2.463758
v -45.726582 -27.449148 1.803361
v 27.495457 45.725437 26.802437
v 3.048207 42.677052 26.802443
v 27.495457 42.677052 26.802437
v 27.495466 45.725437 64.120346
v 3.048216 42.677052 64.120392
v 33.592213 36.580307 64.120384
v 27.495466 42.677052 64.120392
v 36.580322 36.580326 64.120384
v 33.617741 33.617741 64.212883
v 40.528362 40.528355 61.999611
v 40.528355 40.528355 28.923164
v 42.677040 3.048214 26.802433
v 45.725422 27.495487 26.802433
v 42.677040 27.495487 26.802433
v 45.725433 -0.000067 64.120384
v 43.309517 0.001161 26.142027
v 45.725433 27.495487 64.120338
v 42.677052 27.495487 64.120384
v 42.677052 3.048214 64.120384
v 36.580307 33.592213 64.120384
v 45.724442 27.541960 1.803340
v 42.742329 42.789814 1.803341
v 27.494478 45.771908 1.803344
v 43.308586 0.045182 2.463747
v 3.048206 -42.677204 26.802443
v 27.495457 -45.725563 26.802437
v 27.495457 -42.677204 26.802437
v 27.495466 -45.725563 64.120346
v 27.495466 -42.677204 64.120392
v 3.048215 -42.677204 64.120392
v 33.592213 -36.580463 64.120384
v 36.580322 -36.580463 64.120384
v 33.617741 -33.617893 64.212883
v 40.528362 -40.528511 61.999611
v 40.528355 -40.528511 28.923164
v 45.725422 -27.495615 26.802433
v 42.677040 -3.048352 26.802433
v 42.677040 -27.495615 26.802433
v 45.725433 -27.495615 64.120338
v 42.677052 -3.048352 64.120384
v 36.580307 -33.592369 64.120384
v 42.677052 -27.495615 64.120384
v 42.742329 -42.696983 1.803341
v 45.724442 -27.449148 1.803340
v 27.494478 -45.679077 1.803344
vt 0.5981 0.6774
vt 0.6476 0.6712
vt 0.6476 0.6774
vt 0.9336 0.5020
vt 0.9262 0.5662
vt 0.9262 0.5020
vt 0.8038 0.5519
vt 0.8096 0.6235
vt 0.8038 0.6235
vt 0.9757 0.5020
vt 0.9336 0.5662
vt 0.8244 0.6577
vt 0.8304 0.6637
vt 0.8244 0.6638
vt 0.8058 0.6762
vt 0.8058 0.6391
vt 0.8120 0.6762
vt 0.8446 0.5519
vt 0.8096 0.5519
vt 0.5920 0.6774
vt 0.6414 0.6835
vt 0.5920 0.6835
vt 0.9262 0.5663
vt 0.9188 0.5020
vt 0.9262 0.5020
vt 0.8037 0.5517
vt 0.8096 0.6233
vt 0.8096 0.5517
vt 0.9188 0.5663
vt 0.8767 0.5020
vt 0.8304 0.6577
vt 0.8428 0.6391
vt 0.8428 0.6453
vt 0.8445 0.5517
vt 0.8096 0.5039
vt 0.8096 0.5040
vt 0.8446 0.5040
vt 0.7569 0.5040
vt 0.7568 0.5039
vt 0.7568 0.5517
vt 0.5920 0.6774
vt 0.6414 0.6835
vt 0.5920 0.6835
vt 0.9262 0.5663
vt 0.9188 0.5021
vt 0.9262 0.5021
vt 0.8037 0.5518
vt 0.8096 0.6234
vt 0.8096 0.5518
vt 0.9188 0.5663
vt 0.8767 0.5021
vt 0.8244 0.6577
vt 0.8304 0.6577
vt 0.8304 0.6637
vt 0.8428 0.6391
vt 0.8428 0.6453
vt 0.8058 0.6391
vt 0.8445 0.5518
vt 0.5981 0.6774
vt 0.6476 0.6712
vt 0.6476 0.6774
vt 0.9336 0.5020
vt 0.7099 0.5517
vt 0.7041 0.6233
vt 0.7099 0.6233
vt 0.9757 0.5020
vt 0.9336 0.5663
vt 0.8244 0.6638
vt 0.8058 0.6762
vt 0.8120 0.6762
vt 0.6691 0.5517
vt 0.7041 0.5517
vt 0.6691 0.5039
vt 0.8096 0.5040
vt 0.7568 0.5040
vt 0.7568 0.5518
vt 0.7041 0.5039
vt 0.5920 0.6774
vt 0.6414 0.6835
vt 0.5920 0.6835
vt 0.9188 0.5020
vt 0.7099 0.5519
vt 0.7041 0.6235
vt 0.7041 0.5519
vt 0.9188 0.5662
vt 0.8767 0.5020
vt 0.8244 0.6577
vt 0.8305 0.6577
vt 0.8304 0.6637
vt 0.8428 0.6391
vt 0.8428 0.6453
vt 0.8058 0.6391
vt 0.6691 0.5519
vt 0.5981 0.6774
vt 0.6476 0.6712
vt 0.6476 0.6774
vt 0.9336 0.5020
vt 0.9262 0.5662
vt 0.9262 0.5020
vt 0.8037 0.5518
vt 0.8096 0.6234
vt 0.8037 0.6234
vt 0.9757 0.5020
vt 0.9336 0.5662
vt 0.8244 0.6638
vt 0.8058 0.6762
vt 0.8120 0.6762
vt 0.8445 0.5518
vt 0.8096 0.5518
vt 0.8096 0.5040
vt 0.6691 0.5040
vt 0.7041 0.5040
vt 0.7569 0.5519
vt 0.7568 0.5040
vt 0.7568 0.5518
vt 0.5981 0.6774
vt 0.6476 0.6712
vt 0.6476 0.6774
vt 0.9336 0.5021
vt 0.7099 0.5518
vt 0.7041 0.6234
vt 0.7099 0.6234
vt 0.9757 0.5021
vt 0.9336 0.5663
vt 0.8244 0.6577
vt 0.8304 0.6637
vt 0.8244 0.6638
vt 0.8058 0.6762
vt 0.8058 0.6391
vt 0.8120 0.6762
vt 0.6691 0.5518
vt 0.7041 0.5518
vt 0.5920 0.6774
vt 0.6414 0.6835
vt 0.5920 0.6835
vt 0.9188 0.5020
vt 0.7099 0.5518
vt 0.7041 0.6234
vt 0.7041 0.5518
vt 0.9188 0.5662
vt 0.8767 0.5020
vt 0.8305 0.6577
vt 0.8428 0.6391
vt 0.8428 0.6453
vt 0.6691 0.5040
vt 0.7041 0.5040
vt 0.7041 0.5040
vt 0.5920 0.6712
vt 0.9757 0.5662
vt 0.8446 0.6235
vt 0.6476 0.6774
vt 0.8037 0.6233
vt 0.8767 0.5663
vt 0.8445 0.6233
vt 0.8445 0.5039
vt 0.6476 0.6774
vt 0.8037 0.6234
vt 0.8767 0.5663
vt 0.8445 0.6234
vt 0.5920 0.6712
vt 0.9757 0.5663
vt 0.6691 0.6233
vt 0.8445 0.5040
vt 0.6476 0.6774
vt 0.7099 0.6235
vt 0.8767 0.5662
vt 0.6691 0.6235
vt 0.5920 0.6712
vt 0.9757 0.5662
vt 0.8445 0.6234
vt 0.8445 0.5040
vt 0.5920 0.6712
vt 0.9757 0.5663
vt 0.6691 0.6234
vt 0.6476 0.6774
vt 0.7099 0.6234
vt 0.8767 0.5662
vn 0.0654 0.5246 0.8488
vn 0.0020 0.0160 0.9999
vn 0.0000 0.0000 1.0000
vn -0.2498 0.9665 -0.0585
vn -0.6861 0.7275 -0.0034
vn -0.2160 0.9744 -0.0620
vn 1.0000 -0.0000 -0.0000
vn 0.0000 1.0000 0.0000
vn 0.0000 0.0312 0.9995
vn -0.1606 0.0000 0.9870
vn -0.2205 0.2205 0.9501
vn -0.1566 0.0577 0.9860
vn -0.1900 0.1900 0.9632
vn -0.3415 0.9397 0.0167
vn -0.3704 0.9289 0.0000
vn -0.2246 0.9744 0.0013
vn -0.0160 -0.0020 0.9999
vn -0.5251 -0.0655 0.8485
vn -0.7275 0.6861 -0.0034
vn -0.9666 0.2495 -0.0586
vn -0.9745 0.2157 -0.0620
vn 0.0000 -1.0000 -0.0000
vn -1.0000 0.0000 0.0000
vn -0.0312 -0.0000 0.9995
vn -0.0000 0.1606 0.9870
vn -0.0577 0.1566 0.9860
vn -0.9289 0.3704 0.0000
vn -0.9397 0.3415 0.0162
vn -0.9745 0.2245 0.0002
vn -0.9960 0.0822 0.0344
vn -0.0819 0.9960 0.0360
vn -0.1910 0.9768 0.0971
vn 0.0000 1.0000 0.0019
vn -1.0000 -0.0001 0.0000
vn -1.0000 0.0001 0.0000
vn 0.0020 -0.0160 0.9999
vn 0.0655 -0.5256 0.8482
vn -0.6861 -0.7275 -0.0034
vn -0.2491 -0.9667 -0.0586
vn -0.2153 -0.9746 -0.0620
vn 0.0000 -0.0312 0.9995
vn -0.1566 -0.0577 0.9860
vn -0.2205 -0.2205 0.9501
vn -0.1900 -0.1900 0.9632
vn -0.3704 -0.9289 0.0000
vn -0.3416 -0.9397 0.0152
vn -0.2248 -0.9744 -0.0013
vn -0.5250 0.0655 0.8486
vn -0.0160 0.0020 0.9999
vn -0.9666 -0.2494 -0.0586
vn -0.7275 -0.6861 -0.0034
vn -0.9745 -0.2156 -0.0620
vn -0.0000 -0.1606 0.9870
vn -0.0577 -0.1566 0.9860
vn -0.9305 -0.3632 0.0480
vn -0.9289 -0.3704 0.0000
vn -0.9796 -0.1990 0.0267
vn -0.9686 -0.2464 0.0343
vn -0.0821 -0.9961 0.0324
vn 0.0000 -1.0000 -0.0019
vn -0.9986 -0.0536 -0.0001
vn -0.0020 0.0160 0.9999
vn -0.0654 0.5246 0.8488
vn 0.6861 0.7275 -0.0034
vn 0.2498 0.9665 -0.0585
vn 0.2160 0.9744 -0.0620
vn 0.1606 0.0000 0.9870
vn 0.1566 0.0577 0.9860
vn 0.2205 0.2205 0.9501
vn 0.1900 0.1900 0.9632
vn 0.3704 0.9289 -0.0000
vn 0.3631 0.9305 0.0490
vn 0.1988 0.9796 0.0281
vn 0.5252 -0.0655 0.8485
vn 0.0160 -0.0020 0.9999
vn 0.9666 0.2495 -0.0586
vn 0.7275 0.6861 -0.0034
vn 0.9745 0.2157 -0.0620
vn 0.0312 -0.0000 0.9995
vn 0.0577 0.1566 0.9860
vn 0.9397 0.3415 0.0162
vn 0.9289 0.3704 -0.0000
vn 0.9745 0.2245 0.0002
vn 0.9960 0.0822 0.0344
vn 0.2463 0.9685 0.0365
vn 0.0538 0.9986 0.0019
vn 1.0000 -0.0001 -0.0000
vn 1.0000 0.0001 -0.0000
vn -0.0655 -0.5256 0.8482
vn -0.0020 -0.0160 0.9999
vn 0.2491 -0.9667 -0.0586
vn 0.6861 -0.7275 -0.0034
vn 0.2153 -0.9746 -0.0620
vn 0.2205 -0.2205 0.9501
vn 0.1566 -0.0577 0.9860
vn 0.1900 -0.1900 0.9632
vn 0.3633 -0.9305 0.0476
vn 0.3704 -0.9289 -0.0000
vn 0.1983 -0.9798 0.0258
vn 0.0160 0.0020 0.9999
vn 0.5250 0.0655 0.8486
vn 0.7275 -0.6861 -0.0034
vn 0.9666 -0.2494 -0.0586
vn 0.9745 -0.2155 -0.0620
vn 0.0577 -0.1566 0.9860
vn 0.9289 -0.3704 -0.0000
vn 0.9305 -0.3632 0.0480
vn 0.9796 -0.1990 0.0267
vn 0.9686 -0.2464 0.0343
vn 0.9986 -0.0536 -0.0001
vn 0.2465 -0.9686 0.0330
vn 0.0538 -0.9985 -0.0019
vn 0.0679 0.5446 0.8360
vn -0.7071 0.7071 0.0000
vn -0.5451 -0.0680 0.8356
vn -0.9769 0.1911 0.0958
vn 0.0680 -0.5455 0.8354
vn -0.7071 -0.7071 0.0000
vn -0.5449 0.0680 0.8357
vn -0.1911 -0.9771 0.0937
vn -0.0679 0.5446 0.8360
vn 0.7071 0.7071 -0.0000
vn 0.5451 -0.0680 0.8356
vn 0.9769 0.1911 0.0957
vn -0.0680 -0.5455 0.8354
vn 0.7071 -0.7071 -0.0000
vn 0.5450 0.0680 0.8357
s 1
f 1/1/1 2/2/2 3/3/3
f 1/4/4 4/5/5 5/6/6
f 3/7/7 6/8/7 7/9/7
f 3/10/8 8/11/8 1/4/8
f 10/12/9 11/13/9 9/14/9
f 6/15/10 12/16/11 7/17/12
f 7/17/12 10/12/13 9/14/3
f 13/18/14 6/8/15 2/19/16
f 14/20/17 15/21/18 16/22/3
f 17/23/19 15/24/20 18/25/21
f 16/26/22 19/27/22 14/28/22
f 20/29/23 16/30/23 15/24/23
f 10/12/24 21/31/24 11/13/24
f 19/32/25 22/33/26 12/16/11
f 22/33/26 10/12/13 12/16/11
f 19/27/27 13/34/28 14/28/29
f 13/34/28 23/35/30 14/28/29
f 13/18/14 24/36/31 25/37/32
f 2/19/16 26/38/33 24/36/31
f 14/28/29 27/39/34 18/40/35
f 28/41/36 29/42/37 30/43/3
f 31/44/38 29/45/39 32/46/40
f 30/47/7 33/48/7 28/49/7
f 34/50/22 30/51/22 29/45/22
f 37/52/41 35/53/41 38/54/41
f 33/55/10 36/56/42 39/57/43
f 36/56/42 37/52/44 39/57/43
f 33/48/45 40/58/46 28/49/47
f 41/59/48 42/60/49 43/61/3
f 41/62/50 17/23/51 18/25/52
f 43/63/8 44/64/8 45/65/8
f 43/66/23 46/67/23 41/62/23
f 37/52/24 38/54/24 47/68/24
f 44/69/53 39/57/43 45/70/54
f 45/70/54 37/52/44 47/68/3
f 40/71/55 44/64/56 42/72/57
f 42/72/57 48/73/58 40/71/55
f 40/58/46 49/74/59 28/49/47
f 28/49/47 50/75/60 32/76/60
f 18/40/35 51/77/61 42/72/57
f 52/78/62 53/79/63 54/80/3
f 4/5/64 53/81/65 5/6/66
f 54/82/23 55/83/23 52/84/23
f 56/85/8 54/86/8 53/81/8
f 59/87/9 57/88/9 60/89/9
f 55/90/67 58/91/68 61/92/69
f 58/91/68 59/87/70 61/92/69
f 55/83/71 62/93/72 52/84/73
f 63/94/74 64/95/75 65/96/3
f 63/97/76 66/98/77 67/99/78
f 65/100/22 68/101/22 69/102/22
f 65/103/7 70/104/7 63/97/7
f 59/87/79 60/89/79 71/105/79
f 68/106/25 61/92/69 69/107/80
f 69/107/80 59/87/70 71/105/3
f 62/108/81 68/101/82 64/109/83
f 72/110/84 62/108/81 64/109/83
f 73/111/85 52/84/73 62/93/72
f 74/112/86 5/113/33 52/84/73
f 75/114/87 64/109/83 67/115/88
f 76/116/89 77/117/90 78/118/3
f 76/119/91 31/44/92 32/46/93
f 78/120/23 79/121/23 80/122/23
f 78/123/22 81/124/22 76/119/22
f 83/125/41 84/126/41 82/127/41
f 79/128/67 85/129/94 80/130/95
f 80/130/95 83/125/96 82/127/3
f 86/131/97 79/121/98 77/132/99
f 87/133/100 88/134/101 89/135/3
f 66/98/102 88/136/103 67/99/104
f 89/137/8 90/138/8 87/139/8
f 91/140/7 89/141/7 88/136/7
f 83/125/79 92/142/79 84/126/79
f 90/143/53 93/144/105 85/129/94
f 93/144/105 83/125/96 85/129/94
f 90/138/106 86/131/107 87/139/108
f 87/139/108 94/145/109 95/146/110
f 77/132/99 94/145/111 86/131/97
f 32/76/60 96/147/112 77/132/99
f 67/115/88 95/146/110 75/114/87
f 1/1/1 5/148/113 2/2/2
f 1/4/4 8/11/114 4/5/5
f 3/7/7 2/19/7 6/8/7
f 3/10/8 7/149/8 8/11/8
f 7/17/12 12/16/11 10/12/13
f 13/18/14 12/150/15 6/8/15
f 14/20/17 18/151/115 15/21/18
f 17/23/19 20/29/114 15/24/20
f 16/26/22 22/152/22 19/27/22
f 20/29/23 22/153/23 16/30/23
f 22/33/26 21/31/3 10/12/13
f 19/27/27 12/154/27 13/34/28
f 13/34/28 25/155/116 23/35/30
f 13/18/14 2/19/16 24/36/31
f 2/19/16 5/113/33 26/38/33
f 14/28/29 23/35/30 27/39/34
f 28/41/36 32/156/117 29/42/37
f 31/44/38 34/50/118 29/45/39
f 30/47/7 36/157/7 33/48/7
f 34/50/22 36/158/22 30/51/22
f 36/56/42 35/53/3 37/52/44
f 33/48/45 39/159/45 40/58/46
f 41/59/48 18/160/119 42/60/49
f 41/62/50 46/67/118 17/23/51
f 43/63/8 42/72/8 44/64/8
f 43/66/23 45/161/23 46/67/23
f 45/70/54 39/57/43 37/52/44
f 40/71/55 39/162/56 44/64/56
f 42/72/57 51/77/61 48/73/58
f 40/58/46 48/163/120 49/74/59
f 28/49/47 49/74/59 50/75/60
f 18/40/35 27/39/34 51/77/61
f 52/78/62 5/164/121 53/79/63
f 4/5/64 56/85/122 53/81/65
f 54/82/23 58/165/23 55/83/23
f 56/85/8 58/166/8 54/86/8
f 58/91/68 57/88/3 59/87/70
f 55/83/71 61/167/71 62/93/72
f 63/94/74 67/168/123 64/95/75
f 63/97/76 70/104/122 66/98/77
f 65/100/22 64/109/22 68/101/22
f 65/103/7 69/169/7 70/104/7
f 69/107/80 61/92/69 59/87/70
f 62/108/81 61/170/82 68/101/82
f 72/110/84 73/171/124 62/108/81
f 73/111/85 74/112/86 52/84/73
f 74/112/86 26/38/33 5/113/33
f 75/114/87 72/110/84 64/109/83
f 76/116/89 32/172/125 77/117/90
f 76/119/91 81/124/126 31/44/92
f 78/120/23 77/132/23 79/121/23
f 78/123/22 80/173/22 81/124/22
f 80/130/95 85/129/94 83/125/96
f 86/131/97 85/174/98 79/121/98
f 87/133/100 67/175/127 88/134/101
f 66/98/102 91/140/126 88/136/103
f 89/137/8 93/176/8 90/138/8
f 91/140/7 93/177/7 89/141/7
f 93/144/105 92/142/3 83/125/96
f 90/138/106 85/174/106 86/131/107
f 87/139/108 86/131/107 94/145/109
f 77/132/99 96/147/112 94/145/111
f 32/76/60 50/75/60 96/147/112
f 67/115/88 87/139/108 95/146/110
