# Blender v2.78 (sub 0) OBJ File: 'Rebel02.blend'
# www.blender.org
o 1_BLDG_Pink.012_Block_SquareBuilding.021_Boring_square_building.001_Plane.001
v 39.888550 -35.899651 1.994436
v 23.933121 35.899685 1.994424
v -39.888554 35.899651 1.994395
v -39.888542 -35.899693 1.994403
v 39.888542 21.539810 1.994429
v -39.888550 7.036356 1.994398
v 7.818126 -35.899670 1.994423
v 39.888546 -7.179790 1.994433
v 39.888546 7.180005 1.994431
v 7.977714 35.899677 1.994417
v -7.977686 35.899670 1.994410
v -7.977692 35.899673 36.613083
v 39.888538 7.179996 36.613091
v -39.888554 35.899654 36.613087
v 39.888546 -35.899647 36.613075
v 7.977711 35.899681 36.613083
v 23.933121 35.899689 36.613098
v -39.888542 -35.899689 36.613083
v -39.888550 7.036343 36.613083
v 39.888538 -7.179812 36.613098
v 7.818130 -35.899666 36.613083
v 39.888535 21.539814 36.613091
vt 0.9503 0.0000
vt 1.0000 0.1417
vt 0.9503 0.1417
vt 0.2762 0.1417
vt 0.1657 0.0000
vt 0.2762 0.0000
vt 0.0552 0.0000
vt 0.0000 0.1417
vt 0.0000 0.0000
vt 0.3873 0.5318
vt 0.2762 0.6735
vt 0.2762 0.5318
vt 0.5525 0.5318
vt 0.3873 0.6735
vt 0.1105 0.1417
vt 0.1657 0.1417
vt 0.5525 0.1417
vt 0.6524 0.0000
vt 0.6524 0.1417
vt 0.8011 0.1417
vt 0.9006 0.0000
vt 0.9006 0.1417
vt 0.1105 0.0000
vt 0.8011 0.0000
vt 0.8011 0.1417
vt 1.0000 0.0000
vt 0.0552 0.1417
vt 0.5525 0.6735
vt 0.5525 0.0000
vt 0.8011 0.0000
vn 1.0000 0.0000 0.0000
vn 0.9135 0.4068 0.0000
vn -0.7071 0.7071 -0.0000
vn -0.0000 1.0000 -0.0000
vn 0.3583 0.9336 -0.0000
vn 0.0000 -1.0000 0.0000
vn 0.7071 -0.7071 0.0000
vn -0.7071 -0.7071 0.0000
vn -1.0000 -0.0000 -0.0000
s 1
f 9/1/1 22/2/2 13/3/1
f 14/4/3 11/5/4 3/6/3
f 2/7/5 22/8/2 5/9/2
f 21/10/6 1/11/7 15/12/7
f 18/13/8 7/14/6 21/10/6
f 16/15/4 11/5/4 12/16/4
f 14/17/3 6/18/9 19/19/9
f 15/20/7 8/21/1 20/22/1
f 13/3/1 8/21/1 9/1/1
f 16/15/4 2/7/5 10/23/4
f 19/19/9 4/24/8 18/25/8
f 9/1/1 5/26/2 22/2/2
f 14/4/3 12/16/4 11/5/4
f 2/7/5 17/27/5 22/8/2
f 21/10/6 7/14/6 1/11/7
f 18/13/8 4/28/8 7/14/6
f 16/15/4 10/23/4 11/5/4
f 14/17/3 3/29/3 6/18/9
f 15/20/7 1/30/7 8/21/1
f 13/3/1 20/22/1 8/21/1
f 16/15/4 17/27/5 2/7/5
f 19/19/9 6/18/9 4/24/8
