# Blender v2.78 (sub 0) OBJ File: 'Rebel02.blend'
# www.blender.org
o 1_BLDG_Condo.017_Block_Condo.019_Condo_Cube.000
v 37.740376 -7.871904 1.958559
v 37.740379 -4.504204 23.139923
v 37.740379 -7.871904 23.139923
v -1.698660 -24.004572 50.276581
v -1.698665 -20.332981 23.139933
v -1.698660 -20.332981 50.445103
v 10.174653 28.633671 50.445103
v 10.174642 28.633671 1.958565
v 0.101153 28.633688 29.263737
v 33.921192 -7.871904 23.139923
v 33.921200 -4.504126 50.445091
v 33.921200 -7.871904 50.445091
v 33.921165 -28.386475 1.958559
v -1.698665 -24.004572 23.139933
v -37.318508 -19.622671 1.958576
v 37.740376 28.633671 1.958559
v 37.740387 6.394058 50.445091
v 37.740376 6.394058 1.958559
v 33.921192 -4.504126 23.139923
v -37.318493 -19.622671 50.276592
v -37.318493 -15.845512 50.445110
v 33.921173 -24.820450 23.139923
v 33.921200 6.394058 50.445091
v 37.740387 28.633671 50.445091
v 33.921219 28.633671 50.445091
v 33.921200 -24.820450 145.905502
v 33.921177 -24.820450 50.445091
v 0.101158 28.633671 50.445103
v 10.174676 28.633671 145.905518
v -13.571933 20.901869 50.445103
v 0.101161 20.901869 145.905518
v 0.101138 20.901869 50.445103
v 33.921219 -7.871904 145.905502
v -36.203896 20.901869 50.445110
v -13.571909 20.901869 145.905518
v 33.921242 28.633671 163.306503
v 33.921238 28.633671 145.905518
v -33.462463 11.658860 50.445110
v -36.203873 20.901869 145.905518
v 33.921219 -4.504126 145.905502
v 37.740379 -28.290663 23.139923
v 37.740376 -28.290663 1.958559
v 33.921173 -28.386475 23.139923
v -13.571937 20.901869 29.263742
v -36.203903 20.901869 29.263746
v 0.101132 20.901869 29.263737
v 10.174680 28.633671 163.306503
v 28.462132 23.554188 163.306503
v -26.702005 2.760914 163.306503
v -26.701982 11.658860 172.675613
v -26.701984 11.658860 163.306503
v 0.101164 20.901869 163.306503
v 0.101167 23.554188 172.675613
v 0.101164 23.554188 163.306503
v 28.462132 6.394058 163.306503
v 28.462133 -4.504126 172.675613
v 28.462132 -4.504126 163.306503
v -23.581335 20.901869 163.306503
v -13.571902 20.901869 172.675613
v -13.571906 20.901869 163.306503
v 0.101184 28.633671 163.306503
v 10.174680 23.554188 163.306503
v 10.174652 -21.828812 145.905487
v 10.174631 -21.828812 50.445103
v 33.921219 6.394058 145.905518
v -33.502987 5.049919 145.905502
v -33.503010 5.049919 50.445110
v -33.462440 11.658860 145.905518
v -23.581335 2.760914 163.306503
v -26.702003 2.760914 172.675613
v -13.571937 28.633688 29.263742
v -36.203903 28.633688 29.263746
v -36.203911 20.901869 1.958576
v -13.571944 28.633671 1.958571
v 0.101146 28.633671 1.958567
v -36.203911 28.633688 1.958576
v -37.318501 -19.622671 23.139940
v -37.318508 -15.845512 1.958576
v -37.318501 -15.845512 29.263746
v 10.174565 -21.828793 23.139929
v -1.698636 -20.332981 145.905472
v 10.174683 23.554188 172.675613
v -23.581318 -8.613513 163.306503
v -23.581333 2.760914 172.675613
v -23.581335 11.658860 163.306503
v -23.581333 20.901869 172.675613
v 28.462133 23.554188 172.675613
v 10.174657 -14.864920 163.306503
v -23.581316 -8.613513 172.675613
v 33.921204 -24.820450 163.306503
v 10.174661 -21.828812 177.993912
v 10.174657 -21.828812 163.306503
v 28.462133 6.394058 172.675613
v 10.174661 -14.864920 172.675613
v 10.174661 -7.871904 177.993912
v 10.174661 -7.871904 172.675613
v 33.921223 -4.504126 163.306503
v 33.921223 6.394058 163.306503
v 10.174657 -18.346867 163.306503
v -30.008171 -11.996964 163.306503
v -33.502983 5.049919 163.306503
v -37.318470 -15.845512 163.306503
v -13.571902 -3.344011 172.675613
v 24.477425 6.394058 172.675613
v -13.571902 17.176765 172.675613
v 24.477407 -4.504126 172.675613
v 24.477428 6.394058 177.993912
v 24.477411 -4.504126 177.993912
v 13.596188 20.901869 172.675613
v 24.477449 20.901869 177.993912
v 24.477448 20.901869 172.675613
v 0.101167 20.901869 172.675613
v 10.174683 17.176785 172.675613
v 33.921230 -4.504126 177.993912
v 33.921223 -7.871904 163.306503
v 13.596188 17.176785 172.675613
v -13.571902 6.394079 172.675613
v -33.462437 11.658860 163.306503
v -23.581333 11.658860 172.675613
v 10.174661 6.394059 177.993912
v 33.921230 -7.871904 177.993912
v 10.174664 -7.871904 185.804596
v 13.596188 17.176785 177.993912
v -13.571902 17.176765 177.993912
v 10.174685 17.176785 185.804596
v 10.174684 17.176785 177.993912
v 13.596188 20.901869 177.993912
v -13.571902 -3.344011 177.993912
v -13.571902 6.394079 177.993912
v -1.698611 17.176785 172.675613
v 33.921211 -24.820450 177.993912
v -13.571900 -3.344011 185.804596
v 10.174664 6.394059 185.804596
v -13.571900 6.394079 185.804596
v -13.571900 17.176765 185.804596
v -1.698633 -20.332981 163.306503
v -37.318474 -15.845512 145.905502
v 0.101179 28.633671 145.905518
v -36.203873 20.901869 163.306503
v 37.740376 -4.504204 1.958559
v 37.740387 -4.504204 50.445091
vt 0.6760 0.6614
vt 0.5921 0.6741
vt 0.5921 0.6614
vt 0.9711 0.7461
vt 0.9857 0.6437
vt 0.9857 0.7467
vt 0.1091 0.1830
vt 0.1091 0.0000
vt 0.1490 0.1030
vt 0.6441 0.0000
vt 0.6574 0.1030
vt 0.6441 0.1030
vt 0.4840 0.8552
vt 0.4002 0.7198
vt 0.4840 0.5844
vt 0.6760 0.7992
vt 0.4840 0.7152
vt 0.6760 0.7152
vt 0.9629 0.5063
vt 0.9779 0.4033
vt 0.9779 0.5063
vt 0.7700 0.7198
vt 0.7848 0.5861
vt 0.7848 0.7216
vt 0.2714 0.7433
vt 0.2043 0.7577
vt 0.2043 0.7433
vt 0.7851 0.8055
vt 0.7700 0.7216
vt 0.7851 0.7216
vt 0.7851 0.8466
vt 0.7700 0.8055
vt 0.5770 0.4633
vt 0.5770 0.1030
vt 0.1490 0.1830
vt 0.1091 0.5432
vt 0.8782 0.4612
vt 0.9323 0.1010
vt 0.9323 0.4612
vt 0.6441 0.4633
vt 0.7886 0.4612
vt 0.8782 0.1010
vt 0.0151 0.6089
vt 0.0151 0.5432
vt 0.8252 0.5412
vt 0.7886 0.9014
vt 0.7886 0.5412
vt 0.7005 0.1030
vt 0.6574 0.4633
vt 0.1910 0.7577
vt 0.0151 0.1830
vt 0.5921 0.5844
vt 0.6760 0.5844
vt 0.4840 0.8695
vt 0.4002 0.8552
vt 0.8782 0.5412
vt 0.7886 0.5412
vt 0.2852 0.7577
vt 0.2856 0.7433
vt 0.9629 0.0000
vt 0.9323 0.0799
vt 0.9323 0.0000
vt 0.1521 0.8298
vt 0.1722 0.8989
vt 0.1521 0.9195
vt 0.4390 0.8695
vt 0.4038 0.9048
vt 0.4038 0.8695
vt 0.9629 0.5058
vt 0.9524 0.5412
vt 0.9524 0.5058
vt 0.9629 0.1718
vt 1.0000 0.2129
vt 0.9629 0.2129
vt 0.8385 0.0354
vt 0.8782 0.0000
vt 0.8782 0.0354
vt 0.1521 0.7918
vt 0.1722 0.8298
vt 0.2927 0.4813
vt 0.3875 0.1211
vt 0.3875 0.4813
vt 0.7886 0.1030
vt 0.7005 0.4633
vt 0.9340 0.5412
vt 0.8514 0.9014
vt 0.8514 0.5412
vt 0.8252 0.9014
vt 0.4514 0.9048
vt 0.4637 0.8695
vt 0.4637 0.9048
vt 0.6351 0.9362
vt 0.6658 0.8508
vt 0.6658 0.9362
vt 0.1910 0.6888
vt 0.1604 0.7918
vt 0.1604 0.6888
vt 0.2031 0.0000
vt 0.1490 0.0000
vt 0.2031 0.1030
vt 0.2927 0.0000
vt 0.2927 0.1030
vt 0.6351 0.7992
vt 0.6658 0.7992
vt 0.0000 0.7119
vt 0.0150 0.7918
vt 0.0000 0.7918
vt 0.2927 0.7198
vt 0.4002 0.5844
vt 0.0150 0.6888
vt 0.0000 0.6095
vt 0.0150 0.6089
vt 0.2927 0.5844
vt 0.3875 0.5844
vt 0.5770 0.0000
vt 0.9323 0.5412
vt 0.0000 0.1830
vt 0.0000 0.0000
vt 0.4348 0.1211
vt 0.5770 0.4813
vt 0.4348 0.4813
vt 1.0000 0.1070
vt 0.9629 0.0690
vt 1.0000 0.0690
vt 0.3672 0.9124
vt 0.3301 0.8695
vt 0.3672 0.8695
vt 0.4038 0.8695
vt 0.3672 0.9048
vt 0.3672 0.8695
vt 0.9629 0.0000
vt 1.0000 0.0000
vt 0.9340 0.6437
vt 0.9711 0.7729
vt 0.9340 0.7729
vt 0.2927 0.0554
vt 0.3875 0.0000
vt 0.3875 0.0554
vt 0.9629 0.1070
vt 1.0000 0.1718
vt 0.7556 0.8868
vt 0.7279 0.9068
vt 0.7279 0.8868
vt 0.2401 0.8989
vt 0.2833 0.9195
vt 0.2401 0.9195
vt 0.5999 0.8603
vt 0.6215 0.9913
vt 0.6078 0.9897
vt 0.6164 0.8379
vt 0.5512 0.8168
vt 0.6351 0.8123
vt 0.1065 0.8414
vt 0.1521 0.9310
vt 0.1244 0.9310
vt 0.5203 0.8508
vt 0.4840 0.8464
vt 0.5219 0.8391
vt 0.0679 0.9850
vt 0.1111 1.0000
vt 0.0679 1.0000
vt 0.0105 0.8414
vt 0.0105 0.8036
vt 0.0252 0.8414
vt 0.9840 0.3074
vt 0.9629 0.3486
vt 0.9629 0.3074
vt 0.9551 0.9050
vt 0.9340 0.8639
vt 0.9551 0.8639
vt 0.0000 0.9310
vt 0.0105 0.8930
vt 0.0252 0.9310
vt 0.6574 0.5844
vt 0.6441 0.5289
vt 0.6574 0.5289
vt 0.0105 0.9850
vt 0.0105 0.9439
vt 0.0252 0.9439
vt 0.0679 0.8414
vt 0.0823 0.8036
vt 0.9323 0.0000
vt 0.9323 0.0354
vt 0.5252 0.8138
vt 0.2927 0.8695
vt 0.3085 0.8896
vt 0.2927 0.8896
vt 0.4390 0.9048
vt 0.4514 0.8695
vt 0.4514 0.9048
vt 0.7700 0.6391
vt 0.7133 0.6802
vt 0.7133 0.6391
vt 0.7700 0.7456
vt 0.6760 0.6929
vt 0.7700 0.6929
vt 0.9938 0.2667
vt 0.9629 0.2129
vt 0.9938 0.2129
vt 0.7133 0.5844
vt 0.7564 0.5984
vt 0.9649 0.6437
vt 0.9340 0.5541
vt 0.9649 0.5541
vt 0.6760 0.8882
vt 0.6970 0.9289
vt 0.6760 0.9289
vt 0.2058 0.7577
vt 0.1910 0.7778
vt 0.1910 0.7577
vt 0.9860 0.8639
vt 0.9649 0.7729
vt 0.9860 0.7729
vt 0.9860 0.5541
vt 0.9649 0.5412
vt 0.9860 0.5412
vt 0.6760 0.8514
vt 0.6970 0.8882
vt 0.9860 0.5989
vt 0.9840 0.4033
vt 0.9840 0.3486
vt 0.5770 0.5844
vt 0.5770 0.5289
vt 0.5568 0.8433
vt 0.0252 0.8862
vt 0.1273 0.8036
vt 0.0471 0.7918
vt 0.0823 0.7918
vt 0.6760 0.6802
vt 0.7700 0.8343
vt 0.6760 0.7976
vt 0.7700 0.7976
vt 0.7700 0.7569
vt 0.6760 0.7569
vt 0.9938 0.3074
vt 0.9629 0.2667
vt 0.6970 0.8514
vt 0.7279 0.8882
vt 0.7279 0.9289
vt 0.9649 0.8639
vt 0.9340 0.7729
vt 0.4348 0.0554
vt 0.9340 0.9014
vt 0.8514 0.9671
vt 0.9629 0.4402
vt 0.1490 0.5432
vt 0.1091 0.6089
vt 0.7886 0.4633
vt 0.7005 0.5289
vt 0.8252 0.9671
vt 0.7886 0.1010
vt 0.7886 0.9671
vt 0.5770 0.1211
vt 0.5770 0.0554
vt 0.6760 0.6741
vt 0.4840 0.6741
vt 0.0471 0.8036
vt 0.6351 0.9478
vt 0.6351 0.9930
vt 0.4903 0.7992
vt 0.3301 0.9249
vt 0.3301 0.8695
vt 0.9966 0.3074
vt 0.9840 0.3669
vt 0.9846 0.3420
vt 0.7832 0.8514
vt 0.7832 0.9068
vt 0.9323 0.4402
vt 0.9629 0.0799
vt 0.9860 0.6437
vt 0.9323 0.5058
vt 0.2927 0.1211
vt 0.4348 0.5844
vt 0.2682 0.6089
vt 0.2596 0.6537
vt 0.2537 0.6089
vt 0.7694 0.8514
vt 0.7556 0.8514
vt 0.9711 0.6437
vt 0.6574 0.0000
vt 0.4840 0.7992
vt 0.9629 0.4033
vt 0.7704 0.5844
vt 0.7700 0.8466
vt 0.1910 0.7433
vt 0.4002 0.8695
vt 0.4390 0.9048
vt 0.9629 0.5412
vt 0.8385 0.0000
vt 0.1722 0.7918
vt 0.4514 0.8695
vt 0.6351 0.8508
vt 0.1910 0.7918
vt 0.2927 0.5844
vt 0.9629 0.1070
vt 0.3301 0.9124
vt 0.4038 0.9048
vt 0.9711 0.6437
vt 0.2927 0.0000
vt 1.0000 0.1070
vt 0.2833 0.8989
vt 0.1111 0.9850
vt 0.9340 0.9050
vt 0.0000 0.8930
vt 0.6441 0.5844
vt 0.0000 1.0000
vt 0.4390 0.8695
vt 0.6760 0.7569
vt 0.7564 0.5844
vt 0.9340 0.6437
vt 0.2058 0.7778
vt 0.9629 0.4033
vt 0.5553 0.8550
vt 0.6760 0.8514
vt 0.9629 0.3074
vt 0.7279 0.8514
vt 0.9340 0.8639
vt 0.9340 0.9671
vt 0.1490 0.6089
vt 0.7886 0.5289
vt 0.7886 0.0354
vt 0.7700 0.5984
vt 0.3085 0.9249
vt 0.1604 0.6089
vt 0.9966 0.4462
vn 1.0000 0.0000 -0.0000
vn 0.0000 1.0000 0.0000
vn -0.1221 -0.9925 0.0000
vn -0.0000 -1.0000 -0.0000
vn -0.0056 -0.0454 0.9990
vn -0.0056 -0.0450 0.9990
vn -0.0056 -0.0446 0.9990
vn 0.0000 0.0000 1.0000
vn -0.9587 -0.2844 0.0000
vn 0.0251 -0.9997 -0.0000
vn -1.0000 0.0000 0.0000
vn -0.1250 -0.9922 0.0000
vn -0.9837 0.1796 0.0000
vn -1.0000 0.0061 0.0000
vn -0.1821 -0.9833 0.0000
vn -0.1873 -0.9823 0.0000
vn -0.9995 0.0303 0.0000
vn -0.0056 -0.0458 0.9989
s 1
f 1/1/1 2/2/1 3/3/1
f 4/4/1 5/5/1 6/6/1
f 7/7/2 8/8/2 9/9/2
f 10/10/1 11/11/1 12/12/1
f 13/13/3 14/14/3 15/15/3
f 16/16/1 17/17/1 18/18/1
f 2/19/4 11/20/4 19/21/4
f 20/22/5 6/23/6 21/24/7
f 22/25/8 3/26/8 10/27/8
f 23/28/8 24/29/8 25/30/8
f 11/31/8 17/32/8 23/28/8
f 12/12/1 26/33/1 27/34/1
f 28/35/2 29/36/2 7/7/2
f 30/37/2 31/38/2 32/39/2
f 11/11/1 33/40/1 12/12/1
f 34/41/2 35/42/2 30/37/2
f 29/36/2 36/43/2 37/44/2
f 38/45/9 39/46/9 34/47/9
f 23/48/1 40/49/1 11/11/1
f 2/50/8 10/27/8 3/26/8
f 7/7/2 37/44/2 25/51/2
f 1/1/1 41/52/1 42/53/1
f 42/54/10 43/55/10 13/13/10
f 34/41/2 44/56/2 45/57/2
f 41/58/8 22/25/8 43/59/8
f 46/60/11 28/61/11 9/62/11
f 47/63/8 48/64/8 36/65/8
f 49/66/11 50/67/11 51/68/11
f 52/69/11 53/70/11 54/71/11
f 55/72/1 56/73/1 57/74/1
f 58/75/2 59/76/2 60/77/2
f 61/78/8 62/79/8 47/63/8
f 27/80/12 63/81/12 64/82/12
f 25/83/1 65/84/1 23/48/1
f 21/85/13 66/86/13 67/87/13
f 38/45/14 66/86/14 68/88/14
f 69/89/4 70/90/4 49/91/4
f 45/92/8 71/93/8 72/94/8
f 72/95/11 73/96/11 45/97/11
f 74/98/2 9/9/2 75/99/2
f 71/100/2 76/101/2 72/102/2
f 71/93/8 46/103/8 9/104/8
f 77/105/11 78/106/11 15/107/11
f 4/108/3 77/109/3 14/14/3
f 79/110/11 20/111/11 21/112/11
f 22/113/12 64/82/12 80/114/12
f 22/115/1 12/12/1 27/34/1
f 30/37/2 46/116/2 44/56/2
f 24/117/2 16/118/2 25/51/2
f 81/119/12 21/120/12 6/121/12
f 54/122/2 82/123/2 62/124/2
f 83/125/11 84/126/11 69/127/11
f 85/128/11 86/129/11 58/130/11
f 62/124/2 87/131/2 48/132/2
f 88/133/15 89/134/15 83/135/15
f 90/136/12 91/137/12 92/138/12
f 48/139/1 93/140/1 55/72/1
f 94/141/11 95/142/11 96/143/11
f 55/144/8 97/145/8 98/146/8
f 83/147/8 99/148/8 88/149/8
f 100/150/8 101/151/8 102/152/8
f 103/153/8 94/154/8 96/155/8
f 85/156/8 58/157/8 51/158/8
f 104/159/8 56/160/8 93/161/8
f 59/162/8 86/163/8 105/164/8
f 106/165/1 107/166/1 108/167/1
f 109/168/2 110/169/2 111/170/2
f 82/171/8 112/172/8 113/173/8
f 114/174/1 115/175/1 97/176/1
f 93/161/8 111/177/8 104/159/8
f 109/178/8 113/173/8 116/179/8
f 117/180/8 84/181/8 103/153/8
f 60/77/2 112/182/2 52/183/2
f 101/151/8 51/158/8 118/184/8
f 108/185/2 56/186/2 106/187/2
f 51/188/2 119/189/2 85/190/2
f 120/191/8 108/192/8 107/193/8
f 91/194/8 121/195/8 95/196/8
f 120/197/1 122/198/1 95/199/1
f 110/200/8 123/201/8 107/193/8
f 124/202/2 125/203/2 126/204/2
f 117/205/11 124/206/11 105/207/11
f 116/208/11 127/209/11 109/210/11
f 96/211/16 128/212/16 103/213/16
f 113/214/2 123/215/2 116/216/2
f 103/217/11 129/218/11 117/205/11
f 113/214/2 130/219/2 126/204/2
f 111/220/1 107/166/1 104/221/1
f 115/175/1 131/222/1 90/223/1
f 83/147/8 49/224/8 100/150/8
f 130/225/8 59/162/8 105/164/8
f 103/153/8 84/181/8 89/226/8
f 84/181/8 50/227/8 70/228/8
f 108/192/8 121/195/8 114/229/8
f 132/230/8 133/231/8 134/232/8
f 135/233/8 133/231/8 125/234/8
f 126/235/1 133/236/1 120/197/1
f 128/237/11 134/238/11 129/218/11
f 129/218/11 135/239/11 124/206/11
f 95/240/16 132/241/16 128/212/16
f 63/81/12 136/242/12 81/119/12
f 137/243/13 101/244/13 66/86/13
f 54/71/11 31/245/11 52/69/11
f 138/246/2 47/247/2 29/36/2
f 40/49/1 115/175/1 33/40/1
f 8/8/2 25/51/2 16/118/2
f 65/84/1 97/176/1 40/49/1
f 37/248/1 98/249/1 65/84/1
f 68/88/14 101/244/14 118/250/14
f 33/40/1 90/223/1 26/33/1
f 35/42/2 52/183/2 31/38/2
f 39/251/2 58/75/2 35/42/2
f 68/88/9 139/252/9 39/46/9
f 137/253/12 136/242/12 102/254/12
f 140/255/1 18/18/1 2/2/1
f 141/256/1 2/2/1 17/17/1
f 17/17/1 2/2/1 18/18/1
f 84/181/8 117/180/8 119/257/8
f 94/154/8 103/153/8 89/226/8
f 99/148/8 136/258/8 92/259/8
f 136/258/8 99/148/8 100/150/8
f 112/172/8 130/225/8 113/173/8
f 51/158/8 139/260/8 118/184/8
f 123/201/8 120/191/8 107/193/8
f 111/177/8 82/171/8 109/178/8
f 48/64/8 98/146/8 36/65/8
f 97/261/2 56/186/2 114/262/2
f 73/96/17 79/110/17 45/97/17
f 21/112/17 45/97/17 79/110/17
f 34/263/8 67/264/8 38/265/8
f 100/150/8 102/152/8 136/258/8
f 94/141/11 92/266/11 91/267/11
f 138/268/11 32/269/11 31/245/11
f 105/164/8 119/257/8 117/180/8
f 124/202/2 130/219/2 105/270/2
f 126/204/2 130/219/2 124/202/2
f 119/257/8 105/164/8 86/163/8
f 138/268/11 54/71/11 61/271/11
f 92/138/12 26/272/12 90/136/12
f 64/82/12 81/119/12 6/121/12
f 80/114/12 6/121/12 5/273/12
f 14/274/8 80/275/8 5/276/8
f 80/275/8 14/274/8 43/59/8
f 43/59/8 22/25/8 80/275/8
f 99/277/11 94/141/11 88/278/11
f 1/1/1 140/255/1 2/2/1
f 4/4/1 14/279/1 5/5/1
f 75/99/2 9/9/2 8/8/2
f 28/35/2 7/7/2 9/9/2
f 10/10/1 19/280/1 11/11/1
f 77/109/3 15/15/3 14/14/3
f 13/13/3 43/55/3 14/14/3
f 16/16/1 24/281/1 17/17/1
f 2/19/4 141/282/4 11/20/4
f 20/22/5 4/283/18 6/23/6
f 22/25/8 41/58/8 3/26/8
f 23/28/8 17/32/8 24/29/8
f 11/31/8 141/284/8 17/32/8
f 12/12/1 33/40/1 26/33/1
f 28/35/2 138/246/2 29/36/2
f 30/37/2 35/42/2 31/38/2
f 11/11/1 40/49/1 33/40/1
f 34/41/2 39/251/2 35/42/2
f 29/36/2 47/247/2 36/43/2
f 38/45/9 68/88/9 39/46/9
f 23/48/1 65/84/1 40/49/1
f 2/50/8 19/285/8 10/27/8
f 7/7/2 29/36/2 37/44/2
f 1/1/1 3/3/1 41/52/1
f 42/54/10 41/286/10 43/55/10
f 34/41/2 30/37/2 44/56/2
f 46/60/11 32/269/11 28/61/11
f 47/63/8 62/79/8 48/64/8
f 49/66/11 70/287/11 50/67/11
f 52/69/11 112/288/11 53/70/11
f 55/72/1 93/140/1 56/73/1
f 58/75/2 86/289/2 59/76/2
f 61/78/8 54/290/8 62/79/8
f 27/80/12 26/272/12 63/81/12
f 25/83/1 37/248/1 65/84/1
f 21/85/13 137/243/13 66/86/13
f 38/45/14 67/87/14 66/86/14
f 69/89/4 84/291/4 70/90/4
f 45/92/8 44/292/8 71/93/8
f 72/95/11 76/293/11 73/96/11
f 74/98/2 71/100/2 9/9/2
f 71/100/2 74/98/2 76/101/2
f 71/93/8 44/292/8 46/103/8
f 77/105/11 79/110/11 78/106/11
f 4/108/3 20/294/3 77/109/3
f 79/110/11 77/105/11 20/111/11
f 22/113/12 27/80/12 64/82/12
f 22/115/1 10/10/1 12/12/1
f 30/37/2 32/39/2 46/116/2
f 81/119/12 137/253/12 21/120/12
f 54/122/2 53/295/2 82/123/2
f 83/125/11 89/296/11 84/126/11
f 85/128/11 119/297/11 86/129/11
f 62/124/2 82/123/2 87/131/2
f 88/133/15 94/298/15 89/134/15
f 90/136/12 131/299/12 91/137/12
f 48/139/1 87/300/1 93/140/1
f 94/141/11 91/267/11 95/142/11
f 55/144/8 57/301/8 97/145/8
f 83/147/8 100/150/8 99/148/8
f 100/150/8 49/224/8 101/151/8
f 104/159/8 106/302/8 56/160/8
f 106/165/1 104/221/1 107/166/1
f 109/168/2 127/303/2 110/169/2
f 82/171/8 53/304/8 112/172/8
f 114/174/1 121/305/1 115/175/1
f 93/161/8 87/306/8 111/177/8
f 109/178/8 82/171/8 113/173/8
f 60/77/2 59/76/2 112/182/2
f 101/151/8 49/224/8 51/158/8
f 108/185/2 114/262/2 56/186/2
f 51/188/2 50/307/2 119/189/2
f 120/191/8 95/196/8 108/192/8
f 91/194/8 131/308/8 121/195/8
f 120/197/1 133/236/1 122/198/1
f 110/200/8 127/309/8 123/201/8
f 124/202/2 135/310/2 125/203/2
f 117/205/11 129/218/11 124/206/11
f 116/208/11 123/311/11 127/209/11
f 96/211/16 95/240/16 128/212/16
f 113/214/2 126/204/2 123/215/2
f 103/217/11 128/237/11 129/218/11
f 111/220/1 110/312/1 107/166/1
f 115/175/1 121/305/1 131/222/1
f 83/147/8 69/313/8 49/224/8
f 130/225/8 112/172/8 59/162/8
f 84/181/8 119/257/8 50/227/8
f 108/192/8 95/196/8 121/195/8
f 132/230/8 122/314/8 133/231/8
f 135/233/8 134/232/8 133/231/8
f 126/235/1 125/315/1 133/236/1
f 128/237/11 132/316/11 134/238/11
f 129/218/11 134/238/11 135/239/11
f 95/240/16 122/317/16 132/241/16
f 63/81/12 92/138/12 136/242/12
f 137/243/13 102/318/13 101/244/13
f 138/246/2 61/319/2 47/247/2
f 40/49/1 97/176/1 115/175/1
f 8/8/2 7/7/2 25/51/2
f 65/84/1 98/249/1 97/176/1
f 37/248/1 36/320/1 98/249/1
f 68/88/14 66/86/14 101/244/14
f 33/40/1 115/175/1 90/223/1
f 35/42/2 60/77/2 52/183/2
f 60/77/2 35/42/2 58/75/2
f 39/251/2 139/321/2 58/75/2
f 68/88/9 118/250/9 139/252/9
f 137/253/12 81/119/12 136/242/12
f 51/158/8 58/157/8 139/260/8
f 123/201/8 126/322/8 120/191/8
f 111/177/8 87/306/8 82/171/8
f 48/64/8 55/144/8 98/146/8
f 97/261/2 57/323/2 56/186/2
f 73/96/17 78/106/17 79/110/17
f 21/112/17 34/324/17 45/97/17
f 34/263/8 21/325/8 67/264/8
f 94/141/11 99/277/11 92/266/11
f 138/268/11 28/61/11 32/269/11
f 138/268/11 31/245/11 54/71/11
f 92/138/12 63/81/12 26/272/12
f 64/82/12 63/81/12 81/119/12
f 80/114/12 64/82/12 6/121/12
